<?xml version="1.0" encoding="UTF-8" standalone="no"?>
<!-- Created with Inkscape (http://www.inkscape.org/) -->

<svg
   xmlns:dc="http://purl.org/dc/elements/1.1/"
   xmlns:cc="http://creativecommons.org/ns#"
   xmlns:rdf="http://www.w3.org/1999/02/22-rdf-syntax-ns#"
   xmlns:svg="http://www.w3.org/2000/svg"
   xmlns="http://www.w3.org/2000/svg"
   xmlns:sodipodi="http://sodipodi.sourceforge.net/DTD/sodipodi-0.dtd"
   xmlns:inkscape="http://www.inkscape.org/namespaces/inkscape"
   width="51.538498mm"
   height="18.007824mm"
   viewBox="0 0 51.538498 18.007824"
   version="1.1"
   id="svg6945"
   inkscape:version="0.92.4 (fd57863, 2020-04-02)"
   sodipodi:docname="ak47.svg">
  <defs
     id="defs6939" />
  <sodipodi:namedview
     id="base"
     pagecolor="#ffffff"
     bordercolor="#666666"
     borderopacity="1.0"
     inkscape:pageopacity="0.0"
     inkscape:pageshadow="2"
     inkscape:zoom="0.79980469"
     inkscape:cx="-33.984146"
     inkscape:cy="37.644706"
     inkscape:document-units="mm"
     inkscape:current-layer="layer1"
     showgrid="false"
     inkscape:pagecheckerboard="true"
     inkscape:window-width="1366"
     inkscape:window-height="740"
     inkscape:window-x="0"
     inkscape:window-y="0"
     inkscape:window-maximized="1" />
  <metadata
     id="metadata6942">
    <rdf:RDF>
      <cc:Work
         rdf:about="">
        <dc:format>image/svg+xml</dc:format>
        <dc:type
           rdf:resource="http://purl.org/dc/dcmitype/StillImage" />
        <dc:title></dc:title>
      </cc:Work>
    </rdf:RDF>
  </metadata>
  <g
     inkscape:label="Layer 1"
     inkscape:groupmode="layer"
     id="layer1"
     transform="translate(-61.564573,-140.78567)">
    <g
       id="g6318"
       transform="translate(-39.92697,-187.80302)">
      <path
         sodipodi:nodetypes="cccccccc"
         inkscape:connector-curvature="0"
         id="path6151"
         d="m 113.09177,333.84137 c 0.16883,1.32349 -0.0101,2.33416 0.72199,3.51164 l -9.70062,4.79735 c -0.90492,0.3002 -2.77966,-8.24688 -1.99938,-8.2706 l 6.55348,-0.5373 c 0.6075,0.0288 0.75851,0.30953 1.19717,0.61193 0.42774,0.10849 2.45045,-0.14819 3.22736,-0.11303 z"
         style="fill:none;stroke:#000000;stroke-width:0.87193257;stroke-linecap:butt;stroke-linejoin:miter;stroke-miterlimit:4;stroke-dasharray:none;stroke-opacity:1" />
      <path
         inkscape:connector-curvature="0"
         id="path6153"
         d="m 113.09177,333.84135 0.72199,3.51168 16.49476,-0.0384 0.11105,-4.1449 3.40633,-0.0768 v -2.6865 l -0.92563,-0.92109 -4.36899,0.0767 v 1.57353 l -12.73669,0.0767 -2.70285,2.62891"
         style="fill:none;stroke:#000000;stroke-width:0.87193257;stroke-linecap:butt;stroke-linejoin:miter;stroke-miterlimit:4;stroke-dasharray:none;stroke-opacity:1" />
      <path
         inkscape:connector-curvature="0"
         id="path6155"
         d="m 116.38702,333.86056 10.5522,0.0767"
         style="fill:none;stroke:#000000;stroke-width:0.68386871;stroke-linecap:butt;stroke-linejoin:miter;stroke-miterlimit:4;stroke-dasharray:none;stroke-opacity:1" />
      <path
         sodipodi:nodetypes="ccccc"
         inkscape:connector-curvature="0"
         id="path6157"
         d="m 133.82589,333.09291 5.55383,0.0768 v -2.80164 l -5.55383,0.0383 v 2.68651"
         style="fill:none;stroke:#000000;stroke-width:0.75795448;stroke-linecap:butt;stroke-linejoin:miter;stroke-miterlimit:4;stroke-dasharray:none;stroke-opacity:1" />
      <path
         sodipodi:nodetypes="ccccc"
         inkscape:connector-curvature="0"
         id="path6159"
         d="m 139.37972,333.16972 -0.0371,3.03194 -4.62817,0.0384 c -1.25617,-0.099 -2.10819,0.58 -3.03607,1.11299 l -1.36994,-0.0384"
         style="fill:none;stroke:#000000;stroke-width:0.75795448;stroke-linecap:butt;stroke-linejoin:miter;stroke-miterlimit:4;stroke-dasharray:none;stroke-opacity:1" />
      <path
         inkscape:connector-curvature="0"
         id="path6161"
         d="m 139.42329,331.09212 3.11551,-0.027 0.62834,1.39759 4.17586,-0.0135 1.28285,-3.40578 1.08649,-0.0136 0.20945,3.51435 h 2.67044 l -0.013,3.08012 -13.23442,0.0815"
         style="fill:none;stroke:#000000;stroke-width:0.87193257;stroke-linecap:butt;stroke-linejoin:miter;stroke-miterlimit:4;stroke-dasharray:none;stroke-opacity:1" />
      <path
         inkscape:connector-curvature="0"
         id="path6163"
         d="m 149.92179,332.54421 -10.51429,0.12662"
         style="fill:none;stroke:#000000;stroke-width:0.87193257;stroke-linecap:butt;stroke-linejoin:miter;stroke-miterlimit:4;stroke-dasharray:none;stroke-opacity:1" />
      <path
         sodipodi:nodetypes="cccc"
         inkscape:connector-curvature="0"
         id="path6165"
         d="m 128.11093,337.39968 c 0.32107,2.00628 1.19753,3.84136 2.52074,5.53874 l -2.68418,3.07427 c -2.10598,-2.73989 -3.24997,-3.68958 -4.12086,-8.6266"
         style="fill:none;stroke:#000000;stroke-width:0.74049395;stroke-linecap:butt;stroke-linejoin:miter;stroke-miterlimit:4;stroke-dasharray:none;stroke-opacity:1" />
      <path
         sodipodi:nodetypes="cccc"
         inkscape:connector-curvature="0"
         id="path6167"
         d="m 113.81376,337.35303 c 2.4535,-0.0429 -0.40728,4.29841 -0.61092,6.44761 l 3.18418,1.20893 c 0.33866,-3.04376 1.07545,-4.90595 2.4992,-6.77383"
         style="fill:none;stroke:#000000;stroke-width:0.87193257;stroke-linecap:butt;stroke-linejoin:miter;stroke-miterlimit:4;stroke-dasharray:none;stroke-opacity:1" />
      <path
         sodipodi:nodetypes="cccc"
         inkscape:connector-curvature="0"
         id="path6169"
         d="m 118.79366,337.29546 c 0.30855,1.20252 -0.55418,3.24234 0.87935,3.60758 0.7991,0.0928 1.61386,0.10468 2.46218,-0.0575 1.27525,-0.33056 0.56464,-2.35389 0.82381,-3.53083"
         style="fill:none;stroke:#000000;stroke-width:0.87193257;stroke-linecap:butt;stroke-linejoin:miter;stroke-miterlimit:4;stroke-dasharray:none;stroke-opacity:1" />
      <path
         sodipodi:nodetypes="cc"
         inkscape:connector-curvature="0"
         id="path6171"
         d="m 120.04947,337.30667 c -0.25242,1.18745 0.46159,1.49573 1.07341,2.25243"
         style="fill:none;stroke:#000000;stroke-width:0.87193257;stroke-linecap:butt;stroke-linejoin:miter;stroke-miterlimit:4;stroke-dasharray:none;stroke-opacity:1" />
      <ellipse
         ry="0.47707945"
         rx="0.48802501"
         cy="336.18243"
         cx="111.15724"
         id="path6173"
         style="opacity:1;fill:#b3b3b3;fill-opacity:1;stroke:#000000;stroke-width:0.53788227;stroke-miterlimit:4;stroke-dasharray:none;stroke-opacity:1" />
      <path
         inkscape:connector-curvature="0"
         id="path6197"
         d="m 114.16438,336.8249 c -0.0115,-0.0404 -0.14786,-0.69238 -0.3028,-1.44874 l -0.28169,-1.37522 0.32333,-0.31344 c 0.17784,-0.1724 0.71592,-0.69561 1.19568,-1.16272 l 0.87232,-0.84928 4.35103,-0.024 c 2.39305,-0.0132 5.32154,-0.0346 6.50771,-0.0476 l 2.15674,-0.0237 v -0.78215 -0.78216 l 0.30545,-0.003 c 0.168,0 1.00525,-0.016 1.86053,-0.0324 l 1.55506,-0.0298 0.34247,0.32631 0.3425,0.32628 v 1.00739 1.00739 l -0.17589,0.0218 c -0.0967,0.012 -0.86313,0.0331 -1.70316,0.047 -1.37236,0.0227 -1.52731,0.0316 -1.52742,0.0874 0,0.28299 -0.11588,4.0522 -0.12408,4.06071 -0.006,0.006 -3.53553,0.0227 -7.84368,0.0371 -7.69681,0.0255 -7.83339,0.0246 -7.8541,-0.0475 z m 12.78593,-2.87106 v -0.36051 l -0.60167,-0.0227 c -0.33089,-0.0126 -2.71348,-0.0337 -5.29462,-0.0469 l -4.69294,-0.024 v 0.36905 0.36908 l 1.86051,0.006 c 1.67386,0.005 6.7271,0.0443 8.16407,0.0636 l 0.56465,0.008 z"
         style="opacity:1;fill:#b3b3b3;fill-opacity:1;stroke:#000000;stroke-width:0.41943946;stroke-miterlimit:4;stroke-dasharray:none;stroke-opacity:1" />
      <path
         inkscape:connector-curvature="0"
         id="path6201"
         d="m 139.75896,334.19633 c 0.0187,-0.55695 0.0436,-1.02262 0.0553,-1.03478 0.033,-0.0342 6.87233,-0.11949 9.75811,-0.12164 l 2.57883,-0.003 v 1.04949 1.04948 l -2.94535,0.036 c -1.61993,0.0196 -4.41584,0.036 -6.21314,0.036 l -3.26779,6e-5 z"
         style="opacity:1;fill:#b3b3b3;fill-opacity:1;stroke:#000000;stroke-width:0.10900433;stroke-miterlimit:4;stroke-dasharray:none;stroke-opacity:1" />
      <path
         inkscape:connector-curvature="0"
         id="path6205"
         d="m 127.58189,344.92911 c -1.10035,-1.40946 -1.47702,-1.9457 -1.85953,-2.64716 -0.6061,-1.11154 -1.08196,-2.59266 -1.44637,-4.50183 l -0.0145,-0.0755 1.76302,0.006 1.76303,0.006 0.041,0.20833 c 0.30663,1.55477 1.05735,3.24058 2.084,4.67986 0.11756,0.16478 0.20881,0.31305 0.20281,0.32947 -0.015,0.0408 -2.13398,2.46506 -2.15335,2.46347 -0.009,0 -0.17961,-0.21154 -0.38027,-0.46856 z"
         style="opacity:1;fill:#b3b3b3;fill-opacity:1;stroke:#000000;stroke-width:0.04628628;stroke-miterlimit:4;stroke-dasharray:none;stroke-opacity:1" />
      <path
         inkscape:connector-curvature="0"
         id="path6207"
         d="m 147.96447,332.06893 c 0.007,-0.0224 0.2281,-0.61209 0.49027,-1.31046 l 0.47668,-1.26975 0.18418,0.008 0.18418,0.008 0.0759,1.28276 c 0.0417,0.70553 0.0712,1.28762 0.0655,1.29355 -0.006,0.006 -0.34339,0.0147 -0.75037,0.02 -0.6488,0.008 -0.73823,0.004 -0.72629,-0.0317 z"
         style="opacity:1;fill:#000000;fill-opacity:1;stroke:#000000;stroke-width:0.05450216;stroke-miterlimit:4;stroke-dasharray:none;stroke-opacity:1" />
      <path
         inkscape:connector-curvature="0"
         id="path6209"
         d="m 139.75688,331.88327 v -0.32134 l 0.51474,-0.0178 c 0.28308,-0.01 0.84619,-0.0178 1.25131,-0.0178 h 0.73659 l 0.14529,0.32133 0.14529,0.32137 -0.84027,0.0178 c -0.46216,0.01 -1.09061,0.0178 -1.39662,0.0178 l -0.55633,6e-5 z"
         style="opacity:1;fill:#000000;fill-opacity:1;stroke:#000000;stroke-width:0.05450216;stroke-miterlimit:4;stroke-dasharray:none;stroke-opacity:1" />
      <path
         inkscape:connector-curvature="0"
         id="path6211"
         d="m 103.79464,340.82218 c -0.80126,-1.92842 -1.61161,-6.48848 -1.15238,-6.48467 0.11378,0 1.55151,-0.11103 3.19496,-0.24882 l 2.98806,-0.25057 0.47117,0.34778 c 0.43696,0.3225 0.57611,0.34114 1.91545,0.25658 l 1.44425,-0.0912 0.0857,1.05904 c 0.0471,0.58246 0.15732,1.19784 0.24487,1.36744 0.12752,0.24695 0.10723,0.33721 -0.1018,0.45296 -0.38589,0.2137 -7.09366,3.52734 -8.00445,3.95423 l -0.78263,0.36684 z m 7.98499,-4.06086 c 0.24923,-0.25834 0.2212,-0.82339 -0.055,-1.1097 -0.47372,-0.49103 -1.39639,-0.14326 -1.39639,0.52634 0,0.63472 1.01014,1.04074 1.45139,0.58336 z"
         style="opacity:1;fill:#ec761f;fill-opacity:1;stroke:#000000;stroke-width:0.30831081;stroke-miterlimit:4;stroke-dasharray:none;stroke-opacity:1" />
      <path
         inkscape:connector-curvature="0"
         id="path6213"
         d="m 130.86696,335.37201 c 0.0486,-0.86545 0.11635,-1.60635 0.15056,-1.64644 0.0342,-0.0401 1.82437,-0.10003 3.97821,-0.13313 l 3.91603,-0.0602 v 1.07767 1.07771 l -2.63688,0.0533 -2.63691,0.0533 -1.12332,0.57568 c -0.61782,0.3166 -1.26117,0.57567 -1.42968,0.57567 -0.29558,0 -0.30328,-0.0554 -0.21801,-1.57352 z"
         style="opacity:1;fill:#ec761f;fill-opacity:1;stroke:#000000;stroke-width:0.30831081;stroke-miterlimit:4;stroke-dasharray:none;stroke-opacity:1" />
      <path
         inkscape:connector-curvature="0"
         id="path6215"
         d="m 134.32062,331.72604 v -0.92109 h 2.29557 2.29557 v 0.92109 0.92109 h -2.29557 -2.29557 z"
         style="opacity:1;fill:#ec761f;fill-opacity:1;stroke:#000000;stroke-width:0.30831081;stroke-miterlimit:4;stroke-dasharray:none;stroke-opacity:1" />
      <path
         inkscape:connector-curvature="0"
         id="path6217"
         d="m 114.84532,343.89139 c -0.57019,-0.21946 -1.05631,-0.41289 -1.08028,-0.42984 -0.024,-0.0169 0.29517,-0.9793 0.7092,-2.13852 0.45014,-1.26035 0.75804,-2.37883 0.76583,-2.78205 l 0.013,-0.67436 h 1.53628 c 0.84494,0 1.53584,0.0518 1.5353,0.11514 0,0.0633 -0.13894,0.32238 -0.30757,0.57568 -0.6762,1.01574 -1.47097,2.94603 -1.77562,4.31259 -0.17707,0.79431 -0.33041,1.43883 -0.34072,1.43229 -0.0104,-0.006 -0.4853,-0.19149 -1.05549,-0.41093 z"
         style="opacity:1;fill:#ec761f;fill-opacity:1;stroke:#000000;stroke-width:0.30831081;stroke-miterlimit:4;stroke-dasharray:none;stroke-opacity:1" />
    </g>
  </g>
</svg>
