<?xml version="1.0" encoding="UTF-8" standalone="no"?>
<!-- Created with Inkscape (http://www.inkscape.org/) -->

<svg
   xmlns:dc="http://purl.org/dc/elements/1.1/"
   xmlns:cc="http://creativecommons.org/ns#"
   xmlns:rdf="http://www.w3.org/1999/02/22-rdf-syntax-ns#"
   xmlns:svg="http://www.w3.org/2000/svg"
   xmlns="http://www.w3.org/2000/svg"
   xmlns:sodipodi="http://sodipodi.sourceforge.net/DTD/sodipodi-0.dtd"
   xmlns:inkscape="http://www.inkscape.org/namespaces/inkscape"
   width="60.056145mm"
   height="20.092665mm"
   viewBox="0 0 60.056145 20.092665"
   version="1.1"
   id="svg12096"
   inkscape:version="0.92.4 (f8dce91, 2019-08-02)"
   sodipodi:docname="arctic50.svg"
   inkscape:export-filename="/home/not-yeshwanth-reddy/Documents/Unity Projects/karepaaak_files/arctic50.png"
   inkscape:export-xdpi="96"
   inkscape:export-ydpi="96">
  <defs
     id="defs12090" />
  <sodipodi:namedview
     id="base"
     pagecolor="#ffffff"
     bordercolor="#666666"
     borderopacity="1.0"
     inkscape:pageopacity="0.0"
     inkscape:pageshadow="2"
     inkscape:zoom="0.35"
     inkscape:cx="10.634768"
     inkscape:cy="83.684678"
     inkscape:document-units="mm"
     inkscape:current-layer="layer1"
     showgrid="false"
     inkscape:pagecheckerboard="true"
     inkscape:window-width="1366"
     inkscape:window-height="740"
     inkscape:window-x="0"
     inkscape:window-y="0"
     inkscape:window-maximized="1" />
  <metadata
     id="metadata12093">
    <rdf:RDF>
      <cc:Work
         rdf:about="">
        <dc:format>image/svg+xml</dc:format>
        <dc:type
           rdf:resource="http://purl.org/dc/dcmitype/StillImage" />
        <dc:title></dc:title>
      </cc:Work>
    </rdf:RDF>
  </metadata>
  <g
     inkscape:label="Layer 1"
     inkscape:groupmode="layer"
     id="layer1"
     transform="translate(-71.269551,-29.929858)">
    <g
       id="g12030"
       transform="matrix(1.3328397,0,0,1.40371,-680.8039,89.032293)">
      <g
         transform="translate(-2.3853805,-2.245064)"
         id="g11986">
        <g
           id="g11924">
          <path
             sodipodi:nodetypes="ccccc"
             inkscape:connector-curvature="0"
             id="path11906"
             d="m 589.75486,-39.513976 0.0435,2.66894 3.35292,0.0098 -0.0468,-2.689399 z"
             style="fill:none;stroke:#000000;stroke-width:0.66500002;stroke-linecap:butt;stroke-linejoin:miter;stroke-miterlimit:4;stroke-dasharray:none;stroke-opacity:1" />
          <path
             inkscape:connector-curvature="0"
             id="path11908"
             d="m 582.81463,-39.501276 0.0233,2.61924 -3.5079,0.02339 0.0702,-2.666013 z"
             style="fill:none;stroke:#000000;stroke-width:0.66500002;stroke-linecap:butt;stroke-linejoin:miter;stroke-miterlimit:4;stroke-dasharray:none;stroke-opacity:1" />
          <path
             sodipodi:nodetypes="cccccccc"
             inkscape:connector-curvature="0"
             id="path11910"
             d="m 589.55608,-39.540285 -1.45619,0.576889 -3.73728,-0.07016 -0.89489,-0.325396 0.0226,2.387716 0.88109,-0.20797 3.91587,-0.03023 1.30968,0.381944"
             style="fill:none;stroke:#000000;stroke-width:0.66500002;stroke-linecap:butt;stroke-linejoin:miter;stroke-miterlimit:4;stroke-dasharray:none;stroke-opacity:1" />
          <path
             inkscape:connector-curvature="0"
             id="path11912"
             d="m 587.72572,-35.338555 -0.14031,-1.777341 h -2.89989 l 0.0702,1.847501"
             style="fill:none;stroke:#000000;stroke-width:0.66500002;stroke-linecap:butt;stroke-linejoin:miter;stroke-miterlimit:4;stroke-dasharray:none;stroke-opacity:1" />
        </g>
        <g
           id="g11968">
          <path
             sodipodi:nodetypes="ccccc"
             inkscape:connector-curvature="0"
             id="path11902"
             d="m 577.32763,-30.918585 c -0.80156,0.05799 -1.4142,-0.03487 -1.40316,0.982216 0.0462,1.267836 0.22378,1.395076 1.09913,1.403165 1.17291,0.053 1.5828,-0.230157 1.61364,-1.145919 -0.0207,-1.049155 -0.32115,-1.295945 -1.30961,-1.239462 z"
             style="fill:none;stroke:#000000;stroke-width:0.66500002;stroke-linecap:butt;stroke-linejoin:miter;stroke-miterlimit:4;stroke-dasharray:none;stroke-opacity:1" />
          <g
             id="g11956">
            <g
               id="g11936">
              <path
                 inkscape:connector-curvature="0"
                 id="path11914"
                 d="m 580.52265,-33.070099 16.90825,0.187087"
                 style="fill:none;stroke:#000000;stroke-width:0.66500002;stroke-linecap:butt;stroke-linejoin:miter;stroke-miterlimit:4;stroke-dasharray:none;stroke-opacity:1" />
              <path
                 sodipodi:nodetypes="cc"
                 inkscape:connector-curvature="0"
                 id="path11916"
                 d="m 591.08222,-35.224818 2e-5,2.265495"
                 style="fill:none;stroke:#000000;stroke-width:0.66500002;stroke-linecap:butt;stroke-linejoin:miter;stroke-miterlimit:4;stroke-dasharray:none;stroke-opacity:1" />
            </g>
            <g
               id="g11946">
              <path
                 sodipodi:nodetypes="ccccc"
                 inkscape:connector-curvature="0"
                 id="path11904"
                 d="m 579.72768,-27.457443 c 2.01502,0.164582 3.56067,-0.08388 4.02235,-1.286232 -0.006,-1.631399 -0.95719,-1.033493 -1.63705,-1.075764 l 8e-5,-0.818512 c -1.88698,0.34399 -1.12706,1.318194 -0.46773,2.26845"
                 style="fill:none;stroke:#000000;stroke-width:0.565;stroke-linecap:butt;stroke-linejoin:miter;stroke-miterlimit:4;stroke-dasharray:none;stroke-opacity:1" />
              <g
                 id="g11940">
                <path
                   style="fill:none;stroke:#000000;stroke-width:0.66500002;stroke-linecap:butt;stroke-linejoin:miter;stroke-miterlimit:4;stroke-dasharray:none;stroke-opacity:1"
                   d="m 567.02903,-32.695925 -0.0468,4.419967 c -0.019,1.291311 0.63617,1.295612 1.28625,1.309622 h 2.66602 c 1.34628,0.315538 -0.002,-1.718748 1.30961,-1.496708 l 1.28624,0.02339 c 0.67492,0.705839 0.78665,1.612101 2.19829,2.034589 1.31742,0.374177 4.37018,0.977215 4.02241,-0.02339 -0.61874,-2.576561 1.11686,-4.554662 2.362,-4.209494 l -6e-5,0.818512 1.28625,0.02339 0.35079,1.052375 3.39098,-0.07016 3.74176,-1.286235 6.50134,0.07016 0.0468,-2.853103 13.93809,0.02339 -0.0468,-2.361994 h -30.82284 l 0.0233,2.151518 -4.95784,0.140316 -0.5379,-0.748353 -7.17952,-0.07016 c -0.40416,0.04425 -0.78182,0.150349 -0.81837,1.052366 z"
                   id="path11900"
                   inkscape:connector-curvature="0"
                   sodipodi:nodetypes="ccccccccccccccccccccccccc" />
                <path
                   style="fill:none;stroke:#000000;stroke-width:0.76499999;stroke-linecap:butt;stroke-linejoin:miter;stroke-miterlimit:4;stroke-dasharray:none;stroke-opacity:1"
                   d="m 582.28483,-31.222995 15.09778,0.08268"
                   id="path11918"
                   inkscape:connector-curvature="0"
                   sodipodi:nodetypes="cc" />
              </g>
            </g>
          </g>
        </g>
      </g>
      <path
         transform="matrix(0.26458333,0,0,0.26458333,285.2735,-172.92749)"
         inkscape:connector-curvature="0"
         id="path11988"
         d="m 1092.4316,544.67178 c -4.8851,-1.10584 -6.5779,-2.16884 -9.0374,-5.67514 l -2.0265,-2.889 h -3.9324 c -4.2944,0 -5.5037,0.60312 -5.5037,2.74482 0,2.70227 -0.1336,2.75518 -6.9535,2.75518 -4.2695,0 -6.5429,-0.19636 -6.9465,-0.6 -0.6337,-0.6337 -0.8993,-19.53838 -0.2965,-21.1091 0.2665,-0.69451 1.9693,-0.7909 13.9717,-0.7909 h 13.6682 l 0.9033,1.56264 0.9033,1.56264 8.9848,-0.33837 c 4.9416,-0.1861 23.4478,-0.17872 41.125,0.0164 l 32.1402,0.35476 v 1.67097 1.67096 h -28 -28 v 1.18067 c 0,0.98457 -0.2043,1.14162 -1.2298,0.94558 -1.9359,-0.37007 -5.6025,1.69427 -7.1901,4.04819 -2.2824,3.3839 -2.8307,5.26821 -2.8227,9.70056 l 0.01,4.125 -3.0075,-0.0435 c -1.6541,-0.0239 -4.6949,-0.42549 -6.7574,-0.89238 z m 6.6705,-7.09095 c 2.5297,-1.98987 2.7213,-7.30696 0.3485,-9.67367 -0.882,-0.87979 -1.6357,-1.04411 -4.6606,-1.01609 -1.9846,0.0184 -4.0838,0.29103 -4.6649,0.60589 -2.6475,1.43468 -2.873,8.11031 -0.3412,10.10182 1.8445,1.45092 7.4646,1.4401 9.3182,-0.018 z"
         style="opacity:1;fill:#4f7cb2;fill-opacity:1;stroke:#000000;stroke-width:0.75590551;stroke-miterlimit:4;stroke-dasharray:none;stroke-opacity:1" />
      <path
         transform="matrix(0.26458333,0,0,0.26458333,285.2735,-172.92749)"
         inkscape:connector-curvature="0"
         id="path11990"
         d="m 1119.7402,533.10443 c -0.8811,-1.99707 -1.5724,-2.32168 -4.4336,-2.0819 -0.6315,0.0529 -0.875,-0.29512 -0.875,-1.25064 v -1.32396 l 11.625,0.3287 c 6.3937,0.18079 18.6562,0.32923 27.25,0.32986 10.4943,7.8e-4 15.625,0.17209 15.625,0.52173 0,0.34771 -3.9432,0.50211 -11.875,0.46498 l -11.875,-0.0556 -6.5,2.21968 c -5.6955,1.94496 -7.2154,2.25831 -12.2802,2.53181 l -5.7802,0.31212 z"
         style="opacity:1;fill:#4f7cb2;fill-opacity:1;stroke:#000000;stroke-width:0.75590551;stroke-miterlimit:4;stroke-dasharray:none;stroke-opacity:1" />
      <path
         transform="matrix(0.26458333,0,0,0.26458333,285.2735,-172.92749)"
         inkscape:connector-curvature="0"
         id="path11992"
         d="m 1138.4561,503.5549 c -0.6908,-0.27587 -5.1083,-0.42564 -10.1256,-0.34331 l -8.9001,0.14605 -10e-5,-2.25 v -2.25 l 8.4397,0.15717 c 6.791,0.12647 8.8054,0.004 10.3117,-0.625 1.0296,-0.43019 1.957,-0.78217 2.0609,-0.78217 0.1039,0 0.189,1.4625 0.189,3.25 0,3.42281 -0.036,3.47179 -1.9755,2.69726 z"
         style="opacity:1;fill:#4f7cb2;fill-opacity:1;stroke:#000000;stroke-width:0.75590551;stroke-miterlimit:4;stroke-dasharray:none;stroke-opacity:1" />
      <path
         transform="matrix(0.26458333,0,0,0.26458333,285.2735,-172.92749)"
         inkscape:connector-curvature="0"
         id="path11994"
         d="m 1143.4316,500.85764 v -3.75 h 4.75 4.75 v 3.75 3.75 h -4.75 -4.75 z"
         style="opacity:1;fill:#4f7cb2;fill-opacity:1;stroke:#000000;stroke-width:0.75590551;stroke-miterlimit:4;stroke-dasharray:none;stroke-opacity:1" />
      <path
         transform="matrix(0.26458333,0,0,0.26458333,285.2735,-172.92749)"
         inkscape:connector-curvature="0"
         id="path11996"
         d="m 1103.9316,500.60764 v -3.5 h 5 5 v 3.5 3.5 h -5 -5 z"
         style="opacity:1;fill:#4f7cb2;fill-opacity:1;stroke:#000000;stroke-width:0.75590551;stroke-miterlimit:4;stroke-dasharray:none;stroke-opacity:1" />
      <path
         inkscape:connector-curvature="0"
         id="path12002"
         d="m 581.22493,-35.674445 -2.67891,-0.04359 v -0.65872 -0.65872 h 4.8948 4.89479 v 0.737325 0.737325 l -1.15756,-0.06853 c -1.40379,-0.08311 -1.35035,-0.08228 -2.41432,-0.03761 -0.47294,0.01987 -2.06541,0.01648 -3.5388,-0.0075 z"
         style="opacity:1;fill:#888888;fill-opacity:1;stroke:#000000;stroke-width:0.2;stroke-miterlimit:4;stroke-dasharray:none;stroke-opacity:1" />
      <path
         transform="matrix(0.26458333,0,0,0.26458333,285.2735,-172.92749)"
         inkscape:connector-curvature="0"
         id="path12004"
         d="m 1168.4856,519.2328 -20.375,-0.13638 v -2.74439 -2.74439 h 36.6965 c 41.0767,0 37.3035,-0.38344 37.3035,3.7909 v 2.2091 l -16.625,-0.11923 c -9.1438,-0.0656 -25.7938,-0.1806 -37,-0.25561 z"
         style="opacity:1;fill:#888888;fill-opacity:1;stroke:#000000;stroke-width:0.75590551;stroke-miterlimit:4;stroke-dasharray:none;stroke-opacity:1" />
    </g>
  </g>
</svg>
