<?xml version="1.0" encoding="UTF-8" standalone="no"?>
<!-- Created with Inkscape (http://www.inkscape.org/) -->

<svg
   xmlns:dc="http://purl.org/dc/elements/1.1/"
   xmlns:cc="http://creativecommons.org/ns#"
   xmlns:rdf="http://www.w3.org/1999/02/22-rdf-syntax-ns#"
   xmlns:svg="http://www.w3.org/2000/svg"
   xmlns="http://www.w3.org/2000/svg"
   xmlns:sodipodi="http://sodipodi.sourceforge.net/DTD/sodipodi-0.dtd"
   xmlns:inkscape="http://www.inkscape.org/namespaces/inkscape"
   width="46.652081mm"
   height="17.674904mm"
   viewBox="0 0 46.652081 17.674904"
   version="1.1"
   id="svg7169"
   inkscape:version="0.92.4 (fd57863, 2020-04-02)"
   sodipodi:docname="BFG.svg">
  <defs
     id="defs7163" />
  <sodipodi:namedview
     id="base"
     pagecolor="#ffffff"
     bordercolor="#666666"
     borderopacity="1.0"
     inkscape:pageopacity="0.0"
     inkscape:pageshadow="2"
     inkscape:zoom="0.79980469"
     inkscape:cx="8.0442122"
     inkscape:cy="-54.256719"
     inkscape:document-units="mm"
     inkscape:current-layer="layer1"
     showgrid="false"
     inkscape:pagecheckerboard="true"
     inkscape:window-width="1366"
     inkscape:window-height="740"
     inkscape:window-x="0"
     inkscape:window-y="0"
     inkscape:window-maximized="1" />
  <metadata
     id="metadata7166">
    <rdf:RDF>
      <cc:Work
         rdf:about="">
        <dc:format>image/svg+xml</dc:format>
        <dc:type
           rdf:resource="http://purl.org/dc/dcmitype/StillImage" />
        <dc:title></dc:title>
      </cc:Work>
    </rdf:RDF>
  </metadata>
  <g
     inkscape:label="Layer 1"
     inkscape:groupmode="layer"
     id="layer1"
     transform="translate(-50.44457,-116.80301)">
    <g
       id="g6078"
       transform="translate(-804.96509,-138.58341)">
      <g
         transform="translate(100.54167)"
         id="g5955">
        <path
           style="fill:none;stroke:#000000;stroke-width:0.76499999;stroke-linecap:butt;stroke-linejoin:miter;stroke-miterlimit:4;stroke-dasharray:none;stroke-opacity:1"
           d="m 772.67706,259.93338 -0.0702,2.47893 6.45613,0.0294 -0.0483,-2.57848 z"
           id="path5878"
           inkscape:connector-curvature="0"
           sodipodi:nodetypes="ccccc" />
        <g
           id="g5929">
          <g
             id="g5901">
            <g
               id="g5876">
              <path
                 inkscape:connector-curvature="0"
                 id="path5798"
                 d="m 771.90271,258.57218 29.23481,-0.15894"
                 style="fill:none;stroke:#000000;stroke-width:0.76499999;stroke-linecap:butt;stroke-linejoin:miter;stroke-miterlimit:4;stroke-dasharray:none;stroke-opacity:1" />
              <g
                 id="g5857">
                <g
                   id="g5840">
                  <g
                     id="g5834">
                    <path
                       style="fill:none;stroke:#000000;stroke-width:0.76499999;stroke-linecap:butt;stroke-linejoin:miter;stroke-miterlimit:4;stroke-dasharray:none;stroke-opacity:1"
                       d="m 755.25049,263.26853 v 7.30911 c 0.10628,1.01711 0.67082,1.50547 1.5875,1.5875 l 13.95677,0.0661 4.29948,-5.32474 3.95339,0.0126 0.0154,4.55145 3.10886,0.0661 0.0661,-1.65365 2.83058,-0.0411 0.0264,1.31669 11.2284,0.0316 -0.0263,1.48301 3.06333,0.005 0.0233,-2.82969 1.52009,-0.0233 0.0233,-7.31986 -1.56686,-0.0702 1.77734,-4.02238 v -2.64263 l -29.27938,0.0935 v 3.13375 c 0.42858,1.20674 0.36435,2.24034 -1.49672,2.64261 l -13.5873,0.0233 c -0.82175,0.0641 -1.4463,0.42401 -1.5236,1.60478 z"
                       id="path5796"
                       inkscape:connector-curvature="0"
                       sodipodi:nodetypes="cccccccccccccccccccccccccc" />
                    <path
                       style="fill:none;stroke:#000000;stroke-width:0.76499999;stroke-linecap:butt;stroke-linejoin:miter;stroke-miterlimit:4;stroke-dasharray:none;stroke-opacity:1"
                       d="m 779.04763,266.9191 -0.01,-2.39036 -11.59951,0.0117 c -0.84791,0.0139 -1.03067,0.76363 -1.37978,1.82412 -0.32221,0.81511 -0.71063,1.66233 0.46773,1.98782 h 1.59025 c 1.29298,-0.0534 1.88746,-0.469 2.73616,-1.68381 l 1.63703,-2.10474 2.52569,-0.0233 0.0786,2.36606"
                       id="path5800"
                       inkscape:connector-curvature="0"
                       sodipodi:nodetypes="cccccccccc" />
                  </g>
                  <path
                     sodipodi:nodetypes="ccccccc"
                     inkscape:connector-curvature="0"
                     id="path5802"
                     d="m 757.31239,264.75091 -0.0233,1.8709 6.82873,0.0233 v -1.96443 c -0.0122,-0.39412 -0.004,-0.39462 -0.51451,-0.39756 l -5.91666,-0.0233 c -0.36989,0.0104 -0.3656,0.0567 -0.37426,0.49109 z"
                     style="fill:none;stroke:#000000;stroke-width:0.76499999;stroke-linecap:butt;stroke-linejoin:miter;stroke-miterlimit:4;stroke-dasharray:none;stroke-opacity:1" />
                </g>
                <g
                   id="g5830">
                  <path
                     sodipodi:nodetypes="cccc"
                     inkscape:connector-curvature="0"
                     id="path5804"
                     d="m 796.32337,271.19016 -0.0264,-8.80124 3.06321,0.0466 0.0236,7.41336"
                     style="fill:none;stroke:#000000;stroke-width:0.76499999;stroke-linecap:butt;stroke-linejoin:miter;stroke-miterlimit:4;stroke-dasharray:none;stroke-opacity:1" />
                  <path
                     inkscape:connector-curvature="0"
                     id="path5806"
                     d="m 779.03762,264.52874 0.0254,-2.08703 3.10885,0.0331 0.0661,7.40823"
                     style="fill:none;stroke:#000000;stroke-width:0.76499999;stroke-linecap:butt;stroke-linejoin:miter;stroke-miterlimit:4;stroke-dasharray:none;stroke-opacity:1" />
                  <path
                     inkscape:connector-curvature="0"
                     id="path5808"
                     d="m 782.17187,262.47481 2.94347,-3e-5 -0.0468,7.36711"
                     style="fill:none;stroke:#000000;stroke-width:0.76499999;stroke-linecap:butt;stroke-linejoin:miter;stroke-miterlimit:4;stroke-dasharray:none;stroke-opacity:1" />
                  <path
                     inkscape:connector-curvature="0"
                     id="path5810"
                     d="m 785.11534,262.47478 11.18163,-0.0859"
                     style="fill:none;stroke:#000000;stroke-width:0.76499999;stroke-linecap:butt;stroke-linejoin:miter;stroke-miterlimit:4;stroke-dasharray:none;stroke-opacity:1" />
                </g>
                <g
                   id="g5824">
                  <path
                     inkscape:connector-curvature="0"
                     id="path5812"
                     d="m 785.08226,264.26072 11.24479,0.0331"
                     style="fill:none;stroke:#000000;stroke-width:0.66500002;stroke-linecap:butt;stroke-linejoin:miter;stroke-miterlimit:4;stroke-dasharray:none;stroke-opacity:1" />
                  <path
                     inkscape:connector-curvature="0"
                     id="path5814"
                     d="m 785.08226,268.13025 11.14558,0.0661"
                     style="fill:none;stroke:#000000;stroke-width:0.66500002;stroke-linecap:butt;stroke-linejoin:miter;stroke-miterlimit:4;stroke-dasharray:none;stroke-opacity:1" />
                  <path
                     inkscape:connector-curvature="0"
                     id="path5816"
                     d="m 787.29815,262.50785 v 1.68672 l 2.51354,0.0496 0.0164,-1.78594 2.24896,-0.0331 0.0164,1.85208 2.28203,-0.0331 -0.0164,-1.81901"
                     style="fill:none;stroke:#000000;stroke-width:0.66500002;stroke-linecap:butt;stroke-linejoin:miter;stroke-miterlimit:4;stroke-dasharray:none;stroke-opacity:1" />
                  <path
                     inkscape:connector-curvature="0"
                     id="path5818"
                     d="m 794.34268,268.21293 0.0164,2.96003 -2.26549,0.0164 -0.0164,-2.9931 -2.29856,-0.0164 -0.0331,2.97656 -2.497,0.0164 0.0331,-3.00963"
                     style="fill:none;stroke:#000000;stroke-width:0.66500002;stroke-linecap:butt;stroke-linejoin:miter;stroke-miterlimit:4;stroke-dasharray:none;stroke-opacity:1" />
                </g>
              </g>
            </g>
            <path
               style="fill:none;stroke:#000000;stroke-width:0.76499999;stroke-linecap:butt;stroke-linejoin:miter;stroke-miterlimit:4;stroke-dasharray:none;stroke-opacity:1"
               d="m 785.11534,262.47478 0.0733,-3.89779 2.34443,-0.0761 -0.0829,3.99519 2.37791,-0.0379 0.0611,-3.99818 h 2.36199 l -0.017,3.91135 2.1249,0.0537 0.0204,-3.87149 2.36198,-0.0233 0.0468,3.81193"
               id="path5880"
               inkscape:connector-curvature="0"
               sodipodi:nodetypes="cccccccccccc" />
          </g>
          <path
             inkscape:connector-curvature="0"
             id="path5903"
             d="m 768.182,261.7141 0.0331,2.67891"
             style="fill:none;stroke:#000000;stroke-width:0.66500002;stroke-linecap:butt;stroke-linejoin:miter;stroke-miterlimit:4;stroke-dasharray:none;stroke-opacity:1" />
          <path
             inkscape:connector-curvature="0"
             id="path5905"
             d="m 768.14893,268.36176 0.0164,3.85299"
             style="fill:none;stroke:#000000;stroke-width:0.66500002;stroke-linecap:butt;stroke-linejoin:miter;stroke-miterlimit:4;stroke-dasharray:none;stroke-opacity:1" />
        </g>
      </g>
      <path
         transform="matrix(0.26458333,0,0,0.26458333,3.6023509,-144.09058)"
         inkscape:connector-curvature="0"
         id="path5959"
         d="m 3238.1624,1571.7937 c -13.2423,-0.074 -12.5164,-0.026 -13.8272,-0.9082 -0.7793,-0.5245 -1.3149,-1.2412 -1.6176,-2.1647 -0.2347,-0.7161 -0.2427,-1.2272 -0.2427,-15.5529 v -14.8125 l 0.2993,-0.75 c 0.3939,-0.9873 1.2134,-1.8068 2.2007,-2.2007 l 0.75,-0.2993 21.3244,-0.033 21.3245,-0.033 0.082,1.5217 c 0.045,0.8369 0.082,2.6098 0.082,3.9396 v 2.4179 h -1.0987 c -1.9138,0 -3.152,0.4629 -4.2251,1.5797 -1.0736,1.1174 -1.5821,2.2816 -3.7051,8.4828 -0.4907,1.4335 -0.6135,3.1943 -0.2904,4.1669 0.425,1.2795 1.4589,2.255 3.0084,2.8382 0.7725,0.2908 0.9582,0.3074 3.4388,0.3074 h 2.6221 l 3e-4,3.0937 c 10e-5,1.7016 0.037,4.3172 0.082,5.8125 l 0.082,2.7188 -9.1762,-0.029 c -5.0468,-0.016 -14.548,-0.059 -21.1136,-0.095 z m 17.7263,-23.0321 c -0.042,-5.5829 -0.034,-5.5165 -0.7457,-6.1792 -0.6661,-0.6202 -0.2291,-0.5997 -13.6097,-0.6372 l -12.5666,-0.035 -0.5584,0.2946 c -0.6748,0.356 -1.0852,1.0207 -1.1731,1.9001 -0.034,0.3442 -0.095,2.6644 -0.1346,5.1562 l -0.072,4.5303 8.5357,0.033 c 4.6946,0.018 11.1968,0.047 14.4494,0.063 l 5.9138,0.03 z"
         style="opacity:1;fill:#808080;fill-opacity:1;stroke:#000000;stroke-width:0;stroke-miterlimit:4;stroke-dasharray:none;stroke-opacity:1" />
      <path
         transform="matrix(0.26458333,0,0,0.26458333,3.6023509,-144.09058)"
         inkscape:connector-curvature="0"
         id="path5961"
         d="m 3271.1338,1539.0116 c -0.034,-2.1484 -0.056,-3.9159 -0.048,-3.9277 0.01,-0.012 1.7021,-0.061 3.7643,-0.11 3.4277,-0.081 3.8406,-0.1145 4.8119,-0.3896 1.7144,-0.4856 3.2707,-1.3217 4.2442,-2.28 0.4603,-0.4531 0.9295,-0.9646 1.0426,-1.1364 0.1967,-0.299 0.2032,-0.261 0.149,0.875 -0.031,0.6531 -0.087,2.2356 -0.125,3.5167 l -0.068,2.3293 12.183,0.048 c 6.7006,0.026 12.2007,0.075 12.2225,0.1082 0.022,0.033 0.023,1.1433 0,2.4667 l -0.037,2.4063 h -19.0403 -19.0403 z"
         style="opacity:1;fill:#808080;fill-opacity:1;stroke:#000000;stroke-width:0;stroke-miterlimit:4;stroke-dasharray:none;stroke-opacity:1" />
      <path
         transform="matrix(0.26458333,0,0,0.26458333,3.6023509,-144.09058)"
         inkscape:connector-curvature="0"
         id="path5963"
         d="m 3274.1457,1571.9517 -3.0792,-0.038 -0.087,-4.6541 c -0.048,-2.5598 -0.068,-5.1848 -0.046,-5.8334 l 0.041,-1.1793 1,-0.1667 c 2.7082,-0.4514 4.6851,-1.5585 6.7651,-3.7885 0.3521,-0.3774 1.3083,-1.5611 2.125,-2.6304 0.8167,-1.0693 2.4693,-3.2122 3.6724,-4.762 l 2.1875,-2.8177 3.6663,-0.093 c 2.0165,-0.051 3.6853,-0.074 3.7085,-0.05 0.023,0.023 0.077,1.6171 0.1194,3.542 l 0.077,3.4999 -7.6921,9.5 -7.6921,9.5 h -0.8436 c -0.464,0 -2.2293,-0.013 -3.9229,-0.033 z"
         style="opacity:1;fill:#808080;fill-opacity:1;stroke:#000000;stroke-width:0;stroke-miterlimit:4;stroke-dasharray:none;stroke-opacity:1" />
      <path
         transform="matrix(0.26458333,0,0,0.26458333,3.6023509,-144.09058)"
         inkscape:connector-curvature="0"
         id="path5971"
         d="m 3316.7491,1535.0761 c -2.3902,-0.025 -4.364,-0.066 -4.3861,-0.09 -0.022,-0.024 -0.078,-2.2012 -0.1235,-4.8376 -0.046,-2.6364 -0.1085,-4.8186 -0.1393,-4.8494 -0.05,-0.05 -3.9905,-0.013 -21.519,0.1986 -4.0736,0.049 -4.7977,0.039 -4.8269,-0.066 -0.019,-0.068 -0.1558,-0.5616 -0.3042,-1.0964 -0.1484,-0.5347 -0.2633,-0.9773 -0.2554,-0.9835 0.041,-0.032 47.2631,-0.2338 47.2923,-0.2024 0.025,0.026 -0.1336,9.0923 -0.2069,11.8588 0,0.1459 -0.3228,0.1535 -5.5946,0.1343 -3.0749,-0.011 -7.5462,-0.041 -9.9364,-0.066 z"
         style="opacity:1;fill:#808080;fill-opacity:1;stroke:#000000;stroke-width:0;stroke-miterlimit:4;stroke-dasharray:none;stroke-opacity:1" />
      <path
         transform="matrix(0.26458333,0,0,0.26458333,3.6023509,-144.09058)"
         inkscape:connector-curvature="0"
         id="path5975"
         d="m 3285.1284,1516.7556 v -3.514 l 16.1308,-0.108 c 8.872,-0.059 33.0948,-0.1567 53.8285,-0.2161 l 37.6977,-0.108 v 3.4436 3.4435 l -13.4793,0.1128 c -19.0281,0.1593 -75.0768,0.4614 -85.4715,0.4608 l -8.7062,-6e-4 z"
         style="opacity:1;fill:#808080;fill-opacity:1;stroke:#000000;stroke-width:0;stroke-miterlimit:4;stroke-dasharray:none;stroke-opacity:1" />
      <path
         transform="matrix(0.26458333,0,0,0.26458333,3.6023509,-144.09058)"
         inkscape:connector-curvature="0"
         id="path5977"
         d="m 3380.3668,1534.8137 -1.0165,-0.066 v -4.0296 c 0,-2.2162 -0.051,-4.8675 -0.1139,-5.8918 l -0.114,-1.8623 6.3454,-0.079 c 3.4899,-0.044 6.3689,-0.063 6.3977,-0.043 0.029,0.02 -1.1363,2.731 -2.5892,6.0241 l -2.6416,5.9874 -2.6257,0.013 c -1.4442,0.01 -3.0831,-0.017 -3.6422,-0.053 z"
         style="opacity:1;fill:#808080;fill-opacity:1;stroke:#000000;stroke-width:0;stroke-miterlimit:4;stroke-dasharray:none;stroke-opacity:1" />
      <path
         transform="matrix(0.26458333,0,0,0.26458333,3.6023509,-144.09058)"
         inkscape:connector-curvature="0"
         id="path5979"
         d="m 3377.5763,1555.7118 v -17.9566 l 1.4063,0.081 c 0.7734,0.045 2.6774,0.081 4.231,0.082 l 2.8247,6e-4 0.091,13.4942 c 0.05,7.4218 0.05,15.4655 5e-4,17.875 l -0.091,4.3808 h -4.2315 -4.2316 z"
         style="opacity:1;fill:#808080;fill-opacity:1;stroke:#000000;stroke-width:0;stroke-miterlimit:4;stroke-dasharray:none;stroke-opacity:1" />
      <path
         transform="matrix(0.26458333,0,0,0.26458333,3.6023509,-144.09058)"
         inkscape:connector-curvature="0"
         id="path5981"
         d="m 3314.2326,1569.1999 -1.9063,-0.038 v -15.5667 -15.5667 l 4.3023,0.039 c 2.3662,0.021 4.349,0.086 4.4062,0.1427 0.138,0.1379 0.3463,26.4042 0.2303,29.0336 l -0.09,2.0499 -2.5179,-0.028 c -1.3849,-0.015 -3.3758,-0.045 -4.4242,-0.066 z"
         style="opacity:1;fill:#808080;fill-opacity:1;stroke:#000000;stroke-width:0;stroke-miterlimit:4;stroke-dasharray:none;stroke-opacity:1" />
      <path
         transform="matrix(0.26458333,0,0,0.26458333,3.6023509,-144.09058)"
         inkscape:connector-curvature="0"
         id="path5983"
         d="m 3324.2844,1554.5853 c -0.046,-4.652 -0.083,-10.2489 -0.083,-12.4375 v -3.9794 h 4 4 l -10e-5,5.2187 c 0,2.8704 -0.037,8.4672 -0.083,12.4375 l -0.083,7.2188 h -3.834 -3.834 z"
         style="opacity:1;fill:#808080;fill-opacity:1;stroke:#000000;stroke-width:0;stroke-miterlimit:4;stroke-dasharray:none;stroke-opacity:1" />
      <path
         transform="matrix(0.26458333,0,0,0.26458333,3.6023509,-144.09058)"
         inkscape:connector-curvature="0"
         id="path5985"
         d="m 3389.1594,1554.0853 c -0.046,-4.8583 -0.083,-10.4635 -0.083,-12.4561 v -3.6229 l 1.0313,0.08 c 0.5672,0.044 1.214,0.081 1.4375,0.081 l 0.4062,8e-4 v 12.375 12.375 h -1.3544 -1.3545 z"
         style="opacity:1;fill:#808080;fill-opacity:1;stroke:#000000;stroke-width:0;stroke-miterlimit:4;stroke-dasharray:none;stroke-opacity:1" />
      <path
         transform="matrix(0.26458333,0,0,0.26458333,3.6023509,-144.09058)"
         inkscape:connector-curvature="0"
         id="path5987"
         d="m 3335.2013,1540.1247 v -1.9186 l 1.2188,-0.081 c 0.6703,-0.044 1.9078,-0.081 2.75,-0.081 l 1.5312,-6e-4 v 2 2 h -2.75 -2.75 z"
         style="opacity:1;fill:#808080;fill-opacity:1;stroke:#000000;stroke-width:0;stroke-miterlimit:4;stroke-dasharray:none;stroke-opacity:1" />
      <path
         transform="matrix(0.26458333,0,0,0.26458333,3.6023509,-144.09058)"
         inkscape:connector-curvature="0"
         id="path5989"
         d="m 3343.8576,1541.8269 -0.5313,-0.048 v -1.8053 -1.8053 h 2.7813 c 1.5297,-6e-4 3.0765,-0.037 3.4375,-0.08 l 0.6562,-0.079 v 1.9549 1.9549 l -2.9062,-0.022 c -1.5985,-0.012 -3.1453,-0.043 -3.4375,-0.07 z"
         style="opacity:1;fill:#808080;fill-opacity:1;stroke:#000000;stroke-width:0;stroke-miterlimit:4;stroke-dasharray:none;stroke-opacity:1" />
      <path
         transform="matrix(0.26458333,0,0,0.26458333,3.6023509,-144.09058)"
         inkscape:connector-curvature="0"
         id="path5991"
         d="m 3352.8263,1540.1229 v -2.0455 l 0.58,-0.079 c 0.3189,-0.044 1.6338,-0.08 2.9219,-0.08 h 2.3419 l 0.078,0.3906 c 0.043,0.2149 0.078,1.1711 0.078,2.125 v 1.7344 h -3 -3 z"
         style="opacity:1;fill:#808080;fill-opacity:1;stroke:#000000;stroke-width:0;stroke-miterlimit:4;stroke-dasharray:none;stroke-opacity:1" />
      <path
         transform="matrix(0.26458333,0,0,0.26458333,3.6023509,-144.09058)"
         inkscape:connector-curvature="0"
         id="path5993"
         d="m 3361.4513,1539.9809 v -2.0625 h 2.923 2.9229 l 0.075,0.2812 c 0.042,0.1547 0.076,1.0829 0.077,2.0625 v 1.7813 h -3 -3 z"
         style="opacity:1;fill:#808080;fill-opacity:1;stroke:#000000;stroke-width:0;stroke-miterlimit:4;stroke-dasharray:none;stroke-opacity:1" />
      <path
         transform="matrix(0.26458333,0,0,0.26458333,3.6023509,-144.09058)"
         inkscape:connector-curvature="0"
         id="path5995"
         d="m 3370.1046,1540.0121 0.034,-2.1562 2.1395,-0.034 2.1394,-0.034 0.078,0.4717 c 0.043,0.2594 0.079,1.245 0.079,2.1903 v 1.7188 h -2.2529 -2.253 z"
         style="opacity:1;fill:#808080;fill-opacity:1;stroke:#000000;stroke-width:0;stroke-miterlimit:4;stroke-dasharray:none;stroke-opacity:1" />
      <path
         transform="matrix(0.26458333,0,0,0.26458333,3.6023509,-144.09058)"
         inkscape:connector-curvature="0"
         id="path5997"
         d="m 3370.2013,1529.0434 v -5.75 h 2.9799 2.9799 l 0.082,3.4687 c 0.045,1.9079 0.082,4.4954 0.083,5.75 l 2e-4,2.2813 h -3.0625 -3.0625 z"
         style="opacity:1;fill:#ff2a2a;fill-opacity:1;stroke:#000000;stroke-width:0;stroke-miterlimit:4;stroke-dasharray:none;stroke-opacity:1" />
      <path
         transform="matrix(0.26458333,0,0,0.26458333,3.6023509,-144.09058)"
         inkscape:connector-curvature="0"
         id="path5999"
         d="m 3363.9826,1534.8249 -1.7813,-0.038 v -5.934 -5.9341 h 2.5 2.5 v 6 6 l -0.7187,-0.027 c -0.3953,-0.015 -1.5203,-0.045 -2.5,-0.066 z"
         style="opacity:1;fill:#808080;fill-opacity:1;stroke:#000000;stroke-width:0;stroke-miterlimit:4;stroke-dasharray:none;stroke-opacity:1" />
      <path
         transform="matrix(0.26458333,0,0,0.26458333,3.6023509,-144.09058)"
         inkscape:connector-curvature="0"
         id="path6001"
         d="m 3353.1489,1529.5121 c 0.035,-2.9734 0.093,-5.6453 0.1283,-5.9375 l 0.064,-0.5312 1.8985,-8e-4 c 1.0443,-4e-4 2.3627,-0.037 2.9299,-0.081 l 1.0312,-0.08 v 6.0186 6.0185 h -3.0582 -3.0582 z"
         style="opacity:1;fill:#ff2a2a;fill-opacity:1;stroke:#000000;stroke-width:0;stroke-miterlimit:4;stroke-dasharray:none;stroke-opacity:1" />
      <path
         transform="matrix(0.26458333,0,0,0.26458333,3.6023509,-144.09058)"
         inkscape:connector-curvature="0"
         id="path6003"
         d="m 3344.1231,1533.8246 c 0.041,-0.6703 0.1097,-3.3703 0.1535,-6 l 0.08,-4.7812 2.9537,-10e-5 2.9537,-2e-4 -0.077,4.6564 c -0.042,2.561 -0.084,5.2611 -0.094,6.0001 l -0.017,1.3438 h -3.0135 -3.0134 z"
         style="opacity:1;fill:#808080;fill-opacity:1;stroke:#000000;stroke-width:0;stroke-miterlimit:4;stroke-dasharray:none;stroke-opacity:1" />
      <path
         transform="matrix(0.26458333,0,0,0.26458333,3.6023509,-144.09058)"
         inkscape:connector-curvature="0"
         id="path6005"
         d="m 3335.3884,1529.2815 c 0.05,-3.2591 0.099,-5.9319 0.1085,-5.9397 0.01,-0.01 1.3313,-0.052 2.9378,-0.098 l 2.9208,-0.084 -0.079,4.3478 c -0.043,2.3912 -0.1126,5.0649 -0.1536,5.9414 l -0.074,1.5938 h -2.0927 c -1.151,0 -2.4451,0.037 -2.8758,0.082 l -0.7831,0.082 z"
         style="opacity:1;fill:#ff2a2a;fill-opacity:1;stroke:#000000;stroke-width:0;stroke-miterlimit:4;stroke-dasharray:none;stroke-opacity:1" />
      <path
         transform="matrix(0.26458333,0,0,0.26458333,3.6023509,-144.09058)"
         inkscape:connector-curvature="0"
         id="path6007"
         d="m 3335.1551,1567.6371 c -0.041,-0.1546 -0.076,-2.0953 -0.077,-4.3125 v -4.0312 h 2.75 2.75 v 4.3125 4.3125 h -2.6729 c -2.6662,0 -2.6731,-7e-4 -2.7483,-0.2813 z"
         style="opacity:1;fill:#808080;fill-opacity:1;stroke:#000000;stroke-width:0;stroke-miterlimit:4;stroke-dasharray:none;stroke-opacity:1" />
      <path
         transform="matrix(0.26458333,0,0,0.26458333,3.6023509,-144.09058)"
         inkscape:connector-curvature="0"
         id="path6009"
         d="m 3345.4826,1567.9498 -2.2813,-0.037 v -4.2472 -4.2472 h 3.4573 3.4572 l -0.082,2.27 c -0.045,1.2486 -0.082,3.1892 -0.082,4.3125 v 2.0425 l -1.0937,-0.028 c -0.6016,-0.015 -2.1203,-0.045 -3.375,-0.065 z"
         style="opacity:1;fill:#808080;fill-opacity:1;stroke:#000000;stroke-width:0;stroke-miterlimit:4;stroke-dasharray:none;stroke-opacity:1" />
      <path
         transform="matrix(0.26458333,0,0,0.26458333,3.6023509,-144.09058)"
         inkscape:connector-curvature="0"
         id="path6011"
         d="m 3352.5763,1566.251 c 0,-0.9858 0.037,-2.8983 0.082,-4.25 l 0.082,-2.4576 h 2.9612 2.9612 l 0.081,1.3319 c 0.045,0.7326 0.082,2.6451 0.082,4.25 v 2.9181 h -3.125 -3.125 z"
         style="opacity:1;fill:#808080;fill-opacity:1;stroke:#000000;stroke-width:0;stroke-miterlimit:4;stroke-dasharray:none;stroke-opacity:1" />
      <path
         transform="matrix(0.26458333,0,0,0.26458333,3.6023509,-144.09058)"
         inkscape:connector-curvature="0"
         id="path6013"
         d="m 3361.4275,1563.7621 c -0.027,-2.3546 -0.046,-4.2812 -0.044,-4.2812 0,0 1.341,0.016 2.9738,0.036 l 2.9687,0.036 v 4.2456 4.2456 h -2.9251 -2.9251 z"
         style="opacity:1;fill:#808080;fill-opacity:1;stroke:#000000;stroke-width:0;stroke-miterlimit:4;stroke-dasharray:none;stroke-opacity:1" />
      <path
         transform="matrix(0.26458333,0,0,0.26458333,3.6023509,-144.09058)"
         inkscape:connector-curvature="0"
         id="path6015"
         d="m 3369.9513,1563.7934 v -4.25 h 2.3125 2.3125 v 4.25 4.25 h -2.3125 -2.3125 z"
         style="opacity:1;fill:#808080;fill-opacity:1;stroke:#000000;stroke-width:0;stroke-miterlimit:4;stroke-dasharray:none;stroke-opacity:1" />
      <path
         transform="matrix(0.26458333,0,0,0.26458333,3.6023509,-144.09058)"
         inkscape:connector-curvature="0"
         id="path6017"
         d="m 3349.1647,1556.7873 c -7.6858,-0.048 -13.9903,-0.1091 -14.0099,-0.1347 -0.02,-0.026 -0.01,-2.7418 0.021,-6.0359 l 0.056,-5.9891 9.1929,0.083 c 5.0561,0.046 13.9086,0.083 19.6723,0.083 h 10.4793 v 6.0625 6.0625 l -5.7187,-0.022 c -3.1453,-0.012 -12.0071,-0.061 -19.6929,-0.1096 z"
         style="opacity:1;fill:#cccccc;fill-opacity:1;stroke:#000000;stroke-width:0;stroke-miterlimit:4;stroke-dasharray:none;stroke-opacity:1" />
      <path
         transform="matrix(0.26458333,0,0,0.26458333,3.6023509,-144.09058)"
         inkscape:connector-curvature="0"
         id="path6021"
         d="m 3297.8376,1534.9496 -9.8013,-0.033 0.081,-3.1434 c 0.044,-1.7289 0.1078,-3.1704 0.1407,-3.2034 0.073,-0.072 20.8168,-0.32 20.8876,-0.2492 0.027,0.027 0.088,1.5511 0.1352,3.3861 l 0.086,3.3364 -0.8637,-0.031 c -0.475,-0.017 -5.2742,-0.045 -10.6649,-0.063 z"
         style="opacity:1;fill:#ff2a2a;fill-opacity:1;stroke:#000000;stroke-width:0;stroke-miterlimit:4;stroke-dasharray:none;stroke-opacity:1" />
      <path
         transform="matrix(0.26458333,0,0,0.26458333,3.6023509,-144.09058)"
         inkscape:connector-curvature="0"
         id="path6023"
         d="m 3230.0757,1549.7617 c 0,-0.5347 0.1034,-1.8075 0.226,-2.8284 l 0.223,-1.8561 h 11.0876 11.0877 v 2.8284 2.8284 h -11.3137 -11.3137 v -0.9723 z"
         style="opacity:1;fill:#b3b3b3;fill-opacity:1;stroke:#000000;stroke-width:0;stroke-miterlimit:4;stroke-dasharray:none;stroke-opacity:1" />
    </g>
  </g>
</svg>
