<?xml version="1.0" encoding="UTF-8" standalone="no"?>
<!-- Created with Inkscape (http://www.inkscape.org/) -->

<svg
   xmlns:dc="http://purl.org/dc/elements/1.1/"
   xmlns:cc="http://creativecommons.org/ns#"
   xmlns:rdf="http://www.w3.org/1999/02/22-rdf-syntax-ns#"
   xmlns:svg="http://www.w3.org/2000/svg"
   xmlns="http://www.w3.org/2000/svg"
   xmlns:sodipodi="http://sodipodi.sourceforge.net/DTD/sodipodi-0.dtd"
   xmlns:inkscape="http://www.inkscape.org/namespaces/inkscape"
   width="63.200462mm"
   height="17.08815mm"
   viewBox="0 0 63.200462 17.08815"
   version="1.1"
   id="svg6686"
   inkscape:version="0.92.4 (fd57863, 2020-04-02)"
   sodipodi:docname="machine_gun.svg">
  <defs
     id="defs6680" />
  <sodipodi:namedview
     id="base"
     pagecolor="#ffffff"
     bordercolor="#666666"
     borderopacity="1.0"
     inkscape:pageopacity="0.0"
     inkscape:pageshadow="2"
     inkscape:zoom="0.79980469"
     inkscape:cx="278.12495"
     inkscape:cy="-104.12746"
     inkscape:document-units="mm"
     inkscape:current-layer="layer1"
     showgrid="false"
     inkscape:pagecheckerboard="true"
     inkscape:window-width="1366"
     inkscape:window-height="740"
     inkscape:window-x="0"
     inkscape:window-y="0"
     inkscape:window-maximized="1" />
  <metadata
     id="metadata6683">
    <rdf:RDF>
      <cc:Work
         rdf:about="">
        <dc:format>image/svg+xml</dc:format>
        <dc:type
           rdf:resource="http://purl.org/dc/dcmitype/StillImage" />
        <dc:title></dc:title>
      </cc:Work>
    </rdf:RDF>
  </metadata>
  <g
     inkscape:label="Layer 1"
     inkscape:groupmode="layer"
     id="layer1"
     transform="translate(21.014291,-104.19479)">
    <g
       id="g6636"
       transform="matrix(1.3181328,0,0,1.5317217,-1018.3456,-280.87356)"
       inkscape:export-xdpi="96"
       inkscape:export-ydpi="96">
      <g
         id="g6514">
        <path
           style="fill:none;stroke:#000000;stroke-width:0.66500002;stroke-linecap:butt;stroke-linejoin:miter;stroke-miterlimit:4;stroke-dasharray:none;stroke-opacity:1"
           d="m 765.66124,252.1926 0.0468,4.20949 -3.27406,-0.0468 c -0.14345,2.84927 -3.25634,2.06923 -5.47235,2.38538 l 0.0702,-5.61266 c 2.99754,-0.6495 3.97374,2.24281 8.62941,-0.93541 z"
           id="path6401"
           inkscape:connector-curvature="0"
           sodipodi:nodetypes="cccccc" />
        <path
           style="fill:none;stroke:#000000;stroke-width:0.66500002;stroke-linecap:butt;stroke-linejoin:miter;stroke-miterlimit:4;stroke-dasharray:none;stroke-opacity:1"
           d="m 765.70804,256.40209 1.75393,1.66039 -1.37978,3.67162 2.36199,0.44435 2.75955,-5.61266 -5.49569,-0.1637"
           id="path6403"
           inkscape:connector-curvature="0" />
        <path
           style="fill:none;stroke:#000000;stroke-width:0.66500002;stroke-linecap:butt;stroke-linejoin:miter;stroke-miterlimit:4;stroke-dasharray:none;stroke-opacity:1"
           d="m 765.66124,252.1926 13.35344,-0.0936 -0.0111,1.98781 -2.93293,0.0206 -0.0551,2.4116 -4.81187,0.0468"
           id="path6405"
           inkscape:connector-curvature="0"
           sodipodi:nodetypes="cccccc" />
        <path
           style="fill:none;stroke:#000000;stroke-width:0.66500002;stroke-linecap:butt;stroke-linejoin:miter;stroke-miterlimit:4;stroke-dasharray:none;stroke-opacity:1"
           d="m 779.01468,252.099 7.15616,-0.0233 -0.006,2.95251 -7.1463,0.0176 z"
           id="path6407"
           inkscape:connector-curvature="0"
           sodipodi:nodetypes="ccccc" />
        <path
           style="fill:none;stroke:#000000;stroke-width:0.66500002;stroke-linecap:butt;stroke-linejoin:miter;stroke-miterlimit:4;stroke-dasharray:none;stroke-opacity:1"
           d="m 788.89449,251.72835 -7e-5,3.06358 1.92936,-9e-5 0.0116,-3.06356 z"
           id="path6409"
           inkscape:connector-curvature="0"
           sodipodi:nodetypes="ccccc" />
        <path
           style="fill:none;stroke:#000000;stroke-width:0.66500002;stroke-linecap:butt;stroke-linejoin:miter;stroke-miterlimit:4;stroke-dasharray:none;stroke-opacity:1"
           d="m 786.19423,253.15142 h 13.751 l 0.0235,1.56685 -13.79495,0.0505"
           id="path6411"
           inkscape:connector-curvature="0"
           sodipodi:nodetypes="cccc" />
        <path
           style="fill:none;stroke:#000000;stroke-width:0.66500002;stroke-linecap:butt;stroke-linejoin:miter;stroke-miterlimit:4;stroke-dasharray:none;stroke-opacity:1"
           d="m 799.992,252.63692 4.17442,-0.006 0.0643,2.67186 -4.19781,0.0292 z"
           id="path6413"
           inkscape:connector-curvature="0"
           sodipodi:nodetypes="ccccc" />
        <path
           style="fill:none;stroke:#000000;stroke-width:0.66500002;stroke-linecap:butt;stroke-linejoin:miter;stroke-miterlimit:4;stroke-dasharray:none;stroke-opacity:1"
           d="m 772.2169,256.57126 c -0.15012,0.55937 0.0913,1.08862 0.51263,1.60404"
           id="path6415"
           inkscape:connector-curvature="0"
           sodipodi:nodetypes="cc" />
        <path
           style="fill:none;stroke:#000000;stroke-width:0.66500002;stroke-linecap:butt;stroke-linejoin:miter;stroke-miterlimit:4;stroke-dasharray:none;stroke-opacity:1"
           d="m 775.01156,256.55473 c 0.0389,3.40464 -3.30503,2.76725 -4.9444,2.54661"
           id="path6417"
           inkscape:connector-curvature="0"
           sodipodi:nodetypes="cc" />
        <path
           style="fill:none;stroke:#000000;stroke-width:0.66500002;stroke-linecap:butt;stroke-linejoin:miter;stroke-miterlimit:4;stroke-dasharray:none;stroke-opacity:1"
           d="m 779.01854,255.04581 0.0663,1.85907 11.84505,-0.0116 -0.0236,-1.75406 -11.88791,-0.0933"
           id="path6419"
           inkscape:connector-curvature="0" />
        <path
           style="fill:none;stroke:#000000;stroke-width:0.66500002;stroke-linecap:butt;stroke-linejoin:miter;stroke-miterlimit:4;stroke-dasharray:none;stroke-opacity:1"
           d="m 776.07063,254.10741 v 1.42206 l 2.92696,-0.0164 0.007,-1.42613 -2.93293,0.0206"
           id="path6421"
           inkscape:connector-curvature="0" />
        <path
           style="fill:none;stroke:#000000;stroke-width:0.66500002;stroke-linecap:butt;stroke-linejoin:miter;stroke-miterlimit:4;stroke-dasharray:none;stroke-opacity:1"
           d="m 776.06363,255.53354 v 1.42206 l 2.92696,-0.0164 0.007,-1.42613 -2.93293,0.0206"
           id="path6421-7"
           inkscape:connector-curvature="0" />
        <path
           style="fill:none;stroke:#000000;stroke-width:0.66500002;stroke-linecap:butt;stroke-linejoin:miter;stroke-miterlimit:4;stroke-dasharray:none;stroke-opacity:1"
           d="m 776.05663,256.95967 v 1.42206 l 2.92696,-0.0164 0.007,-1.42613 -2.93293,0.0206"
           id="path6421-5"
           inkscape:connector-curvature="0" />
        <path
           style="fill:none;stroke:#000000;stroke-width:0.66500002;stroke-linecap:butt;stroke-linejoin:miter;stroke-miterlimit:4;stroke-dasharray:none;stroke-opacity:1"
           d="m 776.04963,258.3858 v 1.42206 l 2.92696,-0.0164 0.007,-1.42613 -2.93293,0.0206"
           id="path6421-3"
           inkscape:connector-curvature="0" />
        <path
           style="fill:none;stroke:#000000;stroke-width:0.66500002;stroke-linecap:butt;stroke-linejoin:miter;stroke-miterlimit:4;stroke-dasharray:none;stroke-opacity:1"
           d="m 789.80738,256.96335 0.0351,1.62534"
           id="path6456"
           inkscape:connector-curvature="0" />
        <path
           style="fill:none;stroke:#000000;stroke-width:0.66500002;stroke-linecap:butt;stroke-linejoin:miter;stroke-miterlimit:4;stroke-dasharray:none;stroke-opacity:1"
           d="m 792.63707,261.5938 -2.82969,-4.63045 -2.61925,4.54859"
           id="path6460"
           inkscape:connector-curvature="0" />
      </g>
      <path
         inkscape:connector-curvature="0"
         id="path6496"
         d="m 789.26058,253.29413 v -1.19062 h 0.61185 0.61184 v 1.19062 1.19063 h -0.61184 -0.61185 z"
         style="opacity:1;fill:#818181;fill-opacity:1;stroke:#000000;stroke-width:0;stroke-miterlimit:4;stroke-dasharray:none;stroke-opacity:1" />
      <path
         transform="matrix(0.26458333,0,0,0.26458333,3.6023509,-144.09058)"
         inkscape:connector-curvature="0"
         id="path6532"
         d="m 2959.0359,1504.9204 c 0.062,-0.6563 0.1132,-1.412 0.1139,-1.6794 v -0.4861 h 3.8007 3.8007 v 1.6793 1.6794 h -3.9147 -3.9146 z"
         style="opacity:1;fill:#818181;fill-opacity:1;stroke:#000000;stroke-width:0.44120726;stroke-miterlimit:4;stroke-dasharray:none;stroke-opacity:1" />
      <path
         transform="matrix(0.26458333,0,0,0.26458333,3.6023509,-144.09058)"
         inkscape:connector-curvature="0"
         id="path6538"
         d="m 2976.6411,1504.4131 v -1.7353 h 15.9279 15.928 l 0.041,0.7031 c 0.022,0.3867 0.041,1.1426 0.041,1.6798 l 3e-4,0.9766 -15.2969,0.04 c -8.4133,0.022 -15.5992,0.047 -15.9687,0.056 l -0.6719,0.016 z"
         style="opacity:1;fill:#818181;fill-opacity:1;stroke:#000000;stroke-width:0.02757545;stroke-miterlimit:4;stroke-dasharray:none;stroke-opacity:1" />
      <path
         transform="matrix(0.26458333,0,0,0.26458333,3.6023509,-144.09058)"
         inkscape:connector-curvature="0"
         id="path6560"
         d="m 2920.8793,1518.3999 v -1.375 h 4.1875 4.1875 v 1.375 1.375 h -4.1875 -4.1875 z"
         style="opacity:1;fill:#ccb05e;fill-opacity:1;stroke:#000000;stroke-width:0.0551509;stroke-miterlimit:4;stroke-dasharray:none;stroke-opacity:1" />
      <path
         transform="matrix(0.26458333,0,0,0.26458333,3.6023509,-144.09058)"
         inkscape:connector-curvature="0"
         id="path6562"
         d="m 2920.7543,1523.9382 v -1.3748 l 1.5937,-0.081 c 0.8766,-0.045 2.7891,-0.082 4.25,-0.082 l 2.6563,-5e-4 v 1.375 1.375 l -2.8438,5e-4 c -1.564,3e-4 -3.4765,0.037 -4.25,0.082 l -1.4062,0.081 z"
         style="opacity:1;fill:#ccb05e;fill-opacity:1;stroke:#000000;stroke-width:0.0551509;stroke-miterlimit:4;stroke-dasharray:none;stroke-opacity:1" />
      <path
         transform="matrix(0.26458333,0,0,0.26458333,3.6023509,-144.09058)"
         inkscape:connector-curvature="0"
         id="path6564"
         d="m 2920.8793,1507.6499 v -1.375 h 4.25 4.25 v 1.375 1.375 h -4.25 -4.25 z"
         style="opacity:1;fill:#ccb05e;fill-opacity:1;stroke:#000000;stroke-width:0.0551509;stroke-miterlimit:4;stroke-dasharray:none;stroke-opacity:1" />
      <path
         transform="matrix(0.26458333,0,0,0.26458333,3.6023509,-144.09058)"
         inkscape:connector-curvature="0"
         id="path6566"
         d="m 2920.9325,1513.0054 v -1.375 h 4.125 4.125 v 1.375 1.375 h -4.125 -4.125 z"
         style="opacity:1;fill:#ccb05e;fill-opacity:1;stroke:#000000;stroke-width:0.11030181;stroke-miterlimit:4;stroke-dasharray:none;stroke-opacity:1" />
      <path
         transform="matrix(0.26458333,0,0,0.26458333,3.6023509,-144.09058)"
         inkscape:connector-curvature="0"
         id="path6568"
         d="m 2848.8885,1511.6821 0.1,-9.1927 h 2.2485 c 1.4137,0 3.805,0.418 6.4409,1.1258 7.2499,1.9467 11.7545,1.5681 17.9296,-1.5068 1.5273,-0.7605 2.9194,-1.2947 3.0936,-1.1871 0.1741,0.1076 0.3166,2.6921 0.3167,5.7432 l 10e-5,5.5476 -6.134,-0.1223 -6.1341,-0.1224 -0.2187,1.8467 c -0.5505,4.6484 -2.7493,6.1534 -9.7894,6.7007 -2.4295,0.1888 -5.2128,0.3471 -6.1851,0.3516 l -1.7678,0.01 0.1,-9.1926 z"
         style="opacity:1;fill:#818181;fill-opacity:1;stroke:#000000;stroke-width:0.15599032;stroke-miterlimit:4;stroke-dasharray:none;stroke-opacity:1" />
      <path
         transform="matrix(0.26458333,0,0,0.26458333,3.6023509,-144.09058)"
         inkscape:connector-curvature="0"
         id="path6570"
         d="m 2886.5458,1512.4783 -4.6692,-0.1097 -0.1038,-6.4422 c -0.057,-3.5432 -0.051,-6.5217 0.014,-6.619 0.065,-0.097 10.7642,-0.233 23.7764,-0.3018 l 23.6587,-0.125 v 2.3347 2.3348 h -5.4277 -5.4276 l -0.2271,2.9168 c -0.1249,1.6042 -0.228,3.6725 -0.2292,4.5962 v 1.6794 l -13.3466,-0.077 c -7.3407,-0.042 -15.4478,-0.1266 -18.0159,-0.187 z"
         style="opacity:1;fill:#818181;fill-opacity:1;stroke:#000000;stroke-width:0.15599032;stroke-miterlimit:4;stroke-dasharray:none;stroke-opacity:1" />
      <path
         transform="matrix(0.26458333,0,0,0.26458333,3.6023509,-144.09058)"
         inkscape:connector-curvature="0"
         id="path6572"
         d="m 2886.5856,1533.3304 -2.8617,-0.5256 2.4175,-6.4073 c 1.3296,-3.5239 2.4185,-6.5305 2.4197,-6.6812 0,-0.1507 -0.9921,-1.2274 -2.2074,-2.3926 l -2.2097,-2.1186 7.2478,0.229 c 3.9863,0.1259 7.2917,0.2654 7.3453,0.3098 0.1744,0.1446 -8.7646,18.0338 -9.0311,18.0735 -0.1423,0.021 -1.5465,-0.1979 -3.1204,-0.487 z"
         style="opacity:1;fill:#818181;fill-opacity:1;stroke:#000000;stroke-width:0.15599032;stroke-miterlimit:4;stroke-dasharray:none;stroke-opacity:1" />
      <path
         transform="matrix(0.26458333,0,0,0.26458333,3.6023509,-144.09058)"
         inkscape:connector-curvature="0"
         id="path6574"
         d="m 2932.0504,1503.0197 v -4.0658 h 5.2465 c 2.8855,0 8.3745,-0.1048 12.1976,-0.2328 l 6.9511,-0.2328 v 4.2986 4.2987 h -12.1976 -12.1976 z"
         style="opacity:1;fill:#818181;fill-opacity:1;stroke:#000000;stroke-width:0.15599032;stroke-miterlimit:4;stroke-dasharray:none;stroke-opacity:1" />
      <path
         transform="matrix(0.26458333,0,0,0.26458333,3.6023509,-144.09058)"
         inkscape:connector-curvature="0"
         id="path6576"
         d="m 2932.2943,1512.1356 c -0.1147,-1.1116 -0.1639,-2.0658 -0.1093,-2.1204 0.055,-0.055 9.513,0.01 21.0188,0.1345 l 20.9195,0.2338 v 1.8866 c 0,1.845 -0.023,1.8866 -1.0228,1.8866 -0.6471,0 -1.111,-0.2273 -1.2627,-0.6187 -0.2285,-0.5893 -0.2616,-0.5893 -0.6955,0 -0.4242,0.5759 -1.7741,0.6187 -19.5475,0.6187 h -19.0919 z"
         style="opacity:1;fill:#818181;fill-opacity:1;stroke:#000000;stroke-width:0.15599032;stroke-miterlimit:4;stroke-dasharray:none;stroke-opacity:1" />
      <path
         transform="matrix(0.26458333,0,0,0.26458333,3.6023509,-144.09058)"
         inkscape:connector-curvature="0"
         id="path6578"
         d="m 3011.5343,1504.4332 -0.1111,-3.713 6.4523,7e-4 6.4524,7e-4 v 2.6075 c 0,1.4341 0.099,3.1046 0.2209,3.7123 l 0.221,1.1049 h -6.5622 -6.5621 z"
         style="opacity:1;fill:#818181;fill-opacity:1;stroke:#000000;stroke-width:0.15599032;stroke-miterlimit:4;stroke-dasharray:none;stroke-opacity:1" />
      <ellipse
         ry="0.23977862"
         rx="0.25631508"
         cy="253.50374"
         cx="784.51178"
         id="path6580"
         style="opacity:1;fill:#000000;fill-opacity:1;stroke:#000000;stroke-width:0.11673608;stroke-miterlimit:4;stroke-dasharray:none;stroke-opacity:1" />
      <ellipse
         ry="0.23977862"
         rx="0.25631508"
         cy="253.52856"
         cx="782.58527"
         id="path6580-5"
         style="opacity:1;fill:#000000;fill-opacity:1;stroke:#000000;stroke-width:0.11673608;stroke-miterlimit:4;stroke-dasharray:none;stroke-opacity:1" />
      <ellipse
         ry="0.23977862"
         rx="0.25631508"
         cy="253.56165"
         cx="780.60089"
         id="path6580-6"
         style="opacity:1;fill:#000000;fill-opacity:1;stroke:#000000;stroke-width:0.11673608;stroke-miterlimit:4;stroke-dasharray:none;stroke-opacity:1" />
    </g>
  </g>
</svg>
