<?xml version="1.0" encoding="UTF-8" standalone="no"?>
<!-- Created with Inkscape (http://www.inkscape.org/) -->

<svg
   xmlns:dc="http://purl.org/dc/elements/1.1/"
   xmlns:cc="http://creativecommons.org/ns#"
   xmlns:rdf="http://www.w3.org/1999/02/22-rdf-syntax-ns#"
   xmlns:svg="http://www.w3.org/2000/svg"
   xmlns="http://www.w3.org/2000/svg"
   xmlns:sodipodi="http://sodipodi.sourceforge.net/DTD/sodipodi-0.dtd"
   xmlns:inkscape="http://www.inkscape.org/namespaces/inkscape"
   width="36.113407mm"
   height="19.237341mm"
   viewBox="0 0 36.113407 19.237341"
   version="1.1"
   id="svg11171"
   inkscape:version="0.92.4 (f8dce91, 2019-08-02)"
   sodipodi:docname="night_hawk.svg">
  <defs
     id="defs11165" />
  <sodipodi:namedview
     id="base"
     pagecolor="#ffffff"
     bordercolor="#666666"
     borderopacity="1.0"
     inkscape:pageopacity="0.0"
     inkscape:pageshadow="2"
     inkscape:zoom="2.8"
     inkscape:cx="82.425592"
     inkscape:cy="26.052762"
     inkscape:document-units="mm"
     inkscape:current-layer="layer1"
     showgrid="false"
     inkscape:pagecheckerboard="true"
     inkscape:window-width="1366"
     inkscape:window-height="740"
     inkscape:window-x="0"
     inkscape:window-y="0"
     inkscape:window-maximized="1" />
  <metadata
     id="metadata11168">
    <rdf:RDF>
      <cc:Work
         rdf:about="">
        <dc:format>image/svg+xml</dc:format>
        <dc:type
           rdf:resource="http://purl.org/dc/dcmitype/StillImage" />
        <dc:title></dc:title>
      </cc:Work>
    </rdf:RDF>
  </metadata>
  <g
     inkscape:label="Layer 1"
     inkscape:groupmode="layer"
     id="layer1"
     transform="translate(-49.223057,-176.25633)">
    <g
       transform="translate(-497.07018,100.17664)"
       id="g11126"
       inkscape:export-xdpi="96"
       inkscape:export-ydpi="96">
      <path
         sodipodi:nodetypes="cccc"
         inkscape:connector-curvature="0"
         id="path10213"
         d="m 555.38114,86.90773 c 2.19968,3.997475 6.13621,0.780755 6.47292,-1.65159 l -4.05392,-0.100096 c -0.47696,0.807693 0.1295,1.012416 0.71736,1.601548"
         style="fill:none;stroke:#000000;stroke-width:0.69999999;stroke-linecap:butt;stroke-linejoin:miter;stroke-miterlimit:4;stroke-dasharray:none;stroke-opacity:1" />
      <path
         sodipodi:nodetypes="cccccccccccc"
         inkscape:connector-curvature="0"
         id="path10209"
         d="m 546.6894,94.898803 6.70648,0.03336 c -0.38828,-1.773114 -0.26769,-2.327022 0.60059,-3.002913 -0.23571,-1.101052 -0.33937,-1.905209 0.80076,-2.519096 -0.99695,-1.526865 -0.30524,-1.519639 -0.25023,-2.502419 l 0.83414,-10e-7 -0.0667,-2.485736 -3.15305,-0.567217 -0.15019,-2.302226 -1.96857,0.16683 -0.15014,3.186415 c -2.16548,2.70081 -3.08146,6.545419 -3.20309,9.993003 z"
         style="fill:none;stroke:#000000;stroke-width:0.76499999;stroke-linecap:butt;stroke-linejoin:miter;stroke-miterlimit:4;stroke-dasharray:none;stroke-opacity:1" />
      <g
         id="g10360"
         transform="translate(224.88057,0.37417623)">
        <path
           transform="translate(-1.1875e-5,-1.1041667e-6)"
           style="fill:none;stroke:#000000;stroke-width:0.69999999;stroke-linecap:butt;stroke-linejoin:miter;stroke-miterlimit:4;stroke-dasharray:none;stroke-opacity:1"
           d="m 339.83323,77.405755 0.0818,4.665631"
           id="path10268"
           inkscape:connector-curvature="0" />
        <path
           transform="translate(-1.1875e-5,-1.1041667e-6)"
           style="fill:none;stroke:#000000;stroke-width:0.69999999;stroke-linecap:butt;stroke-linejoin:miter;stroke-miterlimit:4;stroke-dasharray:none;stroke-opacity:1"
           d="m 341.77428,77.639615 -3e-5,2.268449"
           id="path10270"
           inkscape:connector-curvature="0"
           sodipodi:nodetypes="cc" />
        <path
           transform="translate(-1.1875e-5,-1.1041667e-6)"
           style="fill:none;stroke:#000000;stroke-width:0.69999999;stroke-linecap:butt;stroke-linejoin:miter;stroke-miterlimit:4;stroke-dasharray:none;stroke-opacity:1"
           d="m 343.42027,77.601575 -3e-5,2.26845"
           id="path10270-1"
           inkscape:connector-curvature="0"
           sodipodi:nodetypes="cc" />
        <path
           transform="translate(-1.1875e-5,-1.1041667e-6)"
           style="fill:none;stroke:#000000;stroke-width:0.69999999;stroke-linecap:butt;stroke-linejoin:miter;stroke-miterlimit:4;stroke-dasharray:none;stroke-opacity:1"
           d="m 345.00157,77.639635 -3e-5,2.26845"
           id="path10270-8"
           inkscape:connector-curvature="0"
           sodipodi:nodetypes="cc" />
        <path
           transform="translate(-1.1875e-5,-1.1041667e-6)"
           style="fill:none;stroke:#000000;stroke-width:0.69999999;stroke-linecap:butt;stroke-linejoin:miter;stroke-miterlimit:4;stroke-dasharray:none;stroke-opacity:1"
           d="m 346.6386,77.616248 -3e-5,2.26845"
           id="path10270-7"
           inkscape:connector-curvature="0"
           sodipodi:nodetypes="cc" />
        <path
           transform="translate(-1.1875e-5,-1.1041667e-6)"
           style="fill:none;stroke:#000000;stroke-width:0.69999999;stroke-linecap:butt;stroke-linejoin:miter;stroke-miterlimit:4;stroke-dasharray:none;stroke-opacity:1"
           d="m 348.36917,77.569476 -3e-5,2.26845"
           id="path10270-9"
           inkscape:connector-curvature="0"
           sodipodi:nodetypes="cc" />
        <path
           transform="translate(-1.1875e-5,-1.1041667e-6)"
           style="fill:none;stroke:#000000;stroke-width:0.69999999;stroke-linecap:butt;stroke-linejoin:miter;stroke-miterlimit:4;stroke-dasharray:none;stroke-opacity:1"
           d="m 350.01789,77.522704 -3e-5,2.26845"
           id="path10270-2"
           inkscape:connector-curvature="0"
           sodipodi:nodetypes="cc" />
        <path
           transform="translate(-1.1875e-5,-1.1041667e-6)"
           style="fill:none;stroke:#000000;stroke-width:0.71426857;stroke-linecap:butt;stroke-linejoin:miter;stroke-miterlimit:4;stroke-dasharray:none;stroke-opacity:1"
           d="m 351.58476,77.440827 -3e-5,2.362047"
           id="path10270-0"
           inkscape:connector-curvature="0"
           sodipodi:nodetypes="cc" />
        <path
           transform="translate(-1.1875e-5,-1.1041667e-6)"
           style="fill:none;stroke:#000000;stroke-width:0.69999999;stroke-linecap:butt;stroke-linejoin:miter;stroke-miterlimit:4;stroke-dasharray:none;stroke-opacity:1"
           d="m 353.17501,77.499318 -3e-5,2.26845"
           id="path10270-23"
           inkscape:connector-curvature="0"
           sodipodi:nodetypes="cc" />
        <path
           transform="translate(-1.1875e-5,-1.1041667e-6)"
           style="fill:none;stroke:#000000;stroke-width:0.68543291;stroke-linecap:butt;stroke-linejoin:miter;stroke-miterlimit:4;stroke-dasharray:none;stroke-opacity:1"
           d="m 354.77397,77.584175 -3e-5,2.174854"
           id="path10270-75"
           inkscape:connector-curvature="0"
           sodipodi:nodetypes="cc" />
        <g
           transform="translate(-1.1875e-5,-1.1041667e-6)"
           id="g10220">
          <path
             sodipodi:nodetypes="cccccccc"
             inkscape:connector-curvature="0"
             id="path10215"
             d="m 356.55987,77.919007 -0.0236,-1.852054 -2.53625,0.08258 -0.88962,1.050728 -23.39799,-0.101875 -0.0368,-1.090413 c -0.24963,2.0455 -0.47278,2.395807 -1.10888,3.255841 -0.37028,-1.087897 -1.15766,-1.341597 -2.12337,-1.238634"
             style="fill:none;stroke:#000000;stroke-width:0.69999999;stroke-linecap:butt;stroke-linejoin:miter;stroke-miterlimit:4;stroke-dasharray:none;stroke-opacity:1"
             transform="translate(-1.1875e-5,-1.1041667e-6)" />
          <path
             sodipodi:nodetypes="cccccccccccccc"
             inkscape:connector-curvature="0"
             id="path10211"
             d="m 325.16206,81.345205 c 0.46567,-0.695414 0.55044,-1.595923 2.56712,-1.456179 0.73964,-0.206033 1.40708,-0.845297 1.95822,-2.182358 l 27.35613,0.200541 0.0944,1.946426 -1.48636,2.229543 -15.73656,-0.01179 -0.0354,1.144265 -0.81396,1.722292 c -2.9171,0.113893 -6.70042,-0.720174 -8.60558,0.405666 l -0.0262,-1.295785 -3.15305,-0.567216 -0.15018,-2.302227 z"
             style="fill:none;stroke:#000000;stroke-width:0.76499999;stroke-linecap:butt;stroke-linejoin:miter;stroke-miterlimit:4;stroke-dasharray:none;stroke-opacity:1" />
        </g>
        <g
           id="g10266">
          <path
             sodipodi:nodetypes="ccccc"
             inkscape:connector-curvature="0"
             id="path10254"
             d="m 338.33653,78.972623 0.0468,4.045791 -5.7062,0.02339 c -2.2348,-0.02774 -1.85847,-4.219318 0.11696,-4.045794 z"
             style="fill:none;stroke:#000000;stroke-width:0.69999999;stroke-linecap:butt;stroke-linejoin:miter;stroke-miterlimit:4;stroke-dasharray:none;stroke-opacity:1" />
          <path
             sodipodi:nodetypes="cc"
             inkscape:connector-curvature="0"
             id="path10256"
             d="m 338.31314,80.165311 h -3.71839"
             style="fill:none;stroke:#000000;stroke-width:0.69999999;stroke-linecap:butt;stroke-linejoin:miter;stroke-miterlimit:4;stroke-dasharray:none;stroke-opacity:1" />
          <path
             sodipodi:nodetypes="cc"
             inkscape:connector-curvature="0"
             id="path10258"
             d="m 338.31314,81.662022 -3.74178,0.04677"
             style="fill:none;stroke:#000000;stroke-width:0.69999999;stroke-linecap:butt;stroke-linejoin:miter;stroke-miterlimit:4;stroke-dasharray:none;stroke-opacity:1" />
          <path
             inkscape:connector-curvature="0"
             id="path10260"
             d="m 332.79409,78.996007 -0.0702,4.06918"
             style="fill:none;stroke:#000000;stroke-width:0.69999999;stroke-linecap:butt;stroke-linejoin:miter;stroke-miterlimit:4;stroke-dasharray:none;stroke-opacity:1" />
        </g>
      </g>
      <path
         transform="matrix(0.26458333,0,0,0.26458333,285.2735,-172.92749)"
         inkscape:connector-curvature="0"
         id="path10389"
         d="m 1107.6125,947.58762 c 0,-0.10312 0.6492,-0.89864 1.4375,-1.76782 l 1.4334,-1.58033 3.6875,-0.14538 3.6875,-0.14539 v 1.91321 1.91321 h -5.125 c -2.8187,0 -5.1231,-0.0844 -5.1209,-0.1875 z"
         style="opacity:1;fill:#3b5aa4;fill-opacity:0.59215686;stroke:#000000;stroke-width:0.66141731;stroke-miterlimit:4;stroke-dasharray:none;stroke-opacity:1" />
      <g
         id="g10405">
        <path
           style="opacity:1;fill:#556fb1;fill-opacity:1;stroke:#000000;stroke-width:0.66141731;stroke-miterlimit:4;stroke-dasharray:none;stroke-opacity:1"
           d="m 1022.2678,974.46963 c -0.084,-0.31323 -0.1541,-1.14788 -0.156,-1.85478 v -1.28527 l -2.0625,-0.37665 c -1.1343,-0.20717 -3.8202,-0.68857 -5.9686,-1.0698 l -3.9061,-0.69314 -0.1629,-2.89493 c -0.3093,-5.49801 -0.4218,-6.29524 -0.8703,-6.1674 -0.2225,0.0634 -1.5014,0.19219 -2.8421,0.28612 -2.6195,0.18356 -2.9703,0.0165 -1.75,-0.83339 1.0988,-0.76518 2.2576,-1.05527 4.2155,-1.05527 1.2109,0 2.2747,-0.16723 3.1502,-0.49523 2.2951,-0.85986 4.763,-3.44024 6.4353,-6.72872 l 0.5589,-1.09896 17.9138,0.18343 c 9.8526,0.10088 17.9414,0.21048 17.9751,0.24355 0.034,0.0331 0.068,4.14759 0.077,9.14337 l 0.016,9.08322 -1.3191,2.83467 -1.3191,2.83467 h -1.7327 c -0.9531,0 -4.7816,-0.18087 -8.5078,-0.40194 -9.4583,-0.56113 -15.7381,-0.30599 -19.1541,0.77823 -0.304,0.0965 -0.4797,-0.0329 -0.5866,-0.43178 z m 29.8399,-9.00701 c -5e-4,-2.64687 -0.075,-6.75897 -0.1649,-9.138 l -0.1641,-4.3255 -12.1476,0.0755 c -11.9272,0.0741 -12.1661,0.0854 -13.1647,0.6199 -4.9544,2.65193 -6.1524,11.56 -2.0996,15.61275 1.9439,1.94394 1.8355,1.93046 15.6791,1.95044 l 12.0625,0.0174 -7e-4,-4.8125 z"
           id="path10383"
           inkscape:connector-curvature="0"
           transform="matrix(0.26458333,0,0,0.26458333,285.2735,-172.92749)" />
        <path
           style="opacity:1;fill:#556fb1;fill-opacity:1;stroke:#000000;stroke-width:0.66141731;stroke-miterlimit:4;stroke-dasharray:none;stroke-opacity:1"
           d="m 1072.4209,963.58766 -14.5625,-0.0666 -8e-4,-2.56048 c -5e-4,-1.40827 -0.074,-4.33236 -0.1641,-6.49799 l -0.1634,-3.9375 h 2.2892 2.2891 v 3.25 3.25 h 1.375 1.375 v -3.25 -3.25 h 1.75 1.75 v 3.25 3.25 h 1.375 1.375 v -3.25 c 0,-3.65394 -0.171,-3.40094 2.0901,-3.09102 l 1.1599,0.15899 v 3.09101 3.09102 h 1.375 1.375 v -3.125 -3.125 h 1.625 1.625 v 3.125 3.125 h 1.5 1.5 v -3.125 -3.125 h 1.75 1.75 v 3 3 h 1.5 1.5 v -3 -3 h 1.6171 1.6171 l 0.07,2.9375 0.07,2.9375 1.4375,0.075 1.4375,0.075 v -3.01248 -3.01248 h 1.5 1.5 v 3 3 h 1.5 1.5 v -3 -3 h 1.5 1.5 v 2.875 2.875 h 1.5 1.5 v -2.75 -2.75 h 1.5 1.5 v 2.75 2.75 h 1.5 1.5 v -2.75 -2.75 h 2.7233 c 2.2526,0 2.7495,0.0683 2.875,0.39545 0.083,0.2175 0.1517,1.45564 0.1517,2.75142 v 2.35597 l -2.4142,3.62358 -2.4142,3.62358 -14.0233,-0.0604 c -7.7128,-0.0333 -20.5764,-0.0904 -28.5858,-0.12702 z"
           id="path10385"
           inkscape:connector-curvature="0"
           transform="matrix(0.26458333,0,0,0.26458333,285.2735,-172.92749)" />
        <path
           style="opacity:1;fill:#556fb1;fill-opacity:1;stroke:#000000;stroke-width:0.66141731;stroke-miterlimit:4;stroke-dasharray:none;stroke-opacity:1"
           d="m 1030.8584,961.31181 v -6.28669 h 9.125 9.125 v 0.75 0.75 h -6.375 -6.375 v 1.5 1.5 h 6.375 6.375 v 1.375 1.375 h -6.5 -6.5 v 1.54013 1.54012 l 6.5,-0.16254 6.5,-0.16253 v 1.12241 1.12241 h -7.2123 c -3.9667,0 -8.073,0.0728 -9.125,0.16169 l -1.9127,0.16168 z"
           id="path10387"
           inkscape:connector-curvature="0"
           transform="matrix(0.26458333,0,0,0.26458333,285.2735,-172.92749)" />
        <path
           style="opacity:1;fill:#556fb1;fill-opacity:1;stroke:#000000;stroke-width:0.66141731;stroke-miterlimit:4;stroke-dasharray:none;stroke-opacity:1"
           d="m 1027.1084,966.85113 c -1.6458,-1.14717 -2.3424,-2.96648 -2.2132,-5.7804 0.07,-1.5222 0.2438,-2.22944 0.8382,-3.40944 0.7096,-1.40856 1.9339,-2.66064 2.2715,-2.32303 0.085,0.0851 0.059,2.80827 -0.058,6.05158 l -0.2131,5.89692 z"
           id="path10391"
           inkscape:connector-curvature="0"
           transform="matrix(0.26458333,0,0,0.26458333,285.2735,-172.92749)" />
      </g>
      <path
         transform="matrix(0.26458333,0,0,0.26458333,285.2735,-172.92749)"
         inkscape:connector-curvature="0"
         id="path10393"
         d="m 989.60843,1010.643 c 0,-0.073 0.17207,-1.7706 0.38238,-3.7733 1.35252,-12.87935 4.81057,-22.47974 11.27029,-31.28903 0.3395,-0.46299 0.4652,-1.6133 0.6723,-6.15318 l 0.2548,-5.58373 2.1354,-0.1507 c 1.1745,-0.0829 2.1952,-0.0908 2.2684,-0.0177 0.073,0.0731 0.2374,1.92043 0.365,4.1051 0.142,2.4297 0.3378,4.01178 0.5043,4.07425 0.1496,0.0562 2.7166,0.53126 5.7043,1.05575 2.9878,0.5245 5.5374,1.0186 5.6658,1.098 0.1285,0.0794 0.2715,1.57366 0.3178,3.32057 l 0.084,3.1762 -1.5,0.0725 -1.5,0.0725 -0.077,1 c -0.042,0.55 -0.2954,1.71498 -0.5625,2.58884 -0.6478,2.11885 -0.6125,3.25915 0.1608,5.19213 l 0.6466,1.61625 -0.9826,1.06605 c -1.5288,1.6585 -1.9091,2.94282 -1.7463,5.89684 0.1288,2.33876 0.1052,2.50336 -0.4312,3.00736 -0.3122,0.2932 -0.8917,1.118 -1.2878,1.8328 -0.6933,1.251 -0.72,1.424 -0.7142,4.6122 l 0.01,3.3125 h -10.8186 c -5.9502,0 -10.81857,-0.059 -10.81857,-0.1321 z"
         style="opacity:1;fill:#3d4444;fill-opacity:1;stroke:#000000;stroke-width:0.66141731;stroke-miterlimit:4;stroke-dasharray:none;stroke-opacity:1" />
    </g>
  </g>
</svg>
