<?xml version="1.0" encoding="UTF-8" standalone="no"?>
<!-- Created with Inkscape (http://www.inkscape.org/) -->

<svg
   xmlns:dc="http://purl.org/dc/elements/1.1/"
   xmlns:cc="http://creativecommons.org/ns#"
   xmlns:rdf="http://www.w3.org/1999/02/22-rdf-syntax-ns#"
   xmlns:svg="http://www.w3.org/2000/svg"
   xmlns="http://www.w3.org/2000/svg"
   xmlns:sodipodi="http://sodipodi.sourceforge.net/DTD/sodipodi-0.dtd"
   xmlns:inkscape="http://www.inkscape.org/namespaces/inkscape"
   width="35.718597mm"
   height="22.476931mm"
   viewBox="0 0 35.718597 22.47693"
   version="1.1"
   id="svg848"
   inkscape:version="0.92.4 (f8dce91, 2019-08-02)"
   sodipodi:docname="pistol.svg"
   inkscape:export-filename="/home/not-yeshwanth-reddy/Documents/Unity Projects/karepaaak_files/pistol.png"
   inkscape:export-xdpi="96"
   inkscape:export-ydpi="96">
  <defs
     id="defs842" />
  <sodipodi:namedview
     id="base"
     pagecolor="#ffffff"
     bordercolor="#666666"
     borderopacity="1.0"
     inkscape:pageopacity="0"
     inkscape:pageshadow="2"
     inkscape:zoom="2.8"
     inkscape:cx="72.845528"
     inkscape:cy="72.043308"
     inkscape:document-units="mm"
     inkscape:current-layer="layer1"
     showgrid="false"
     inkscape:pagecheckerboard="true"
     inkscape:window-width="1366"
     inkscape:window-height="740"
     inkscape:window-x="0"
     inkscape:window-y="0"
     inkscape:window-maximized="1" />
  <metadata
     id="metadata845">
    <rdf:RDF>
      <cc:Work
         rdf:about="">
        <dc:format>image/svg+xml</dc:format>
        <dc:type
           rdf:resource="http://purl.org/dc/dcmitype/StillImage" />
        <dc:title />
      </cc:Work>
    </rdf:RDF>
  </metadata>
  <g
     inkscape:label="Layer 1"
     inkscape:groupmode="layer"
     id="layer1"
     transform="translate(-131.51158,-123.55912)">
    <path
       style="fill:none;stroke:#000000;stroke-width:1.16523492;stroke-linecap:butt;stroke-linejoin:miter;stroke-miterlimit:4;stroke-dasharray:none;stroke-opacity:1"
       d="m 140.98644,124.67951 10.64523,-0.14205 -0.31039,10.48398 -9.61726,0.12281 c -0.53596,0.35551 -1.19987,0.68834 -1.82318,1.27446 -0.73694,0.65722 -2.679,1.90154 -1.38545,7.9043 l -6.14514,1.04084 c -0.78103,-4.74972 0.0878,-11.34067 4.65785,-13.95183 l 2.41608,-2.29964 z"
       id="path4571"
       inkscape:connector-curvature="0"
       sodipodi:nodetypes="cccccccccc"
       inkscape:export-xdpi="96"
       inkscape:export-ydpi="96"
       inkscape:export-filename="/home/not-yeshwanth-reddy/Desktop/gun.png" />
    <path
       style="fill:none;stroke:#000000;stroke-width:1.16523492;stroke-linecap:butt;stroke-linejoin:miter;stroke-miterlimit:4;stroke-dasharray:none;stroke-opacity:1"
       d="m 137.0081,131.41202 2.626,5.11944"
       id="path4573"
       inkscape:connector-curvature="0"
       inkscape:export-xdpi="96"
       inkscape:export-ydpi="96"
       inkscape:export-filename="/home/not-yeshwanth-reddy/Desktop/gun.png" />
    <path
       style="fill:none;stroke:#000000;stroke-width:1.16523492;stroke-linecap:butt;stroke-linejoin:miter;stroke-miterlimit:4;stroke-dasharray:none;stroke-opacity:1"
       d="m 139.6341,136.53146 c 0.9314,1.74216 1.45633,2.04173 3.15818,2.15272 2.74539,-0.0649 3.41667,-1.69783 3.57735,-3.62415"
       id="path4577"
       inkscape:connector-curvature="0"
       sodipodi:nodetypes="ccc"
       inkscape:export-xdpi="96"
       inkscape:export-ydpi="96"
       inkscape:export-filename="/home/not-yeshwanth-reddy/Desktop/gun.png" />
    <path
       style="fill:none;stroke:#000000;stroke-width:1.16523492;stroke-linecap:butt;stroke-linejoin:miter;stroke-miterlimit:4;stroke-dasharray:none;stroke-opacity:1"
       d="m 142.65003,135.15359 1.06777,1.51875"
       id="path4581"
       inkscape:connector-curvature="0"
       sodipodi:nodetypes="cc"
       inkscape:export-xdpi="96"
       inkscape:export-ydpi="96"
       inkscape:export-filename="/home/not-yeshwanth-reddy/Desktop/gun.png" />
    <path
       style="fill:none;stroke:#000000;stroke-width:1.16523492;stroke-linecap:butt;stroke-linejoin:miter;stroke-miterlimit:4;stroke-dasharray:none;stroke-opacity:1"
       d="m 140.41229,126.14405 -2.26716,-0.77992"
       id="path4583"
       inkscape:connector-curvature="0"
       sodipodi:nodetypes="cc"
       inkscape:export-xdpi="96"
       inkscape:export-ydpi="96"
       inkscape:export-filename="/home/not-yeshwanth-reddy/Desktop/gun.png" />
    <path
       style="fill:none;stroke:#000000;stroke-width:1.16523492;stroke-linecap:butt;stroke-linejoin:miter;stroke-miterlimit:4;stroke-dasharray:none;stroke-opacity:1"
       d="m 151.61007,125.12445 15.02177,-0.0729 -0.0914,3.44889 -14.99803,0.27115 -0.0976,2.53524 11.03454,-0.25409 -0.0228,-2.50913"
       id="path4585"
       inkscape:connector-curvature="0"
       inkscape:export-xdpi="96"
       inkscape:export-ydpi="96"
       inkscape:export-filename="/home/not-yeshwanth-reddy/Desktop/gun.png" />
    <path
       style="fill:none;stroke:#000000;stroke-width:1.16523492;stroke-linecap:butt;stroke-linejoin:miter;stroke-miterlimit:4;stroke-dasharray:none;stroke-opacity:1"
       d="m 166.29597,124.14173 -2.89952,0.0149"
       id="path4587"
       inkscape:connector-curvature="0"
       sodipodi:nodetypes="cc"
       inkscape:export-xdpi="96"
       inkscape:export-ydpi="96"
       inkscape:export-filename="/home/not-yeshwanth-reddy/Desktop/gun.png" />
    <path
       style="fill:none;stroke:#000000;stroke-width:1.16523492;stroke-linecap:butt;stroke-linejoin:miter;stroke-miterlimit:4;stroke-dasharray:none;stroke-opacity:1"
       d="m 142.61403,127.13696 -0.1686,5.54528 6.50146,-0.15991 0.18605,-5.53982 z"
       id="path4589"
       inkscape:connector-curvature="0"
       inkscape:export-xdpi="96"
       inkscape:export-ydpi="96"
       inkscape:export-filename="/home/not-yeshwanth-reddy/Desktop/gun.png" />
    <path
       style="fill:none;stroke:#000000;stroke-width:1.16523492;stroke-linecap:butt;stroke-linejoin:miter;stroke-miterlimit:4;stroke-dasharray:none;stroke-opacity:1"
       d="m 149.00341,129.78347 -4.05371,0.0391"
       id="path4591"
       inkscape:connector-curvature="0"
       sodipodi:nodetypes="cc"
       inkscape:export-xdpi="96"
       inkscape:export-ydpi="96"
       inkscape:export-filename="/home/not-yeshwanth-reddy/Desktop/gun.png" />
    <path
       style="opacity:1;fill:#706c66;fill-opacity:1;stroke-width:0.10299321;stroke-miterlimit:4;stroke-dasharray:none"
       d="m 138.91544,133.85859 c -0.50629,-0.98939 -0.97815,-1.91549 -1.0486,-2.058 l -0.12803,-0.25911 1.07306,-1.02316 c 0.85461,-0.81482 1.08208,-1.0457 1.11735,-1.13405 0.0243,-0.0608 0.35642,-0.99881 0.73797,-2.08399 0.38155,-1.08516 0.70349,-1.97877 0.71541,-1.98577 0.0429,-0.0251 9.64472,-0.13915 9.65546,-0.11471 0.0116,0.0259 -0.25585,9.12487 -0.2694,9.1735 -0.005,0.0152 -2.07267,0.0526 -4.59645,0.0831 l -4.58872,0.0556 -0.53686,0.32791 c -0.4497,0.27468 -0.79724,0.50803 -1.14946,0.77184 l -0.061,0.046 z m 6.79508,-0.62742 c 2.0687,-0.0507 3.7656,-0.0945 3.77088,-0.0976 0.0149,-0.007 0.23983,-6.72975 0.22604,-6.76288 -0.0102,-0.0249 -7.51624,0.12972 -7.60939,0.15679 -0.0276,0.007 -0.0817,1.54072 -0.21952,6.25584 -0.013,0.44812 -0.009,0.54265 0.0275,0.54146 0.0235,9e-5 1.73588,-0.0428 3.80455,-0.0934 z"
       id="path4609"
       inkscape:connector-curvature="0"
       inkscape:export-xdpi="96"
       inkscape:export-ydpi="96"
       inkscape:export-filename="/home/not-yeshwanth-reddy/Desktop/gun.png" />
    <path
       style="opacity:1;fill:#706c66;fill-opacity:1;stroke-width:0.10299321;stroke-miterlimit:4;stroke-dasharray:none"
       d="m 143.04072,131.67564 c 0.0499,-1.88846 0.12079,-3.90233 0.13759,-3.91264 0.0337,-0.0208 5.34634,-0.1385 5.3561,-0.11873 0.0192,0.039 -0.0368,1.49383 -0.0579,1.50564 -0.013,0.004 -0.80706,0.0197 -1.76574,0.0281 -0.95862,0.007 -1.74936,0.0194 -1.75716,0.0245 -0.0172,0.0102 -0.0249,1.18432 -0.009,1.22248 0.007,0.0147 0.79518,0.0193 1.75234,0.009 1.07898,-0.0102 1.74332,-0.004 1.74837,0.0161 0.0154,0.0623 -0.0452,1.43399 -0.0639,1.44563 -0.0102,0.005 -1.19912,0.0409 -2.64193,0.0762 -1.44282,0.0354 -2.64279,0.0652 -2.66658,0.0663 -0.0355,0.003 -0.0416,-0.0664 -0.0336,-0.36317 z"
       id="path4611"
       inkscape:connector-curvature="0"
       inkscape:export-xdpi="96"
       inkscape:export-ydpi="96"
       inkscape:export-filename="/home/not-yeshwanth-reddy/Desktop/gun.png" />
    <path
       style="opacity:1;fill:#706c66;fill-opacity:1;stroke-width:0.10299321;stroke-miterlimit:4;stroke-dasharray:none"
       d="m 152.09865,127.8354 c 0.0384,-1.43314 0.0617,-2.08556 0.0755,-2.08634 0.0827,-0.004 13.78783,-0.0624 13.82528,-0.0582 0.0451,0.004 0.0472,0.11565 0.0227,1.09177 -0.0234,0.93512 -0.0332,1.08727 -0.071,1.09454 -0.0246,0.005 -3.12032,0.0632 -6.88034,0.13014 -3.75995,0.0668 -6.86869,0.12355 -6.90829,0.12585 l -0.072,0.004 z"
       id="path4613"
       inkscape:connector-curvature="0"
       inkscape:export-xdpi="96"
       inkscape:export-ydpi="96"
       inkscape:export-filename="/home/not-yeshwanth-reddy/Desktop/gun.png" />
    <path
       style="opacity:1;fill:#706c66;fill-opacity:1;stroke-width:0.10299321;stroke-miterlimit:4;stroke-dasharray:none"
       d="m 152.03956,130.55805 c 0.0146,-0.57255 0.0451,-1.16026 0.0601,-1.16438 0.0102,-0.004 0.68449,-0.0167 1.49861,-0.0309 0.8141,-0.0142 3.01156,-0.0537 4.88326,-0.0874 1.87165,-0.0339 3.40635,-0.055 3.41041,-0.0468 0.0116,0.0242 0.0187,1.19604 0.007,1.20322 -0.005,0.004 -2.22714,0.0574 -4.93628,0.11958 l -4.92564,0.11313 z"
       id="path4615"
       inkscape:connector-curvature="0"
       inkscape:export-xdpi="96"
       inkscape:export-ydpi="96"
       inkscape:export-filename="/home/not-yeshwanth-reddy/Desktop/gun.png" />
    <path
       style="opacity:1;fill:#460200;fill-opacity:1;stroke-width:0.41197282;stroke-miterlimit:4;stroke-dasharray:none"
       d="m 132.79498,144.12895 c -0.0955,-0.92869 -0.11196,-2.26643 -0.0416,-3.38997 0.10153,-1.62032 0.78849,-4.22389 1.42335,-5.39612 0.52291,-0.96553 1.52266,-2.20712 2.16222,-2.68531 l 0.45306,-0.33877 1.04724,2.06526 1.04729,2.06522 -0.27645,0.35056 c -1.03174,1.30849 -1.36785,3.39863 -0.97862,6.08594 0.0699,0.48379 0.1163,0.88391 0.10296,0.88912 -0.0274,0.0102 -4.54593,0.78065 -4.75692,0.81064 -0.0769,0.0102 -0.15432,-0.18226 -0.18255,-0.45659 z"
       id="path4617"
       inkscape:connector-curvature="0"
       inkscape:export-xdpi="96"
       inkscape:export-ydpi="96"
       inkscape:export-filename="/home/not-yeshwanth-reddy/Desktop/gun.png" />
  </g>
</svg>
