<?xml version="1.0" encoding="UTF-8" standalone="no"?>
<!-- Created with Inkscape (http://www.inkscape.org/) -->

<svg
   xmlns:dc="http://purl.org/dc/elements/1.1/"
   xmlns:cc="http://creativecommons.org/ns#"
   xmlns:rdf="http://www.w3.org/1999/02/22-rdf-syntax-ns#"
   xmlns:svg="http://www.w3.org/2000/svg"
   xmlns="http://www.w3.org/2000/svg"
   xmlns:sodipodi="http://sodipodi.sourceforge.net/DTD/sodipodi-0.dtd"
   xmlns:inkscape="http://www.inkscape.org/namespaces/inkscape"
   width="47.466103mm"
   height="14.950752mm"
   viewBox="0 0 47.466103 14.950752"
   version="1.1"
   id="svg7044"
   inkscape:version="0.92.4 (fd57863, 2020-04-02)"
   sodipodi:docname="shotgun.svg">
  <defs
     id="defs7038" />
  <sodipodi:namedview
     id="base"
     pagecolor="#ffffff"
     bordercolor="#666666"
     borderopacity="1.0"
     inkscape:pageopacity="0.0"
     inkscape:pageshadow="2"
     inkscape:zoom="0.79980469"
     inkscape:cx="-22.925438"
     inkscape:cy="153.14716"
     inkscape:document-units="mm"
     inkscape:current-layer="layer1"
     showgrid="false"
     inkscape:pagecheckerboard="true"
     inkscape:window-width="1366"
     inkscape:window-height="740"
     inkscape:window-x="0"
     inkscape:window-y="0"
     inkscape:window-maximized="1" />
  <metadata
     id="metadata7041">
    <rdf:RDF>
      <cc:Work
         rdf:about="">
        <dc:format>image/svg+xml</dc:format>
        <dc:type
           rdf:resource="http://purl.org/dc/dcmitype/StillImage" />
        <dc:title></dc:title>
      </cc:Work>
    </rdf:RDF>
  </metadata>
  <g
     inkscape:label="Layer 1"
     inkscape:groupmode="layer"
     id="layer1"
     transform="translate(-58.638623,-174.40277)">
    <g
       id="g6399"
       transform="matrix(1.1752748,0,0,1.0641944,-622.90156,-91.775625)">
      <g
         transform="translate(-92.075005)"
         id="g6364">
        <path
           style="fill:none;stroke:#000000;stroke-width:0.66500002;stroke-linecap:butt;stroke-linejoin:miter;stroke-miterlimit:4;stroke-dasharray:none;stroke-opacity:1"
           d="m 679.31981,254.90537 -4.49011,1.26285 c -3.02732,1.11721 -2.52504,2.9132 -2.43215,4.63045 0.6149,3.29903 1.86655,2.26822 3.08694,1.44992 l 4.91109,-3.46112 z"
           id="path6320"
           inkscape:connector-curvature="0"
           sodipodi:nodetypes="cccccc" />
        <path
           style="fill:none;stroke:#000000;stroke-width:0.66500002;stroke-linecap:butt;stroke-linejoin:miter;stroke-miterlimit:4;stroke-dasharray:none;stroke-opacity:1"
           d="m 679.31981,254.90537 c 0.68433,-2.30954 1.54938,-3.38792 3.20389,-3.73008 l 3.71841,-0.6665 0.93543,5.70619 -6.78196,2.57249"
           id="path6322"
           inkscape:connector-curvature="0"
           sodipodi:nodetypes="ccccc" />
        <path
           style="fill:none;stroke:#000000;stroke-width:0.66500002;stroke-linecap:butt;stroke-linejoin:miter;stroke-miterlimit:4;stroke-dasharray:none;stroke-opacity:1"
           d="m 686.24211,250.50879 25.78208,0.0267 -0.0331,2.6789 -10.12031,0.19844"
           id="path6324"
           inkscape:connector-curvature="0" />
        <path
           style="fill:none;stroke:#000000;stroke-width:0.66500002;stroke-linecap:butt;stroke-linejoin:miter;stroke-miterlimit:4;stroke-dasharray:none;stroke-opacity:1"
           d="m 687.17754,256.21498 18.4305,-0.0571 -0.0992,-2.91041"
           id="path6326"
           inkscape:connector-curvature="0" />
        <path
           style="fill:none;stroke:#000000;stroke-width:0.66500002;stroke-linecap:butt;stroke-linejoin:miter;stroke-miterlimit:4;stroke-dasharray:none;stroke-opacity:1"
           d="m 686.48695,252.00233 13.89558,-0.0282 c 2.22417,0.66728 1.97872,3.34409 0.0413,3.92285 l -13.18145,0.0534"
           id="path6330"
           inkscape:connector-curvature="0"
           sodipodi:nodetypes="cccc" />
        <path
           style="fill:none;stroke:#000000;stroke-width:0.66500002;stroke-linecap:butt;stroke-linejoin:miter;stroke-miterlimit:4;stroke-dasharray:none;stroke-opacity:1"
           d="m 685.49374,256.84642 c 1.57962,2.72172 -2.45348,6.41622 -5.09816,1.94105"
           id="path6334"
           inkscape:connector-curvature="0"
           sodipodi:nodetypes="cc" />
        <path
           style="fill:none;stroke:#000000;stroke-width:0.66500002;stroke-linecap:butt;stroke-linejoin:miter;stroke-miterlimit:4;stroke-dasharray:none;stroke-opacity:1"
           d="m 683.36561,259.44226 c -0.3959,-0.40475 -1.04571,-0.63509 -0.97253,-1.406 l -1.9975,0.75121 1.30963,1.63702 c -0.32757,3.52785 -4.48332,4.31568 -7.0626,2.38538"
           id="path6336"
           inkscape:connector-curvature="0"
           sodipodi:nodetypes="ccccc" />
        <ellipse
           style="opacity:1;fill:#000000;fill-opacity:1;stroke:#000000;stroke-width:0.49029905;stroke-miterlimit:4;stroke-dasharray:none;stroke-opacity:1"
           id="path6338"
           cx="699.7359"
           cy="253.95822"
           rx="0.36798343"
           ry="0.3562904" />
        <ellipse
           style="opacity:1;fill:#000000;fill-opacity:1;stroke:#000000;stroke-width:0.49029905;stroke-miterlimit:4;stroke-dasharray:none;stroke-opacity:1"
           id="path6338-3"
           cx="693.11761"
           cy="253.96992"
           rx="0.36798346"
           ry="0.3562904" />
      </g>
      <path
         transform="matrix(0.26458333,0,0,0.26458333,3.6023509,-144.09058)"
         inkscape:connector-curvature="0"
         id="path6374"
         d="m 2290.0803,1510.5775 c 1.0539,-1.0697 1.6277,-1.9419 2.0907,-3.1782 0.3882,-1.0364 0.5694,-1.9702 0.5694,-2.9345 0,-0.4396 0.01,-0.8019 0.022,-0.8052 0.088,-0.024 10.8127,-0.2263 10.8389,-0.2049 0.046,0.037 0.31,7.8973 0.2665,7.9346 -0.019,0.016 -3.3399,0.054 -7.3794,0.084 l -7.3447,0.054 z"
         style="opacity:1;fill:#878787;fill-opacity:1;stroke:#000000;stroke-width:0.10021986;stroke-miterlimit:4;stroke-dasharray:none;stroke-opacity:1" />
      <path
         transform="matrix(0.26458333,0,0,0.26458333,3.6023509,-144.09058)"
         inkscape:connector-curvature="0"
         id="path6376"
         d="m 2209.0622,1514.4536 -1.7845,-6.4082 0.6061,-1.7678 c 0.8083,-2.3579 1.9877,-4.8275 2.9481,-6.1733 1.5076,-2.1128 3.7121,-3.7749 5.9833,-4.5112 0.813,-0.2635 13.9787,-2.6475 14.0848,-2.5503 0.089,0.082 3.2182,19.0199 3.1513,19.0722 -0.077,0.06 -23.0455,8.7467 -23.1275,8.7467 -0.042,0 -0.8802,-2.8836 -1.8616,-6.4081 z"
         style="opacity:1;fill:#878787;fill-opacity:1;stroke:#000000;stroke-width:0.20043972;stroke-miterlimit:4;stroke-dasharray:none;stroke-opacity:1" />
      <path
         transform="matrix(0.26458333,0,0,0.26458333,3.6023509,-144.09058)"
         inkscape:connector-curvature="0"
         id="path6378"
         d="m 2291.7178,1500.053 c -0.8452,-1.4978 -2.2134,-2.7356 -4.0022,-3.6212 l -1.5366,-0.7608 -26.0279,0.035 -26.0278,0.035 -0.2027,-1.2724 c -0.1114,-0.6999 -0.2347,-1.3719 -0.274,-1.4934 -0.057,-0.1764 9.4648,-0.221 47.2108,-0.221 h 47.2822 v 3.8007 3.8007 l -1.5468,-1e-4 c -2.0347,-10e-5 -26.7726,0.4871 -31.0075,0.6108 l -3.2977,0.096 z"
         style="opacity:1;fill:#878787;fill-opacity:1;stroke:#000000;stroke-width:0.20043972;stroke-miterlimit:4;stroke-dasharray:none;stroke-opacity:1" />
      <path
         transform="matrix(0.26458333,0,0,0.26458333,3.6023509,-144.09058)"
         inkscape:connector-curvature="0"
         id="path6380"
         d="m 2184.0089,1537.217 c -0.9905,-0.6675 -1.8309,-2.4034 -2.555,-5.2777 -0.7525,-2.9872 -0.9228,-8.8336 -0.3131,-10.75 0.8627,-2.7118 2.6339,-4.544 5.9692,-6.1749 1.7191,-0.8406 1.8782,-0.8909 10.1595,-3.2112 4.0906,-1.1461 7.4974,-2.1067 7.5706,-2.1346 0.08,-0.031 0.7223,2.0792 1.6124,5.2974 0.8136,2.9416 1.5811,5.7057 1.7056,6.1426 0.2232,0.7838 0.2229,0.7951 -0.022,0.8592 -0.164,0.043 -0.2257,0.1364 -0.1817,0.2751 0.048,0.151 -0.136,0.3507 -0.6528,0.7088 -0.3957,0.2742 -4.1788,2.9396 -8.4069,5.9232 -9.422,6.6485 -10.5194,7.3919 -11.9284,8.0811 -1.3532,0.6618 -2.2455,0.7406 -2.9572,0.261 z"
         style="opacity:1;fill:#ff7f20;fill-opacity:1;stroke:#000000;stroke-width:0.14173229;stroke-miterlimit:4;stroke-dasharray:none;stroke-opacity:1" />
      <path
         transform="matrix(0.26458333,0,0,0.26458333,3.6023509,-144.09058)"
         inkscape:connector-curvature="0"
         id="path6382"
         d="m 2236.5894,1510.4601 c 0,-0.037 -0.4479,-2.7057 -0.991,-5.9304 -0.5431,-3.2248 -0.9374,-5.9133 -0.8762,-5.9745 0.061,-0.061 11.4484,-0.1669 25.3047,-0.2347 l 25.1932,-0.1232 1.2834,0.6503 c 4.5766,2.3191 4.7754,8.276 0.3627,10.8702 l -1.1484,0.6751 -24.5625,0.067 c -13.5093,0.037 -24.564,0.037 -24.5659,0 z m 23.1398,-4.3059 c 1.2263,-1.2263 0.547,-3.6416 -1.1277,-4.0094 -0.9501,-0.2087 -2.3465,0.4433 -2.724,1.2719 -0.4714,1.0346 -0.3343,1.84 0.4461,2.6204 0.9724,0.9724 2.4978,1.0249 3.4056,0.1171 z m 24.9521,6e-4 c 1.4024,-1.2997 0.6822,-3.6728 -1.2231,-4.0302 -1.665,-0.3124 -3.1117,1.2024 -2.7447,2.8737 0.3724,1.6955 2.6652,2.3638 3.9678,1.1565 z"
         style="opacity:1;fill:#ff7f20;fill-opacity:1;stroke:#000000;stroke-width:0.28346458;stroke-miterlimit:4;stroke-dasharray:none;stroke-opacity:1" />
    </g>
  </g>
</svg>
