<?xml version="1.0" encoding="UTF-8" standalone="no"?>
<!-- Created with Inkscape (http://www.inkscape.org/) -->

<svg
   xmlns:dc="http://purl.org/dc/elements/1.1/"
   xmlns:cc="http://creativecommons.org/ns#"
   xmlns:rdf="http://www.w3.org/1999/02/22-rdf-syntax-ns#"
   xmlns:svg="http://www.w3.org/2000/svg"
   xmlns="http://www.w3.org/2000/svg"
   xmlns:sodipodi="http://sodipodi.sourceforge.net/DTD/sodipodi-0.dtd"
   xmlns:inkscape="http://www.inkscape.org/namespaces/inkscape"
   width="47.879189mm"
   height="20.99328mm"
   viewBox="0 0 47.879189 20.99328"
   version="1.1"
   id="svg6816"
   inkscape:version="0.92.4 (fd57863, 2020-04-02)"
   sodipodi:docname="solar_gun.svg"
   inkscape:export-filename="/home/not-yeshwanth-reddy/Documents/Unity Projects/karepaaak_files/Designes/solar_gun.png"
   inkscape:export-xdpi="96"
   inkscape:export-ydpi="96">
  <defs
     id="defs6810" />
  <sodipodi:namedview
     id="base"
     pagecolor="#ffffff"
     bordercolor="#666666"
     borderopacity="1.0"
     inkscape:pageopacity="0.0"
     inkscape:pageshadow="2"
     inkscape:zoom="0.79980469"
     inkscape:cx="476.72701"
     inkscape:cy="187.07161"
     inkscape:document-units="mm"
     inkscape:current-layer="layer1"
     showgrid="false"
     inkscape:pagecheckerboard="true"
     inkscape:window-width="1366"
     inkscape:window-height="740"
     inkscape:window-x="0"
     inkscape:window-y="0"
     inkscape:window-maximized="1" />
  <metadata
     id="metadata6813">
    <rdf:RDF>
      <cc:Work
         rdf:about="">
        <dc:format>image/svg+xml</dc:format>
        <dc:type
           rdf:resource="http://purl.org/dc/dcmitype/StillImage" />
        <dc:title></dc:title>
      </cc:Work>
    </rdf:RDF>
  </metadata>
  <g
     inkscape:label="Layer 1"
     inkscape:groupmode="layer"
     id="layer1"
     transform="translate(73.561088,-177.33608)">
    <g
       id="g5771"
       transform="matrix(1.2240798,0,0,1.2959815,-698.30037,-55.962315)">
      <path
         inkscape:connector-curvature="0"
         id="path1133"
         d="m 512.23043,187.16775 -1.43867,2.91042 -0.0331,2.81119 2.23243,2.92696 7.60677,0.0164 3.73724,-3.07578 8.33437,-0.41341 1.27331,0.51263 12.3858,-0.95912 0.76068,-1.07487 1.15755,-0.0331 0.0496,-1.4056 -1.2733,0.0331 -0.33073,-0.54571 0.0164,-2.34817 2.39779,-0.0331 v -1.12448 l -8.6155,-1.88515 -0.94258,0.61185 -3.37343,-0.72761 v -0.79375 l -5.01055,-1.14101 -0.79375,1.15755 -2.4474,-0.0164 -1.35599,-2.14974 -13.26223,1.32292 -1.81901,4.36563 z"
         style="fill:none;stroke:#000000;stroke-width:0.76499999;stroke-linecap:butt;stroke-linejoin:miter;stroke-miterlimit:4;stroke-dasharray:none;stroke-opacity:1" />
      <path
         sodipodi:nodetypes="ccccccc"
         inkscape:connector-curvature="0"
         id="path5643"
         d="m 527.92334,182.57059 -0.91528,0.32903 1.33303,1.23947 1.54348,-0.56128 5.68282,0.44433 3.98108,0.0697 -3.37341,-0.7276"
         style="fill:none;stroke:#000000;stroke-width:0.76499999;stroke-linecap:butt;stroke-linejoin:miter;stroke-miterlimit:4;stroke-dasharray:none;stroke-opacity:1" />
      <g
         transform="translate(-171.97923)"
         id="g5655">
        <path
           style="fill:none;stroke:#000000;stroke-width:0.76499999;stroke-linecap:butt;stroke-linejoin:miter;stroke-miterlimit:4;stroke-dasharray:none;stroke-opacity:1"
           d="m 686.94368,187.31959 -2.05799,3.0402 -0.0233,1.89426 2.03457,1.33302 5.19173,-0.0233 2.12812,-1.12255 -2.05798,-4.58367 z"
           id="path5645"
           inkscape:connector-curvature="0" />
        <path
           style="fill:none;stroke:#000000;stroke-width:0.76499999;stroke-linecap:butt;stroke-linejoin:miter;stroke-miterlimit:4;stroke-dasharray:none;stroke-opacity:1"
           d="m 686.89695,193.58707 1.68376,-2.08137 2.89988,0.0233 1.637,-1.44994 1.09922,2.36207 0.23381,0.77165 0.91204,0.32743"
           id="path5647"
           inkscape:connector-curvature="0" />
      </g>
      <path
         inkscape:connector-curvature="0"
         id="path5657"
         d="m 514.96424,187.31959 -0.77174,-1.47333 1.40316,-2.1749 h 5.84653 l 0.63143,1.44994 2.71277,0.0701 1.1693,1.33303 4.27966,0.0468 1.21608,-1.33303 8.46576,-0.0935 0.95883,1.42656 5.83274,-0.0486 -0.0164,2.34815 -14.21196,-0.0779 -3.95224,0.35078 -0.81851,2.38538 -3.81193,0.14031 0.43735,1.08754 -1.44296,-2.77133 -0.0468,-2.12815 1.98781,0.0233 0.7016,-0.67821 -0.0233,-0.95882 -2.57249,0.0233 -0.91204,-1.19269 -6.78196,0.18709 -0.42095,0.77174 0.1403,1.28624"
         style="fill:none;stroke:#000000;stroke-width:0.76499999;stroke-linecap:butt;stroke-linejoin:miter;stroke-miterlimit:4;stroke-dasharray:none;stroke-opacity:1" />
      <path
         inkscape:connector-curvature="0"
         id="path5659"
         d="m 524.83311,187.88075 1.14597,3.27416 2.50232,-0.8419 -0.0468,-2.64263 -1.05238,-1.05238 z"
         style="fill:none;stroke:#000000;stroke-width:0.76499999;stroke-linecap:butt;stroke-linejoin:miter;stroke-miterlimit:4;stroke-dasharray:none;stroke-opacity:1" />
      <path
         inkscape:connector-curvature="0"
         id="path5661"
         d="m 531.45143,185.2382 v 1.42658 h 8.60607 l -0.14033,-1.52009 0.14033,1.54348 h -2.45554 v 1.3096 l -3.48451,0.0233 -0.0233,-1.30961 -2.66603,-0.0233 z"
         style="fill:none;stroke:#000000;stroke-width:0.66500002;stroke-linecap:butt;stroke-linejoin:miter;stroke-miterlimit:4;stroke-dasharray:none;stroke-opacity:1" />
      <path
         transform="matrix(0.26458333,0,0,0.26458333,3.6023509,-144.09058)"
         inkscape:connector-curvature="0"
         id="path5671"
         d="m 1922.2411,1278.2064 -3.8282,-5.0241 0.016,-4.8874 0.016,-4.8873 1.7333,-3.4794 c 0.9533,-1.9136 2.2325,-4.524 2.8426,-5.8008 l 1.1094,-2.3214 -1.4123,-1.9945 -1.4124,-1.9944 0.9257,-2.2248 c 0.5092,-1.2237 1.9027,-4.574 3.0967,-7.4452 l 2.171,-5.2202 23.7079,-2.3504 c 13.0394,-1.2928 23.9026,-2.3643 24.1406,-2.3812 0.4345,-0.031 0.8036,0.4758 3.5296,4.8447 l 0.5051,0.8094 -1.9243,0.6703 c -1.0584,0.3687 -1.9243,0.7299 -1.9243,0.8027 0,0.205 7.2278,6.896 7.4491,6.896 0.1077,0 1.598,-0.5073 3.3118,-1.1273 l 3.116,-1.1272 3.8891,0.3156 c 13.7442,1.1154 18.6328,1.4101 25.5442,1.5396 l 7.1595,0.1341 1.7428,-1.1307 1.7429,-1.1307 15.3161,3.3502 15.3161,3.3502 0.053,0.7227 0.053,0.7226 -2.5283,0.1022 c -1.3906,0.056 -7.8654,0.1458 -14.3885,0.1992 l -11.8602,0.097 -1.8336,-2.7618 -1.8335,-2.7619 -1.5974,0.1038 c -0.8787,0.057 -8.3934,0.156 -16.6994,0.2198 l -15.1019,0.1159 -0.5933,0.6381 c -0.3263,0.351 -1.3661,1.4998 -2.3106,2.5529 l -1.7173,1.9147 -4.8614,-0.1024 c -2.6737,-0.056 -6.0148,-0.105 -7.4246,-0.1083 l -2.5633,-0.01 -1.7148,-1.9833 c -0.9432,-1.0907 -1.953,-2.2417 -2.244,-2.5577 l -0.529,-0.5745 -2.7058,-7e-4 c -1.4882,-4e-4 -3.7067,-0.052 -4.93,-0.1142 l -2.2242,-0.1134 -1.164,-2.6701 -1.164,-2.6701 -11.995,-0.045 -11.995,-0.045 -3.1176,4.8184 -3.1176,4.8184 1.3976,2.6736 c 0.7687,1.4705 1.3977,2.763 1.3977,2.8721 0,0.1091 -1.6706,2.6612 -3.7124,5.6712 l -3.7123,5.4729 v 4.2524 4.2524 l 4.2869,2.8227 4.2868,2.8227 h 10.2286 10.2286 l 3.2948,-1.7236 c 1.8122,-0.9479 3.3661,-1.7236 3.4531,-1.7236 0.087,0 0.2694,0.3812 0.4052,0.8469 0.1893,0.6493 0.3587,0.8872 0.7256,1.0193 1.2539,0.4515 1.4157,0.2379 -2.8468,3.7574 l -4.0011,3.3037 h -13.6882 -13.6883 z"
         style="opacity:1;fill:#c7ffeb;fill-opacity:0.92672412;stroke:#000000;stroke-width:0.44430801;stroke-miterlimit:4;stroke-dasharray:none;stroke-opacity:1" />
      <path
         transform="matrix(0.26458333,0,0,0.26458333,3.6023509,-144.09058)"
         inkscape:connector-curvature="0"
         id="path5673"
         d="m 2002.1382,1270.9367 c -2.1156,-0.8729 -2.3824,-0.9413 -3.3588,-0.8615 -0.5834,0.048 -6.7882,0.3602 -13.7886,0.6946 -7.0003,0.3343 -13.4219,0.6579 -14.2701,0.7191 -1.5361,0.1108 -1.543,0.1094 -1.7523,-0.3499 -0.1155,-0.2536 -0.1592,-0.512 -0.097,-0.5741 0.089,-0.089 9.9057,-0.5425 12.6281,-0.5839 0.316,0 0.5745,-0.083 0.5745,-0.174 0,-0.091 0.325,-1.0812 0.7222,-2.2006 l 0.7223,-2.0351 0.8632,-0.2868 0.8633,-0.2867 0.05,-2.0598 0.05,-2.0598 6.3639,-0.5829 6.364,-0.5829 26.8272,0.1151 26.8272,0.1151 0.6302,1.0374 0.6301,1.0374 h 2.0202 2.0201 v 1.0479 1.0479 l -0.9281,0.1031 c -0.5104,0.057 -1.3632,0.1221 -1.8951,0.1453 l -0.967,0.042 -1.346,1.9006 c -0.7403,1.0454 -1.3927,1.9472 -1.4496,2.0042 -0.1135,0.1134 -0.3501,0.1327 -26.8831,2.1871 -10.095,0.7816 -18.5273,1.414 -18.7384,1.4052 -0.211,-0.01 -1.4179,-0.4427 -2.6818,-0.9642 z"
         style="opacity:1;fill:#c7ffeb;fill-opacity:1;stroke:#000000;stroke-width:0.44430801;stroke-miterlimit:4;stroke-dasharray:none;stroke-opacity:1" />
      <path
         transform="matrix(0.26458333,0,0,0.26458333,3.6023509,-144.09058)"
         inkscape:connector-curvature="0"
         id="path5675"
         d="m 1962.9999,1273.9236 c -0.6538,-0.2316 -0.7589,-0.3442 -0.8534,-0.9142 -0.074,-0.4487 -8.2242,-19.0767 -8.6565,-19.7861 -0.015,-0.024 -4.3557,-0.4907 -9.6465,-1.0365 -5.2908,-0.5457 -9.6482,-1.0184 -9.6831,-1.0505 -0.035,-0.032 -0.1416,-0.7275 -0.2369,-1.5454 -0.1661,-1.4248 -0.1541,-1.5253 0.2875,-2.3966 l 0.4608,-0.9095 1.0135,-0.01 c 0.5574,-0.01 5.9058,-0.152 11.8853,-0.3249 5.9794,-0.173 10.9513,-0.2829 11.0485,-0.2443 0.097,0.039 0.9319,1.0704 1.8548,2.2928 l 1.6779,2.2226 4.465,-0.1276 4.4651,-0.1276 v 0.7738 c 0,0.6937 -0.091,0.8633 -0.8745,1.6353 l -0.8745,0.8613 -4.1909,-0.1103 -4.1909,-0.1102 0.1017,5.0306 0.1018,5.0307 2.514,4.8092 2.514,4.8092 -0.8649,0.7567 c -0.9382,0.8208 -1.1887,0.8718 -2.3178,0.472 z"
         style="opacity:1;fill:#c7ffeb;fill-opacity:0.92941176;stroke:#000000;stroke-width:0.44430801;stroke-miterlimit:4;stroke-dasharray:none;stroke-opacity:1" />
      <path
         transform="matrix(0.26458333,0,0,0.26458333,3.6023509,-144.09058)"
         inkscape:connector-curvature="0"
         id="path5677"
         d="m 1934.1355,1243.2006 c 0,-0.047 0.4058,-0.7251 0.9016,-1.5061 l 0.9016,-1.4201 h 10.118 10.118 l 0.4706,1.0905 c 0.2588,0.5998 0.4339,1.1271 0.3892,1.1718 -0.045,0.045 -3.8032,0.1845 -8.3523,0.3107 -4.5491,0.1262 -9.6831,0.2766 -11.4089,0.3343 -1.7257,0.058 -3.1378,0.066 -3.1378,0.019 z"
         style="opacity:1;fill:#fde700;fill-opacity:1;stroke:#000000;stroke-width:0.44430801;stroke-miterlimit:4;stroke-dasharray:none;stroke-opacity:1" />
      <path
         transform="matrix(0.26458333,0,0,0.26458333,3.6023509,-144.09058)"
         inkscape:connector-curvature="0"
         id="path5679"
         d="m 1996.3609,1247.5401 v -1.2197 l 2.1656,-0.1026 c 1.191,-0.056 7.8334,-0.1515 14.7608,-0.2112 l 12.5953,-0.1086 v 0.6107 c 0,0.3358 0.051,0.9797 0.1125,1.4308 l 0.1124,0.8202 h -14.8733 -14.8733 z"
         style="opacity:1;fill:#fde700;fill-opacity:1;stroke:#000000;stroke-width:0.44430801;stroke-miterlimit:4;stroke-dasharray:none;stroke-opacity:1" />
      <path
         transform="matrix(0.26458333,0,0,0.26458333,3.6023509,-144.09058)"
         inkscape:connector-curvature="0"
         id="path5681"
         d="m 2006.4372,1252.6488 v -1.2374 h 5.2149 5.2149 v 1.2374 1.2374 h -5.2149 -5.2149 z"
         style="opacity:1;fill:#fde700;fill-opacity:1;stroke:#000000;stroke-width:0.44430801;stroke-miterlimit:4;stroke-dasharray:none;stroke-opacity:1" />
      <path
         transform="matrix(0.26458333,0,0,0.26458333,3.6023509,-144.09058)"
         inkscape:connector-curvature="0"
         id="path5697"
         d="m 1975.2212,1265.1737 c -0.1486,-0.3979 -3.3894,-9.6949 -3.3887,-9.7209 10e-4,-0.035 7.4466,-3.7402 7.5147,-3.7401 0.017,0 0.6594,0.6293 1.4269,1.3985 l 1.3956,1.3984 0.048,2.7135 0.048,2.7134 -0.5642,1.646 c -0.3103,0.9052 -0.5677,1.6496 -0.572,1.6542 -0.012,0.013 -5.8419,1.9752 -5.8696,1.9757 -0.014,2e-4 -0.031,-0.017 -0.039,-0.039 z"
         style="opacity:1;fill:#c7ffeb;fill-opacity:1;stroke:#000000;stroke-width:0.07854331;stroke-miterlimit:4;stroke-dasharray:none;stroke-opacity:1" />
      <path
         transform="matrix(0.26458333,0,0,0.26458333,3.6023509,-144.09058)"
         inkscape:connector-curvature="0"
         id="path5699"
         d="m 1966.8208,1267.4549 c -0.024,-0.039 -0.6414,-1.2234 -1.3725,-2.6328 l -1.3293,-2.5625 -0.067,-3.0744 c -0.037,-1.691 -0.06,-3.0813 -0.052,-3.0896 0.017,-0.017 4.9564,0.043 4.9683,0.06 0.037,0.052 3.8907,11.1332 3.8769,11.147 -0.019,0.019 -5.1265,0.2174 -5.6778,0.2208 -0.2826,0 -0.307,0 -0.3473,-0.068 z"
         style="opacity:1;fill:#fde700;fill-opacity:1;stroke:#000000;stroke-width:0.07854331;stroke-miterlimit:4;stroke-dasharray:none;stroke-opacity:1" />
      <path
         transform="matrix(0.26458333,0,0,0.26458333,3.6023509,-144.09058)"
         inkscape:connector-curvature="0"
         id="path5715"
         d="m 1985.1689,1257.0278 c -0.031,-0.4733 -0.057,-1.5164 -0.057,-2.3177 l -4e-4,-1.4571 -1.0386,-1.0498 -1.0386,-1.0498 4.0263,0.047 4.0263,0.047 1.2705,-1.4071 c 0.6988,-0.7739 1.2866,-1.4071 1.3063,-1.4071 0.02,0 0.01,0.6698 -0.027,1.4886 l -0.063,1.4886 0.7409,0.058 c 0.4075,0.032 2.6998,0.058 5.094,0.058 l 4.3531,5e-4 5e-4,1.7899 c 3e-4,0.9844 0.025,2.1081 0.056,2.497 l 0.055,0.7071 7.3911,-0.023 c 4.0651,-0.012 7.6,-0.045 7.8552,-0.073 l 0.464,-0.05 v -2.4243 -2.4244 h 4.6928 4.6929 l -0.063,-0.8396 c -0.035,-0.4619 -0.043,-0.8397 -0.019,-0.8397 0.024,0 0.2555,0.3227 0.5144,0.7172 l 0.4709,0.7171 2.6118,-0.054 c 1.4365,-0.03 6.2474,-0.079 10.691,-0.1097 l 8.0793,-0.056 -0.057,0.6078 c -0.032,0.3343 -0.058,1.6579 -0.058,2.9413 l -6e-4,2.3335 -10.4078,-0.06 c -5.7242,-0.033 -17.4694,-0.1004 -26.1003,-0.1501 l -15.6926,-0.09 -4.5041,0.4036 c -2.4773,0.222 -5.419,0.4822 -6.5371,0.5782 -1.1181,0.096 -2.1761,0.1943 -2.3511,0.2182 l -0.3182,0.044 z"
         style="opacity:1;fill:#000000;fill-opacity:1;stroke:#000000;stroke-width:0.22215401;stroke-miterlimit:4;stroke-dasharray:none;stroke-opacity:1" />
      <path
         transform="matrix(0.26458333,0,0,0.26458333,3.6023509,-144.09058)"
         inkscape:connector-curvature="0"
         id="path5717"
         d="m 1982.2985,1237.6255 -1.2656,-1.169 0.2934,-0.1325 c 0.2459,-0.1112 1.1146,-0.1398 5.3681,-0.1768 l 5.0749,-0.044 1.3775,-2.0042 c 0.7576,-1.1023 1.4007,-2.027 1.4291,-2.055 0.028,-0.028 3.8036,0.8043 8.3896,1.8495 4.5859,1.0452 8.3513,1.9003 8.3674,1.9003 0.016,0 0.029,0.6364 0.029,1.4142 v 1.4142 l -0.3756,5e-4 c -0.2067,2e-4 -5.2612,-0.382 -11.2324,-0.8493 l -10.8567,-0.8497 -2.5783,0.9378 c -1.4181,0.5158 -2.6181,0.9368 -2.6667,0.9355 -0.049,0 -0.658,-0.5284 -1.3541,-1.1713 z"
         style="opacity:1;fill:#000000;fill-opacity:1;stroke:#000000;stroke-width:0.22215401;stroke-miterlimit:4;stroke-dasharray:none;stroke-opacity:1" />
      <path
         transform="matrix(0.26458333,0,0,0.26458333,3.6023509,-144.09058)"
         inkscape:connector-curvature="0"
         id="path5719"
         d="m 1963.0656,1246.4634 -0.4912,-0.6408 h 0.2308 c 0.732,0 6.1315,0.1421 6.2465,0.1684 0.1025,0.024 0.2515,0.1617 0.5817,0.5398 l 0.4439,0.5082 -1.1563,0.027 c -0.6359,0.015 -2.1031,0.03 -3.2603,0.033 l -2.1039,0.01 z"
         style="opacity:1;fill:#000000;fill-opacity:1;stroke:#000000;stroke-width:0.111077;stroke-miterlimit:4;stroke-dasharray:none;stroke-opacity:1" />
      <rect
         transform="rotate(13.000781)"
         y="57.21648"
         x="558.58124"
         height="0.83714128"
         width="4.6874385"
         id="rect5721"
         style="opacity:1;fill:#ff0000;fill-opacity:1;stroke:#000000;stroke-width:0.45548871;stroke-miterlimit:4;stroke-dasharray:none;stroke-opacity:1" />
      <path
         transform="matrix(0.26458333,0,0,0.26458333,3.6023509,-144.09058)"
         inkscape:connector-curvature="0"
         id="path5745"
         d="m 1937.135,1272.9406 c 0.822,-1.0167 1.7144,-2.122 1.9832,-2.4563 l 0.4886,-0.6078 5.3981,0.058 5.3981,0.058 2.549,-2.2597 c 1.4019,-1.2428 2.5762,-2.2283 2.6094,-2.19 0.1866,0.2154 2.6591,5.7084 2.5952,5.7657 -0.042,0.038 -1.4887,0.809 -3.2145,1.7137 l -3.1378,1.645 -8.0819,0.061 -8.082,0.061 z"
         style="opacity:1;fill:#c7ffeb;fill-opacity:0.92941176;stroke:#000000;stroke-width:0.22215401;stroke-miterlimit:4;stroke-dasharray:none;stroke-opacity:1" />
      <path
         transform="matrix(0.26458333,0,0,0.26458333,3.6023509,-144.09058)"
         inkscape:connector-curvature="0"
         id="path5747"
         d="m 1979.375,1266.9107 c 0.3034,-0.1043 0.5547,-0.1866 0.5584,-0.1829 0,0 -0.018,0.081 -0.048,0.1713 l -0.055,0.1647 -0.1673,0.01 c -0.092,0.01 -0.3185,0.014 -0.5033,0.018 l -0.3359,0.01 z"
         style="opacity:1;fill:#000000;fill-opacity:0.92941176;stroke:#000000;stroke-width:0.03927165;stroke-miterlimit:4;stroke-dasharray:none;stroke-opacity:1" />
    </g>
  </g>
</svg>
