<?xml version="1.0" encoding="UTF-8" standalone="no"?>
<!-- Created with Inkscape (http://www.inkscape.org/) -->

<svg
   xmlns:dc="http://purl.org/dc/elements/1.1/"
   xmlns:cc="http://creativecommons.org/ns#"
   xmlns:rdf="http://www.w3.org/1999/02/22-rdf-syntax-ns#"
   xmlns:svg="http://www.w3.org/2000/svg"
   xmlns="http://www.w3.org/2000/svg"
   xmlns:sodipodi="http://sodipodi.sourceforge.net/DTD/sodipodi-0.dtd"
   xmlns:inkscape="http://www.inkscape.org/namespaces/inkscape"
   width="45.415085mm"
   height="23.592237mm"
   viewBox="0 0 45.415084 23.592237"
   version="1.1"
   id="svg6836"
   inkscape:version="0.92.4 (fd57863, 2020-04-02)"
   sodipodi:docname="surgical_knife.svg"
   inkscape:export-filename="/home/not-yeshwanth-reddy/Documents/Unity Projects/karepaaak_files/Designes/Exports/Weapons/surgical_knife.png"
   inkscape:export-xdpi="96"
   inkscape:export-ydpi="96">
  <defs
     id="defs6830" />
  <sodipodi:namedview
     id="base"
     pagecolor="#ffffff"
     bordercolor="#666666"
     borderopacity="1.0"
     inkscape:pageopacity="0.0"
     inkscape:pageshadow="2"
     inkscape:zoom="0.91383935"
     inkscape:cx="-137.56107"
     inkscape:cy="87.093576"
     inkscape:document-units="mm"
     inkscape:current-layer="layer1"
     showgrid="false"
     inkscape:pagecheckerboard="true"
     inkscape:window-width="1366"
     inkscape:window-height="740"
     inkscape:window-x="0"
     inkscape:window-y="0"
     inkscape:window-maximized="1" />
  <metadata
     id="metadata6833">
    <rdf:RDF>
      <cc:Work
         rdf:about="">
        <dc:format>image/svg+xml</dc:format>
        <dc:type
           rdf:resource="http://purl.org/dc/dcmitype/StillImage" />
        <dc:title />
      </cc:Work>
    </rdf:RDF>
  </metadata>
  <g
     inkscape:label="Layer 1"
     inkscape:groupmode="layer"
     id="layer1"
     transform="translate(-53.082791,-46.320824)">
    <g
       id="g2118"
       transform="rotate(-25.315065,-204.3463,197.21354)">
      <g
         transform="translate(-115.88844,-136.87448)"
         id="g1304">
        <g
           id="g1262"
           transform="matrix(-0.37176193,0,0,0.48968216,322.22709,332.24211)">
          <path
             sodipodi:nodetypes="cccc"
             inkscape:connector-curvature="0"
             id="path1235"
             d="m 195.84764,-10.175876 c 4.04134,14.4702487 31.32595,9.26101217 33.82797,7.2730701 4.03536,-2.1762123 -1.80472,-6.3365597 5.5425,-7.9512661 z"
             style="fill:none;stroke:#000000;stroke-width:0.76499999;stroke-linecap:butt;stroke-linejoin:miter;stroke-miterlimit:4;stroke-dasharray:none;stroke-opacity:1" />
          <path
             sodipodi:nodetypes="cccccccccccc"
             inkscape:connector-curvature="0"
             id="path1239"
             d="m 235.21811,-10.854075 92.81936,-0.841896 c 3.08596,0.687076 0.50632,8.0459773 -5.5191,7.8577228 l -52.88764,0.8535908 c -0.41934,0.099141 -0.88521,0.185254 -2.06967,0.07016 -0.53989,-0.1482674 -1.01495,-0.1236775 -1.46163,-0.023389 -0.31342,0.035596 -0.70743,0.194793 -1.56686,0 -0.47416,-0.061191 -0.97197,-0.075063 -1.50841,-0.011695 -0.70886,0.1061763 -1.44061,0.1711464 -2.30353,0 l -10.48865,-0.070159 c -0.5622,0.063479 -1.1362,0.091535 -1.74227,0.023389 -6.26203,0.015005 -11.68603,-1.4225973 -18.8141,0.093541"
             style="fill:none;stroke:#000000;stroke-width:0.76499999;stroke-linecap:butt;stroke-linejoin:miter;stroke-miterlimit:4;stroke-dasharray:none;stroke-opacity:1" />
          <g
             id="g1253">
            <path
               style="fill:none;stroke:#000000;stroke-width:0.26458332px;stroke-linecap:butt;stroke-linejoin:miter;stroke-opacity:1"
               d="m 248.48971,-2.996352 -3.42201,-7.909576 h 1.50482 l 3.65946,7.8861869"
               id="path1241"
               inkscape:connector-curvature="0" />
            <path
               style="fill:none;stroke:#000000;stroke-width:0.26458332px;stroke-linecap:butt;stroke-linejoin:miter;stroke-opacity:1"
               d="m 260.72063,-2.9495842 -2.09303,-7.9894168 h 2.36471 l 2.01431,7.9894221"
               id="path1243"
               inkscape:connector-curvature="0" />
            <path
               style="fill:none;stroke:#000000;stroke-width:0.26458332px;stroke-linecap:butt;stroke-linejoin:miter;stroke-opacity:1"
               d="m 264.53257,-2.937887 -2.03544,-8.166478 1.53789,0.01654 2.06441,8.149942"
               id="path1245"
               inkscape:connector-curvature="0" />
            <path
               style="fill:none;stroke:#000000;stroke-width:0.26458332px;stroke-linecap:butt;stroke-linejoin:miter;stroke-opacity:1"
               d="m 267.56106,-2.9145005 -2.07083,-8.1898645 1.80247,0.01654 2.33803,8.103169"
               id="path1247"
               inkscape:connector-curvature="0" />
          </g>
        </g>
        <path
           style="opacity:1;fill:#c6c6c6;fill-opacity:1;stroke:#000000;stroke-width:0.23080009;stroke-miterlimit:4;stroke-dasharray:none;stroke-opacity:1"
           d="m 221.98289,330.42153 c 0.16546,-0.63782 0.71422,-3.32785 0.68637,-3.36459 -0.02,-0.0264 -5.07822,-0.10574 -11.2404,-0.17627 l -11.20398,-0.12824 -0.12732,0.20709 c -0.18774,0.30539 -0.15862,0.80796 0.0839,1.44711 0.25131,0.66238 0.63737,1.14737 1.17153,1.47158 0.46233,0.28064 -0.78587,0.22711 11.13673,0.47756 10.22611,0.21481 9.45591,0.20947 9.49321,0.0658 z"
           id="path1264"
           inkscape:connector-curvature="0" />
        <path
           style="opacity:1;fill:#c6c6c6;fill-opacity:1;stroke:#000000;stroke-width:0.23080009;stroke-miterlimit:4;stroke-dasharray:none;stroke-opacity:1"
           d="m 229.42142,329.87184 c 0.12717,-0.36531 0.39169,-1.11389 0.58784,-1.66352 0.19614,-0.54962 0.33812,-1.02372 0.31554,-1.05355 -0.0225,-0.0299 -0.9758,-0.0668 -2.11826,-0.0821 l -2.07718,-0.0279 -0.0692,0.34854 c -0.038,0.19169 -0.19388,0.97724 -0.34628,1.74565 l -0.27708,1.39712 h 1.87668 1.87667 z"
           id="path1266"
           inkscape:connector-curvature="0" />
        <path
           style="opacity:1;fill:#c6c6c6;fill-opacity:1;stroke:#000000;stroke-width:0.23080009;stroke-miterlimit:4;stroke-dasharray:none;stroke-opacity:1"
           d="m 232.24258,330.3821 c 1.20151,-0.12709 3.46675,-0.11161 3.81972,0.0262 0.14648,0.0571 0.16097,0.043 0.1121,-0.10941 -0.0309,-0.0963 -0.0753,-0.63623 -0.0987,-1.1999 -0.0404,-0.97155 -0.0532,-1.03932 -0.24496,-1.30292 -0.11968,-0.16443 -0.37708,-0.35461 -0.62986,-0.46542 -0.39408,-0.17273 -0.57064,-0.18546 -2.25978,-0.1629 l -1.8323,0.0244 -0.34252,1.05356 c -0.18839,0.57947 -0.43269,1.33184 -0.54287,1.67196 l -0.20035,0.61839 0.50114,-0.0126 c 0.27564,-0.007 1.04888,-0.0705 1.71834,-0.14134 z"
           id="path1268"
           inkscape:connector-curvature="0" />
        <path
           style="opacity:1;fill:#c6c6c6;fill-opacity:1;stroke:#000000;stroke-width:0.23080009;stroke-miterlimit:4;stroke-dasharray:none;stroke-opacity:1"
           d="m 224.72591,328.9099 c 0.16719,-0.89439 0.3183,-1.67768 0.33581,-1.74067 0.0209,-0.0754 -0.039,-0.11452 -0.17562,-0.11452 h -0.20745 l -0.32165,1.69317 c -0.17689,0.93123 -0.32161,1.71453 -0.32161,1.74066 0,0.0262 0.087,0.0475 0.19328,0.0475 0.19266,0 0.19425,-0.005 0.49724,-1.62614 z"
           id="path1270"
           inkscape:connector-curvature="0" />
        <path
           style="opacity:1;fill:#b6b6b6;fill-opacity:1;stroke:#000000;stroke-width:0.23080009;stroke-miterlimit:4;stroke-dasharray:none;stroke-opacity:1"
           d="m 223.33353,330.19249 c 0.20919,-1.04767 0.56275,-2.95865 0.56275,-3.04151 0,-0.0529 -0.0744,-0.0963 -0.16524,-0.0963 -0.15637,0 -0.18246,0.0907 -0.48687,1.69317 -0.17689,0.93123 -0.32163,1.71453 -0.32163,1.74066 0,0.0262 0.0771,0.0475 0.17121,0.0475 0.13926,0 0.18398,-0.0641 0.23978,-0.34356 z"
           id="path1272"
           inkscape:connector-curvature="0" />
        <path
           style="opacity:1;fill:#989898;fill-opacity:1;stroke:#000000;stroke-width:0;stroke-miterlimit:4;stroke-dasharray:none;stroke-opacity:1"
           d="m 222.77716,330.2841 c 0.0378,-0.18895 0.19188,-0.99287 0.34254,-1.78647 l 0.27396,-1.44292 -0.25295,3.9e-4 -0.25294,3.9e-4 -0.36531,1.67161 c -0.20093,0.91939 -0.36526,1.72314 -0.36516,1.78613 1e-4,0.0724 0.10173,0.11452 0.27571,0.11452 0.25981,0 0.27942,-0.0197 0.34415,-0.34355 z"
           id="path1276"
           inkscape:connector-curvature="0" />
        <path
           style="opacity:1;fill:#989898;fill-opacity:1;stroke:#000000;stroke-width:0;stroke-miterlimit:4;stroke-dasharray:none;stroke-opacity:1"
           d="m 223.88999,330.2841 c 0.0378,-0.18895 0.19189,-0.99287 0.34256,-1.78647 l 0.27394,-1.44292 h -0.1981 c -0.22456,0 -0.16609,-0.20444 -0.60928,2.13003 l -0.27394,1.44292 h 0.1981 c 0.17034,0 0.20771,-0.0481 0.26672,-0.34356 z"
           id="path1278"
           inkscape:connector-curvature="0" />
        <path
           style="opacity:1;fill:#989898;fill-opacity:1;stroke:#000000;stroke-width:0;stroke-miterlimit:4;stroke-dasharray:none;stroke-opacity:1"
           d="m 225.24169,330.55894 c 0.0176,-0.0379 0.14711,-0.64587 0.28762,-1.3513 0.14051,-0.70542 0.29837,-1.47842 0.35077,-1.71776 l 0.0953,-0.43517 h -0.36341 -0.36342 l -0.30501,1.62615 c -0.16775,0.89439 -0.31916,1.69829 -0.33646,1.78646 -0.0265,0.13531 0.018,0.16034 0.28553,0.16034 0.17434,0 0.33144,-0.0309 0.34911,-0.0687 z"
           id="path1280"
           inkscape:connector-curvature="0" />
        <path
           style="opacity:1;fill:#989898;fill-opacity:1;stroke:#000000;stroke-width:0;stroke-miterlimit:4;stroke-dasharray:none;stroke-opacity:1"
           d="m 230.34283,328.99983 c 0.67611,-2.07343 0.63242,-1.87351 0.40148,-1.8379 -0.18079,0.0279 -0.24051,0.1568 -0.77464,1.67235 -0.31831,0.90318 -0.57874,1.65555 -0.57874,1.67194 0,0.0164 0.10171,0.0289 0.22603,0.0281 0.22587,-10e-4 0.22644,-0.002 0.72587,-1.53451 z"
           id="path1282"
           inkscape:connector-curvature="0" />
        <path
           style="opacity:1;fill:#bcdcf9;fill-opacity:1;stroke:#000000;stroke-width:0;stroke-miterlimit:4;stroke-dasharray:none;stroke-opacity:1"
           d="m 245.06423,331.40514 c 0.59508,-0.18298 1.41186,-0.54299 1.81507,-0.80005 0.70485,-0.44935 2.11942,-2.25576 2.11942,-2.70649 0,-0.26916 -4.8253,-0.55791 -9.3265,-0.55813 l -3.36221,-1.2e-4 0.0673,1.2771 c 0.0814,1.54663 0.4034,1.98794 1.83106,2.5096 1.46105,0.53386 5.49232,0.69738 6.85594,0.27812 z"
           id="path1284"
           inkscape:connector-curvature="0" />
      </g>
    </g>
  </g>
</svg>
