<?xml version="1.0" encoding="UTF-8" standalone="no"?>
<!-- Created with Inkscape (http://www.inkscape.org/) -->

<svg
   xmlns:dc="http://purl.org/dc/elements/1.1/"
   xmlns:cc="http://creativecommons.org/ns#"
   xmlns:rdf="http://www.w3.org/1999/02/22-rdf-syntax-ns#"
   xmlns:svg="http://www.w3.org/2000/svg"
   xmlns="http://www.w3.org/2000/svg"
   xmlns:sodipodi="http://sodipodi.sourceforge.net/DTD/sodipodi-0.dtd"
   xmlns:inkscape="http://www.inkscape.org/namespaces/inkscape"
   width="56.374462mm"
   height="10.885501mm"
   viewBox="0 0 56.374462 10.885501"
   version="1.1"
   id="svg10506"
   inkscape:version="0.92.4 (f8dce91, 2019-08-02)"
   sodipodi:docname="xlr5.svg">
  <defs
     id="defs10500" />
  <sodipodi:namedview
     id="base"
     pagecolor="#ffffff"
     bordercolor="#666666"
     borderopacity="1.0"
     inkscape:pageopacity="0.0"
     inkscape:pageshadow="2"
     inkscape:zoom="0.35"
     inkscape:cx="-42.037004"
     inkscape:cy="171.99959"
     inkscape:document-units="mm"
     inkscape:current-layer="layer1"
     showgrid="false"
     inkscape:pagecheckerboard="true"
     inkscape:window-width="1366"
     inkscape:window-height="740"
     inkscape:window-x="0"
     inkscape:window-y="0"
     inkscape:window-maximized="1" />
  <metadata
     id="metadata10503">
    <rdf:RDF>
      <cc:Work
         rdf:about="">
        <dc:format>image/svg+xml</dc:format>
        <dc:type
           rdf:resource="http://purl.org/dc/dcmitype/StillImage" />
        <dc:title></dc:title>
      </cc:Work>
    </rdf:RDF>
  </metadata>
  <g
     inkscape:label="Layer 1"
     inkscape:groupmode="layer"
     id="layer1"
     transform="translate(5.5086617,-183.45606)">
    <g
       id="g10466"
       transform="matrix(1.087151,0,0,1.3743767,-822.40892,229.55496)"
       inkscape:export-xdpi="96"
       inkscape:export-ydpi="96">
      <path
         sodipodi:nodetypes="cc"
         inkscape:connector-curvature="0"
         id="path10409"
         d="m 764.64892,-31.950599 c -0.0606,1.875076 1.54442,1.983894 2.53008,2.530078"
         style="fill:none;stroke:#000000;stroke-width:0.66500002;stroke-linecap:butt;stroke-linejoin:miter;stroke-miterlimit:4;stroke-dasharray:none;stroke-opacity:1" />
      <path
         sodipodi:nodetypes="cc"
         inkscape:connector-curvature="0"
         id="path10411"
         d="m 765.24423,-30.214274 c 0.0847,1.266688 2.61993,3.039603 3.20807,-0.132289"
         style="fill:none;stroke:#000000;stroke-width:0.66500002;stroke-linecap:butt;stroke-linejoin:miter;stroke-miterlimit:4;stroke-dasharray:none;stroke-opacity:1" />
      <path
         transform="matrix(0.26458333,0,0,0.26458333,285.2735,-172.92749)"
         inkscape:connector-curvature="0"
         id="path10433"
         d="m 1764.845,552.98352 c -0.7172,-3.9842 -0.4944,-9.05069 0.6061,-13.7782 l 0.1918,-0.82395 1.1513,-0.2005 c 2.578,-0.44893 5.1844,-1.57139 6.4514,-2.77826 0.4657,-0.44358 0.4878,-0.44649 1.9446,-0.25545 2.598,0.34071 7.9344,0.57392 10.6659,0.46612 3.3225,-0.13113 8.3141,-0.42655 9.0156,-0.53357 0.4811,-0.0734 0.5795,0.002 1.0606,0.81798 0.7587,1.28587 2.3493,2.7003 3.5361,3.14433 2.5076,0.93821 5.2298,0.19819 9.34,-2.53912 0.9565,-0.63701 1.7593,-1.1582 1.784,-1.1582 0.025,0 0.1439,0.33808 0.2651,0.7513 0.1211,0.41321 0.4121,1.0994 0.6467,1.52486 0.2345,0.42547 0.4264,0.79298 0.4264,0.81669 0,0.0237 -0.4971,0.13916 -1.1048,0.25653 -1.5724,0.30371 -3.4877,1.27108 -4.4788,2.26212 -1.1574,1.15747 -1.9619,2.93081 -2.4447,5.38898 l -0.3913,1.9926 -2.0602,0.0498 -2.0602,0.0498 -1.0407,-1.04077 c -1.0542,-1.0541 -2.7146,-2.02618 -3.4368,-2.012 -0.287,0.006 -27.4902,7.4223 -29.675,8.09057 -0.2145,0.0656 -0.3155,-0.0607 -0.3931,-0.49158 z"
         style="opacity:1;fill:#d56029;fill-opacity:1;stroke:#000000;stroke-width:0.37749478;stroke-miterlimit:4;stroke-dasharray:none;stroke-opacity:1" />
      <path
         transform="matrix(0.26458333,0,0,0.26458333,285.2735,-172.92749)"
         inkscape:connector-curvature="0"
         id="path10439"
         d="m 1836.0757,539.03092 c -3.3097,-1.70734 -8.3949,-2.06469 -17.2508,-1.21223 l -3.2703,0.31481 -0.5706,-0.42812 c -0.7564,-0.56756 -1.4254,-1.74188 -1.6778,-2.94529 -0.2598,-1.23835 -0.2162,-1.29237 1.8639,-2.30989 l 1.6219,-0.79344 13.2979,-0.39978 c 7.3138,-0.21988 13.3321,-0.36458 13.3739,-0.32155 0.042,0.043 0.1342,2.00731 0.2053,4.36507 l 0.1293,4.28684 -3.3386,-0.009 -3.3385,-0.009 z"
         style="opacity:1;fill:#c7c7c1;fill-opacity:1;stroke:#000000;stroke-width:0.37749478;stroke-miterlimit:4;stroke-dasharray:none;stroke-opacity:1" />
      <g
         id="g10449">
        <g
           id="g10417"
           transform="translate(142.87503)">
          <path
             sodipodi:nodetypes="ccccccccccccccccccc"
             inkscape:connector-curvature="0"
             id="path10407"
             d="m 609.25779,-30.793047 c -0.36753,1.617867 -0.58422,3.101966 -0.13428,4.7625 l 8.16901,-2.248959 c 0.30773,0.114624 0.62294,0.281636 0.99218,0.826823 l 1.62058,-0.04961 c 0.17514,-1.205796 0.17741,-2.508833 2.28203,-2.629297 2.53653,-0.255409 4.88155,-0.585823 6.21771,0.347266 l 13.74179,-0.248047 1.47008,-0.759503 2.06872,-0.01771 -10e-4,-1.124479 14.35482,-0.06615 0.0164,-0.975651 -29.4845,0.132292 -7.51558,0.237185 c -1.88585,0.551182 -4.05065,3.750625 -5.41108,0.871589 -1.96538,0.164204 -3.94615,0.301912 -6.06405,-0.02705 -0.6908,0.74086 -1.4605,0.835905 -2.32266,0.968805 z"
             style="fill:none;stroke:#000000;stroke-width:0.66500002;stroke-linecap:butt;stroke-linejoin:miter;stroke-miterlimit:4;stroke-dasharray:none;stroke-opacity:1" />
          <path
             sodipodi:nodetypes="cccccc"
             inkscape:connector-curvature="0"
             id="path10413"
             d="m 630.52167,-29.80086 -0.0331,-3.075781 -7.43286,0.270253 7.44472,-0.589949 28.87174,-0.06272 0.68361,0.283192"
             style="fill:none;stroke:#000000;stroke-width:0.565;stroke-linecap:butt;stroke-linejoin:miter;stroke-miterlimit:4;stroke-dasharray:none;stroke-opacity:1" />
        </g>
        <path
           style="fill:none;stroke:#000000;stroke-width:0.66500002;stroke-linecap:butt;stroke-linejoin:miter;stroke-miterlimit:4;stroke-dasharray:none;stroke-opacity:1"
           d="m 788.54407,-33.025469 0.0167,2.215883"
           id="path10443"
           inkscape:connector-curvature="0" />
      </g>
      <path
         transform="matrix(0.26458333,0,0,0.26458333,285.2735,-172.92749)"
         inkscape:connector-curvature="0"
         id="path10451"
         d="m 1846.0492,537.32346 c -0.088,-1.13437 -0.1613,-3.02858 -0.1621,-4.20934 v -2.14684 l 10.166,-0.16566 c 5.5913,-0.0911 17.9663,-0.16566 27.5,-0.16566 h 17.334 v 2.625 2.625 h -3.5362 -3.5362 l -2.622,1.40642 -2.622,1.40643 -17.2793,0.33234 c -9.5036,0.18279 -19.0345,0.3374 -21.1797,0.34358 l -3.9005,0.0112 z"
         style="opacity:1;fill:#d56029;fill-opacity:1;stroke:#000000;stroke-width:0.62834644;stroke-miterlimit:4;stroke-dasharray:none;stroke-opacity:1" />
      <path
         transform="matrix(0.26458333,0,0,0.26458333,285.2735,-172.92749)"
         inkscape:connector-curvature="0"
         id="path10453"
         d="m 1903.4675,531.07473 v -0.48669 l 2.0312,-0.0742 c 1.1172,-0.0408 12.7684,-0.1094 25.8916,-0.15238 l 23.8603,-0.0782 -0.09,0.48283 c -0.05,0.26556 -0.1045,0.49748 -0.122,0.51537 -0.032,0.0323 -41.8071,0.27259 -48.2272,0.27744 l -3.3437,0.003 z"
         style="opacity:1;fill:#e3dedb;fill-opacity:1;stroke:#000000;stroke-width:0.31417322;stroke-miterlimit:4;stroke-dasharray:none;stroke-opacity:1" />
    </g>
  </g>
</svg>
