<?xml version="1.0" encoding="UTF-8" standalone="no"?>
<!-- Created with Inkscape (http://www.inkscape.org/) -->

<svg
   xmlns:dc="http://purl.org/dc/elements/1.1/"
   xmlns:cc="http://creativecommons.org/ns#"
   xmlns:rdf="http://www.w3.org/1999/02/22-rdf-syntax-ns#"
   xmlns:svg="http://www.w3.org/2000/svg"
   xmlns="http://www.w3.org/2000/svg"
   xmlns:sodipodi="http://sodipodi.sourceforge.net/DTD/sodipodi-0.dtd"
   xmlns:inkscape="http://www.inkscape.org/namespaces/inkscape"
   width="59.883186mm"
   height="80.940559mm"
   viewBox="0 0 59.883186 80.940559"
   version="1.1"
   id="svg1150"
   inkscape:version="0.92.4 (fd57863, 2020-04-02)"
   sodipodi:docname="plant1.svg">
  <defs
     id="defs1144" />
  <sodipodi:namedview
     id="base"
     pagecolor="#ffffff"
     bordercolor="#666666"
     borderopacity="1.0"
     inkscape:pageopacity="0.0"
     inkscape:pageshadow="2"
     inkscape:zoom="0.45635776"
     inkscape:cx="124.21584"
     inkscape:cy="250.60198"
     inkscape:document-units="mm"
     inkscape:current-layer="layer1"
     showgrid="false"
     inkscape:pagecheckerboard="true" />
  <metadata
     id="metadata1147">
    <rdf:RDF>
      <cc:Work
         rdf:about="">
        <dc:format>image/svg+xml</dc:format>
        <dc:type
           rdf:resource="http://purl.org/dc/dcmitype/StillImage" />
        <dc:title></dc:title>
      </cc:Work>
    </rdf:RDF>
  </metadata>
  <g
     inkscape:label="Layer 1"
     inkscape:groupmode="layer"
     id="layer1"
     transform="translate(25.88319,-134.19788)">
    <g
       id="g4737"
       transform="translate(-748.81657,-436.07519)">
      <path
         sodipodi:nodetypes="cccccccccccccccccccccc"
         inkscape:connector-curvature="0"
         id="path4732"
         d="m 739.92116,622.62685 c -5.48661,-7.66656 -8.35286,-17.92509 -16.797,-22.66616 6.22616,0.35362 9.57451,3.36411 12.93991,6.35885 -1.81352,-6.61517 -4.82342,-11.71311 -8.14964,-16.4099 5.87599,2.97118 9.47679,9.10104 13.18874,15.0766 -1.15508,-5.70264 -0.9735,-9.12944 -8.95839,-26.46095 5.33068,4.69686 10.74808,15.13038 13.49979,22.26835 -0.80794,-6.46172 -1.15781,-12.6969 -5.35014,-20.83249 3.22103,1.86434 7.0112,7.50022 8.46069,12.30741 1.03148,-7.07787 0.96864,-14.38125 0.12443,-21.84567 3.164,7.59707 5.41146,15.42658 5.53679,23.79434 1.22833,-6.98728 3.64201,-12.9975 7.21646,-18.05087 -2.41415,6.88142 -2.18593,10.78224 -2.48843,15.28171 3.36153,-5.84075 6.4404,-12.38049 10.45146,-16.61501 -3.01669,6.28823 -4.02399,11.79701 -5.10132,17.33293 3.40411,-4.57446 6.79007,-8.61071 10.0782,-9.74336 -3.92338,3.49036 -6.3342,9.66621 -8.77177,15.79451 2.64987,-2.35173 5.17279,-5.47095 8.14966,-5.846 -4.8812,4.72419 -5.37137,9.19876 -7.09207,13.74327 4.85647,-4.03977 9.77024,-5.71795 14.74403,-4.92297 -16.43941,8.68427 -14.27281,19.43791 -18.78773,21.7431 z"
         style="fill:#008c43;fill-opacity:1;stroke:#000000;stroke-width:0.7793715;stroke-linecap:butt;stroke-linejoin:miter;stroke-miterlimit:4;stroke-dasharray:none;stroke-opacity:1" />
      <path
         sodipodi:nodetypes="ccccccccc"
         inkscape:connector-curvature="0"
         id="path4730"
         d="m 732.5904,619.87673 0.11868,6.12611 2.54501,0.36628 3.27079,24.24956 h 24.39068 l 3.44882,-24.3945 2.60432,-0.22134 0.0593,-6.23749 z"
         style="fill:#b53b1c;fill-opacity:1;stroke:#000000;stroke-width:1.18990266;stroke-linecap:butt;stroke-linejoin:miter;stroke-miterlimit:4;stroke-dasharray:none;stroke-opacity:1" />
    </g>
  </g>
</svg>
