<?xml version="1.0" encoding="UTF-8" standalone="no"?>
<!-- Created with Inkscape (http://www.inkscape.org/) -->

<svg
   xmlns:dc="http://purl.org/dc/elements/1.1/"
   xmlns:cc="http://creativecommons.org/ns#"
   xmlns:rdf="http://www.w3.org/1999/02/22-rdf-syntax-ns#"
   xmlns:svg="http://www.w3.org/2000/svg"
   xmlns="http://www.w3.org/2000/svg"
   xmlns:sodipodi="http://sodipodi.sourceforge.net/DTD/sodipodi-0.dtd"
   xmlns:inkscape="http://www.inkscape.org/namespaces/inkscape"
   width="39.687531mm"
   height="60.85416mm"
   viewBox="0 0 39.68753 60.85416"
   version="1.1"
   id="svg1483"
   inkscape:version="0.92.4 (fd57863, 2020-04-02)"
   sodipodi:docname="alien.svg"
   inkscape:export-filename="/home/not-yeshwanth-reddy/Documents/Unity Projects/karepaaak_files/Designes/Exports/Player/alien.png"
   inkscape:export-xdpi="94.800003"
   inkscape:export-ydpi="94.800003">
  <defs
     id="defs1477" />
  <sodipodi:namedview
     id="base"
     pagecolor="#ffffff"
     bordercolor="#666666"
     borderopacity="1.0"
     inkscape:pageopacity="0"
     inkscape:pageshadow="2"
     inkscape:zoom="0.73125"
     inkscape:cx="76.389043"
     inkscape:cy="129.84219"
     inkscape:document-units="mm"
     inkscape:current-layer="layer1"
     showgrid="false"
     inkscape:pagecheckerboard="true"
     inkscape:window-width="1366"
     inkscape:window-height="740"
     inkscape:window-x="0"
     inkscape:window-y="0"
     inkscape:window-maximized="1" />
  <metadata
     id="metadata1480">
    <rdf:RDF>
      <cc:Work
         rdf:about="">
        <dc:format>image/svg+xml</dc:format>
        <dc:type
           rdf:resource="http://purl.org/dc/dcmitype/StillImage" />
        <dc:title />
      </cc:Work>
    </rdf:RDF>
  </metadata>
  <g
     inkscape:label="Layer 1"
     inkscape:groupmode="layer"
     id="layer1"
     transform="translate(-119.502,-15.198141)">
    <rect
       style="fill:#008080;stroke-width:0.5;stroke-miterlimit:4;stroke-dasharray:none;stroke:#000000;stroke-opacity:1"
       id="rect12"
       width="26.249836"
       height="31.106619"
       x="126.78788"
       y="44.945683"
       inkscape:export-xdpi="96"
       inkscape:export-ydpi="96"
       inkscape:export-filename="/home/not-yeshwanth-reddy/Desktop/alien.png" />
    <path
       style="fill:#12f833;fill-opacity:1;stroke-width:0.5;stroke:#000000;stroke-opacity:1;stroke-miterlimit:4;stroke-dasharray:none"
       d="m 119.502,30.116071 v -14.91793 h 19.84376 19.84377 v 14.91793 14.917921 H 139.34576 119.502 Z"
       id="path4554"
       inkscape:connector-curvature="0"
       inkscape:export-filename="/home/not-yeshwanth-reddy/Desktop/alien.png"
       inkscape:export-xdpi="96"
       inkscape:export-ydpi="96" />
    <path
       style="fill:#333333;fill-opacity:1;stroke-width:0.06241025"
       d="m 150.54286,33.100161 c -0.19048,-0.022 -0.55882,-0.13821 -0.81856,-0.25833 -0.39142,-0.18099 -0.56166,-0.31234 -0.99475,-0.76742 -0.48401,-0.50859 -0.56608,-0.63587 -1.11397,-1.72754 -0.66842,-1.33185 -0.92349,-2.01169 -1.28382,-3.42167 -0.27596,-1.07983 -0.50902,-2.94445 -0.51407,-4.11287 -0.002,-0.34876 -0.0268,-0.75625 -0.0561,-0.90553 l -0.0534,-0.2714 0.44963,0.0374 c 0.24729,0.0206 0.7188,0.1043 1.0478,0.18604 0.32899,0.0817 0.88152,0.21138 1.22783,0.2881 1.61031,0.35677 3.04937,1.16071 4.49509,2.51121 1.23283,1.15163 2.12432,2.82463 2.50221,4.69575 0.1512,0.74867 0.16721,2.68194 0.0234,2.8224 -0.10927,0.10669 -1.35769,0.63091 -1.7352,0.72862 -0.73679,0.19069 -2.35365,0.29006 -3.17613,0.19521 z"
       id="path836"
       inkscape:connector-curvature="0"
       inkscape:export-filename="/home/not-yeshwanth-reddy/Desktop/alien.png"
       inkscape:export-xdpi="96"
       inkscape:export-ydpi="96" />
  </g>
</svg>
