<?xml version="1.0" encoding="UTF-8" standalone="no"?>
<!-- Created with Inkscape (http://www.inkscape.org/) -->

<svg
   xmlns:dc="http://purl.org/dc/elements/1.1/"
   xmlns:cc="http://creativecommons.org/ns#"
   xmlns:rdf="http://www.w3.org/1999/02/22-rdf-syntax-ns#"
   xmlns:svg="http://www.w3.org/2000/svg"
   xmlns="http://www.w3.org/2000/svg"
   xmlns:xlink="http://www.w3.org/1999/xlink"
   xmlns:sodipodi="http://sodipodi.sourceforge.net/DTD/sodipodi-0.dtd"
   xmlns:inkscape="http://www.inkscape.org/namespaces/inkscape"
   width="46.128857mm"
   height="72.675468mm"
   viewBox="0 0 46.128857 72.675468"
   version="1.1"
   id="svg2074"
   inkscape:version="0.92.4 (fd57863, 2020-04-02)"
   sodipodi:docname="girl.svg">
  <defs
     id="defs2068">
    <linearGradient
       inkscape:collect="always"
       xlink:href="#linearGradient1380"
       id="linearGradient1382"
       x1="689.13776"
       y1="20.480251"
       x2="708.71692"
       y2="20.480251"
       gradientUnits="userSpaceOnUse"
       gradientTransform="translate(-55.004069,-21.702286)" />
    <linearGradient
       inkscape:collect="always"
       id="linearGradient1380">
      <stop
         style="stop-color:#0f4660;stop-opacity:1"
         offset="0"
         id="stop1376" />
      <stop
         style="stop-color:#000004;stop-opacity:1"
         offset="1"
         id="stop1378" />
    </linearGradient>
    <linearGradient
       inkscape:collect="always"
       xlink:href="#linearGradient1396"
       id="linearGradient1398"
       x1="688.60858"
       y1="4.6052523"
       x2="705.54193"
       y2="4.6052523"
       gradientUnits="userSpaceOnUse"
       gradientTransform="translate(-55.004069,-21.702286)" />
    <linearGradient
       inkscape:collect="always"
       id="linearGradient1396">
      <stop
         style="stop-color:#fb5f30;stop-opacity:1"
         offset="0"
         id="stop1392" />
      <stop
         style="stop-color:#e3451a;stop-opacity:1"
         offset="1"
         id="stop1394" />
    </linearGradient>
  </defs>
  <sodipodi:namedview
     id="base"
     pagecolor="#ffffff"
     bordercolor="#666666"
     borderopacity="1.0"
     inkscape:pageopacity="0.0"
     inkscape:pageshadow="2"
     inkscape:zoom="0.66015385"
     inkscape:cx="-64.416731"
     inkscape:cy="362.35929"
     inkscape:document-units="mm"
     inkscape:current-layer="layer1"
     showgrid="false"
     inkscape:pagecheckerboard="true" />
  <metadata
     id="metadata2071">
    <rdf:RDF>
      <cc:Work
         rdf:about="">
        <dc:format>image/svg+xml</dc:format>
        <dc:type
           rdf:resource="http://purl.org/dc/dcmitype/StillImage" />
        <dc:title></dc:title>
      </cc:Work>
    </rdf:RDF>
  </metadata>
  <g
     inkscape:label="Layer 1"
     inkscape:groupmode="layer"
     id="layer1"
     transform="translate(-45.470733,-164.47257)">
    <g
       id="g2006"
       transform="translate(-573.61792,229.51113)"
       inkscape:export-filename="/home/not-yeshwanth-reddy/Documents/Unity Projects/karepaaak_files/Designes/Exports/Player/girl.png"
       inkscape:export-xdpi="96"
       inkscape:export-ydpi="96">
      <g
         transform="translate(1.1963168,-0.49153481)"
         id="g1983">
        <path
           style="fill:none;stroke:#eaeaea;stroke-width:0.28820467px;stroke-linecap:butt;stroke-linejoin:miter;stroke-opacity:1"
           d="m 649.93387,-58.657563 c 1.24367,1.076328 6.87778,-0.605066 6.59798,-2.859197"
           id="path1705"
           inkscape:connector-curvature="0"
           sodipodi:nodetypes="cc" />
        <g
           id="g1951">
          <path
             sodipodi:nodetypes="cccccc"
             inkscape:connector-curvature="0"
             id="path1697"
             d="m 649.97844,-58.589632 c -0.5746,-0.236797 -1.30267,-0.570632 -1.81414,-1.53131 -0.43296,-0.753422 -0.87797,-1.373347 0.75899,-2.270666 2.00877,-1.15258 3.05425,-1.379362 5.46689,-1.811606 1.41346,-0.151036 1.6975,0.820816 1.97923,1.614692 0.19518,0.737383 0.40055,1.294482 0.0693,1.948113"
             style="fill:none;stroke:#dedede;stroke-width:0.65935844;stroke-linecap:butt;stroke-linejoin:miter;stroke-miterlimit:4;stroke-dasharray:none;stroke-opacity:1" />
          <path
             inkscape:connector-curvature="0"
             id="path1715"
             d="m 650.76652,-58.448452 c -0.13679,-0.02028 -0.35977,-0.08423 -0.49554,-0.142087 l -0.24683,-0.105189 0.0459,-0.103254 0.0459,-0.103256 -0.26559,-0.118489 c -0.37013,-0.165116 -0.68369,-0.37565 -0.92597,-0.621733 -0.20571,-0.208934 -0.62436,-0.860072 -0.7445,-1.157924 -0.20073,-0.497737 2.1e-4,-0.763345 1.01905,-1.346899 1.43129,-0.819789 2.35625,-1.156825 4.15873,-1.515346 1.05297,-0.20944 1.32407,-0.239581 1.61475,-0.17953 0.46892,0.09688 0.7075,0.364872 0.98008,1.100868 0.29596,0.799145 0.3871,1.462998 0.24733,1.801328 l -0.0621,0.150412 0.0779,0.04703 c 0.0772,0.04661 0.0766,0.04898 -0.0649,0.262127 -0.66849,1.006269 -2.82716,1.962043 -4.61861,2.04492 -0.28428,0.01319 -0.62882,0.0073 -0.76563,-0.01298 z"
             style="opacity:1;fill:#1e1e1e;fill-opacity:0.67156863;stroke:#d9d9d9;stroke-width:0.05582548;stroke-miterlimit:4;stroke-dasharray:none;stroke-opacity:1" />
        </g>
      </g>
      <path
         inkscape:export-ydpi="96"
         inkscape:export-xdpi="96"
         inkscape:export-filename="/home/not-yeshwanth-reddy/Desktop/alien.png"
         inkscape:connector-curvature="0"
         id="path4554-6-9-93-6"
         d="m 662.82217,-37.831603 v -13.676454 h -16.36466 -16.36466 v 13.676454 13.676491 h 16.36466 16.36466 z"
         style="fill:#f4c8bc;fill-opacity:1;stroke:#000000;stroke-width:0.43932506;stroke-miterlimit:4;stroke-dasharray:none;stroke-opacity:1" />
      <g
         transform="matrix(0.92142324,0,0,1.0001748,52.271835,0.00506612)"
         id="g1921">
        <path
           style="opacity:1;fill:url(#linearGradient1382);fill-opacity:1;stroke:#000000;stroke-width:0.5;stroke-miterlimit:4;stroke-dasharray:none;stroke-opacity:1"
           d="M 656.11344,-0.48420162 V -8.3491216 l -0.43731,0.0276 c -0.24053,0.0152 -6.11398,0.0277 -13.05211,0.0278 l -12.61477,1.6e-4 v 7.83703998 7.83703002 h 13.05208 13.05211 z"
           id="path2091-1-6-2"
           inkscape:connector-curvature="0"
           inkscape:export-xdpi="96"
           inkscape:export-ydpi="96" />
        <g
           id="g1915">
          <path
             inkscape:export-ydpi="96"
             inkscape:export-xdpi="96"
             inkscape:connector-curvature="0"
             id="path2091-5-2-80-9"
             d="m 656.11357,-16.311582 v -7.86497 l -0.4373,0.0276 c -0.24053,0.0152 -6.11398,0.0277 -13.05211,0.0278 l -12.61477,2.3e-4 v 7.83708 7.8370604 h 13.05208 13.0521 z"
             style="opacity:1;fill:url(#linearGradient1398);fill-opacity:1;stroke:#000000;stroke-width:0.5;stroke-miterlimit:4;stroke-dasharray:none;stroke-opacity:1" />
          <path
             inkscape:connector-curvature="0"
             id="path1366"
             d="m 631.02069,-23.467052 -0.13498,14.3999014 h 1.34987 l 0.16874,-14.4607894 h 1.45113 l -0.16874,14.4912354 1.61987,0.03043 0.20249,-14.6130094 1.75486,0.03045 -0.30374,14.4912334 h 1.24866 l 0.33747,-14.4912334 1.38364,0.03045 -0.27,14.5216784 1.45115,-0.03043 0.30372,-14.4912334 1.48487,0.03045 -0.30372,14.5216764 1.34987,-0.03043 0.20251,-14.5216794 h 1.28238 l -0.0674,14.5216794 1.24864,-0.03044 0.23623,-14.5216774 h 1.38364 l -0.1013,14.5521134 h 1.24864 l -0.0338,-14.5216784 h 1.18115 l 0.23624,14.5216784 h 1.45113 l 0.0337,-14.5521224 h 1.34983 l 0.10129,14.4912344 1.28238,0.03044 -0.16874,-14.5216774"
             style="fill:#e3451a;fill-opacity:1;stroke:#ff922b;stroke-width:0.45065948;stroke-linecap:butt;stroke-linejoin:miter;stroke-miterlimit:4;stroke-dasharray:none;stroke-opacity:1" />
        </g>
      </g>
      <path
         sodipodi:nodetypes="cccccccccc"
         inkscape:connector-curvature="0"
         id="path1410"
         d="m 653.76106,-48.311277 c -7.07722,-6.186297 -16.65771,-1.762725 -15.35984,10.243534 0.31337,3.539472 8.19045,18.757137 3.93729,25.785729 -4.0367,-1.630209 -10.3664,3.07478 -19.45348,1.799197 -8.61903,-1.983781 0.70844,-17.156278 0.45167,-34.058802 -7.28425,-22.340911 20.19279,-23.74944 26.07245,-12.292295 11.06593,-9.95059 19.15716,1.303259 14.17339,6.494296 -2.75759,-1.468168 -6.37287,-1.124401 -8.60546,1.981575 -0.33386,0.122818 -0.21366,0.926717 -1.21602,0.04677 z"
         style="fill:#101010;fill-opacity:1;stroke:#000000;stroke-width:0.26457438px;stroke-linecap:butt;stroke-linejoin:miter;stroke-opacity:1" />
      <g
         transform="translate(1.0583333,-0.52916667)"
         id="g1977">
        <g
           id="g1965">
          <g
             transform="matrix(1.1196956,-0.06273102,0.05560799,0.99255559,-137.37754,22.277354)"
             id="g1732">
            <g
               id="g1701"
               transform="translate(1.5875,-0.52916667)">
              <path
                 sodipodi:nodetypes="cccc"
                 inkscape:connector-curvature="0"
                 id="path1425"
                 d="m 700.16502,-35.448119 c 0.055,-1.720429 -0.31724,-3.940218 -3.28713,-4.020581 -2.44715,-0.235273 -5.05043,0.822532 -5.70649,1.438257 -1.47315,1.247977 0.35812,4.346657 1.50182,5.034986"
                 style="fill:#101010;fill-opacity:1;stroke:#d9d9d9;stroke-width:0.86900002;stroke-linecap:butt;stroke-linejoin:miter;stroke-miterlimit:4;stroke-dasharray:none;stroke-opacity:1" />
              <path
                 sodipodi:nodetypes="cc"
                 inkscape:connector-curvature="0"
                 id="path1427"
                 d="m 700.16986,-35.743041 c 0.53985,2.014411 -6.39502,5.294631 -8.15145,2.069387"
                 style="fill:none;stroke:#d1d1d1;stroke-width:0.465;stroke-linecap:butt;stroke-linejoin:miter;stroke-miterlimit:4;stroke-dasharray:none;stroke-opacity:1" />
            </g>
            <path
               style="opacity:1;fill:#4e4e4e;fill-opacity:0.67156863;stroke:#d9d9d9;stroke-width:0.19370079;stroke-miterlimit:4;stroke-dasharray:none;stroke-opacity:1"
               d="m 2615.2843,419.28983 c -1.2799,-0.24237 -2.7822,-0.80334 -3.6821,-1.37491 -0.4051,-0.25732 -0.7575,-0.48677 -0.7832,-0.50989 -0.026,-0.0231 0.068,-0.23667 0.2084,-0.47454 l 0.2552,-0.43251 -0.7516,-0.59047 c -1.7844,-1.40186 -4.1132,-4.78591 -5.2142,-7.5768 -0.689,-1.74648 -0.9323,-2.90327 -0.9421,-4.4784 -0.01,-1.32948 0.018,-1.49594 0.3503,-2.21529 0.8098,-1.75319 3.2482,-3.26153 7.6242,-4.7162 5.2001,-1.72859 10.3839,-2.28876 15.516,-1.67668 2.9889,0.35647 5.4044,1.5695 6.7962,3.41295 1.5084,1.99784 2.2497,4.68172 2.2921,8.29846 l 0.019,1.64676 h 0.4153 c 0.3533,0 0.4152,0.0441 0.4152,0.29571 0,0.16264 -0.205,0.71107 -0.4556,1.21875 -0.6226,1.26134 -2.6805,3.3146 -4.6069,4.59648 -2.8586,1.9022 -6.9459,3.59813 -10.4375,4.33086 -1.9746,0.41438 -5.4801,0.5371 -7.0189,0.24572 z"
               id="path1703"
               inkscape:connector-curvature="0"
               transform="matrix(0.26458333,0,0,0.26458333,3.6023509,-144.09058)" />
          </g>
          <path
             sodipodi:nodetypes="cc"
             inkscape:connector-curvature="0"
             id="path1734"
             d="m 646.26651,-58.261278 c 0.20497,-1.750017 1.00053,-2.400232 2.32677,-1.408283"
             style="fill:none;stroke:#d9d9d9;stroke-width:0.76499999;stroke-linecap:butt;stroke-linejoin:miter;stroke-miterlimit:4;stroke-dasharray:none;stroke-opacity:1" />
        </g>
        <path
           style="fill:none;stroke:#d9d9d9;stroke-width:0.96499997;stroke-linecap:butt;stroke-linejoin:miter;stroke-miterlimit:4;stroke-dasharray:none;stroke-opacity:1"
           d="m 635.82486,-57.105847 c -0.50879,-4.012451 -5.26607,3.955954 -7.15203,7.11055"
           id="path1967"
           inkscape:connector-curvature="0"
           sodipodi:nodetypes="cc" />
      </g>
    </g>
  </g>
</svg>
