<?xml version="1.0" encoding="UTF-8" standalone="no"?>
<!-- Created with Inkscape (http://www.inkscape.org/) -->

<svg
   xmlns:dc="http://purl.org/dc/elements/1.1/"
   xmlns:cc="http://creativecommons.org/ns#"
   xmlns:rdf="http://www.w3.org/1999/02/22-rdf-syntax-ns#"
   xmlns:svg="http://www.w3.org/2000/svg"
   xmlns="http://www.w3.org/2000/svg"
   xmlns:sodipodi="http://sodipodi.sourceforge.net/DTD/sodipodi-0.dtd"
   xmlns:inkscape="http://www.inkscape.org/namespaces/inkscape"
   width="48.149689mm"
   height="87.515526mm"
   viewBox="0 0 48.149689 87.515524"
   version="1.1"
   id="svg2370"
   inkscape:version="0.92.4 (fd57863, 2020-04-02)"
   sodipodi:docname="police_chief.svg"
   inkscape:export-filename="/home/not-yeshwanth-reddy/Documents/Unity Projects/karepaaak_files/Designes/Exports/Player/police_chief.png"
   inkscape:export-xdpi="96"
   inkscape:export-ydpi="96">
  <defs
     id="defs2364" />
  <sodipodi:namedview
     id="base"
     pagecolor="#ffffff"
     bordercolor="#666666"
     borderopacity="1.0"
     inkscape:pageopacity="0.0"
     inkscape:pageshadow="2"
     inkscape:zoom="1.28"
     inkscape:cx="99.924432"
     inkscape:cy="214.10019"
     inkscape:document-units="mm"
     inkscape:current-layer="layer1"
     showgrid="false"
     inkscape:pagecheckerboard="true"
     inkscape:window-width="1366"
     inkscape:window-height="740"
     inkscape:window-x="0"
     inkscape:window-y="0"
     inkscape:window-maximized="1" />
  <metadata
     id="metadata2367">
    <rdf:RDF>
      <cc:Work
         rdf:about="">
        <dc:format>image/svg+xml</dc:format>
        <dc:type
           rdf:resource="http://purl.org/dc/dcmitype/StillImage" />
        <dc:title />
      </cc:Work>
    </rdf:RDF>
  </metadata>
  <g
     inkscape:label="Layer 1"
     inkscape:groupmode="layer"
     id="layer1"
     transform="translate(-151.07378,-610.53504)">
    <path
       style="opacity:1;fill:#fcd7a1;fill-opacity:1;stroke:#000000;stroke-width:0.80000001;stroke-miterlimit:4;stroke-dasharray:none;stroke-opacity:1"
       d="M 191.05817,637.9467 V 626.17881 H 175.7754 160.4926 v 11.76789 11.76791 h 15.2828 15.28277 z"
       id="path4554-6-3"
       inkscape:connector-curvature="0"
       inkscape:export-filename="/home/not-yeshwanth-reddy/Desktop/alien.png"
       inkscape:export-xdpi="96"
       inkscape:export-ydpi="96" />
    <path
       style="opacity:1;fill:#0e66a1;fill-opacity:1;stroke:#000000;stroke-width:0.80000001;stroke-miterlimit:4;stroke-dasharray:none;stroke-opacity:1"
       d="m 198.82323,685.67285 v -11.97779 l -0.79321,0.0421 c -0.43628,0.0232 -11.08991,0.0422 -23.67467,0.0425 l -22.88157,2.6e-4 v 11.93532 11.93533 h 23.67477 23.67468 z"
       id="path2091-6"
       inkscape:connector-curvature="0"
       inkscape:export-xdpi="96"
       inkscape:export-ydpi="96" />
    <path
       style="opacity:1;fill:#e6eff5;fill-opacity:1;stroke:#000000;stroke-width:0.80000001;stroke-miterlimit:4;stroke-dasharray:none;stroke-opacity:1"
       d="m 198.82347,661.56871 v -11.97785 l -0.7932,0.0421 c -0.43627,0.0232 -11.08991,0.0422 -23.6747,0.0425 l -22.88152,2.7e-4 v 11.93535 11.93539 h 23.67476 23.67466 z"
       id="path2091-5-7"
       inkscape:connector-curvature="0"
       inkscape:export-xdpi="96"
       inkscape:export-ydpi="96" />
    <path
       style="opacity:1;fill:none;stroke:#000000;stroke-width:5.30187607;stroke-linecap:butt;stroke-linejoin:miter;stroke-miterlimit:4;stroke-dasharray:none;stroke-opacity:1"
       d="M 198.82347,673.54649 H 151.47405"
       id="path1032"
       inkscape:connector-curvature="0"
       inkscape:export-xdpi="96"
       inkscape:export-ydpi="96" />
    <rect
       style="opacity:1;fill:#ececec;fill-opacity:1;stroke:#ffecec;stroke-width:3.20687151;stroke-miterlimit:4;stroke-dasharray:none;stroke-opacity:0"
       id="rect1044"
       width="8.0879354"
       height="3.146719"
       x="-195.18552"
       y="672.01654"
       ry="0.84287125"
       inkscape:export-xdpi="96"
       inkscape:export-ydpi="96"
       transform="scale(-1,1)" />
    <path
       style="opacity:1;fill:none;stroke:#000000;stroke-width:0.69161922;stroke-linecap:butt;stroke-linejoin:miter;stroke-miterlimit:4;stroke-dasharray:none;stroke-opacity:1"
       d="m 196.26198,626.06235 -37.08864,8.42918 c 0.0954,-1.67019 0.0872,-3.34097 -0.91409,-5.01734 -2.40003,-0.68854 -9.38227,0.0196 -1.3163,-3.85883 l 30.72789,-14.35907 c 3.55461,-1.34682 2.51909,1.21174 1.69511,3.59028 -0.64462,1.81658 -1.39948,3.65709 -1.57818,5.37247 0.61632,1.4882 0.84702,2.10785 1.94896,4.0469 0.91373,0.72374 1.49623,0.76328 3.02639,0.83335 1.8307,0.008 6.03636,-0.33549 3.49886,0.96306 z"
       id="path4769-5"
       inkscape:connector-curvature="0"
       sodipodi:nodetypes="cccccccccc"
       inkscape:export-xdpi="96"
       inkscape:export-ydpi="96" />
    <path
       style="opacity:1;fill:none;stroke:#000000;stroke-width:0.69161922;stroke-linecap:butt;stroke-linejoin:miter;stroke-miterlimit:4;stroke-dasharray:none;stroke-opacity:1"
       d="m 187.78777,620.21904 -29.52852,9.25515"
       id="path4771-6"
       inkscape:connector-curvature="0"
       inkscape:export-xdpi="96"
       inkscape:export-ydpi="96" />
    <path
       style="opacity:1;fill:none;stroke:#000000;stroke-width:0.69161922;stroke-linecap:butt;stroke-linejoin:miter;stroke-miterlimit:4;stroke-dasharray:none;stroke-opacity:1"
       d="m 189.73673,624.26594 -30.56339,10.22559"
       id="path4773-2"
       inkscape:connector-curvature="0"
       inkscape:export-xdpi="96"
       inkscape:export-ydpi="96" />
    <path
       style="opacity:1;fill:none;stroke:#000000;stroke-width:0.46842572px;stroke-linecap:butt;stroke-linejoin:miter;stroke-opacity:1"
       d="m 185.40155,614.62287 c 0.14809,1.78939 0.84011,3.25359 1.91009,4.49172 0.88435,-1.50649 1.81258,-2.98973 2.06791,-4.82895 -1.46404,2.07937 -1.762,0.79813 -2.06575,-0.17697 -0.36469,1.75852 -1.17885,1.17385 -1.91225,0.51421 z"
       id="path4775-9"
       inkscape:connector-curvature="0"
       sodipodi:nodetypes="ccccc"
       inkscape:export-xdpi="96"
       inkscape:export-ydpi="96" />
    <path
       style="opacity:1;fill:#0e66a1;fill-opacity:1;stroke:#ff00ec;stroke-width:0.31297055;stroke-miterlimit:4;stroke-dasharray:none;stroke-opacity:0"
       d="m 173.14665,624.50099 c 7.80949,-2.45649 14.24843,-4.47938 14.30881,-4.49533 0.0603,-0.0157 0.14268,-0.21455 0.183,-0.44141 0.10177,-0.57172 0.0769,-0.6263 -0.1281,-0.28243 l -0.17727,0.29735 -0.39224,-0.49441 c -0.54022,-0.68086 -1.11752,-1.71893 -1.3708,-2.46462 -0.20455,-0.60235 -0.53763,-2.51936 -0.44134,-2.54026 0.0253,-0.005 0.29298,0.18729 0.59505,0.42835 0.30208,0.24105 0.63685,0.44589 0.74398,0.45519 0.26548,0.023 0.44805,-0.29584 0.62966,-1.09959 0.0796,-0.35159 0.16016,-0.62577 0.17937,-0.60929 0.0189,0.0165 0.15857,0.39882 0.30967,0.84966 0.15117,0.45086 0.32886,0.86608 0.39497,0.92274 0.19692,0.16887 0.5222,-0.0673 1.06767,-0.77467 0.4559,-0.59134 0.52156,-0.72853 0.6984,-1.45848 0.36783,-1.519 0.16906,-1.76248 -1.18595,-1.45208 -0.73023,0.16719 -1.20874,0.36454 -3.44269,1.41911 -1.42696,0.67368 -8.30813,3.89364 -15.29144,7.1555 -13.57141,6.33915 -14.02486,6.5558 -15.09372,7.21097 -0.68697,0.42112 -1.33975,0.97506 -1.31902,1.11915 0.0281,0.19574 0.91452,0.39292 2.70644,0.6022 0.76456,0.0893 1.54424,0.19395 1.7325,0.23255 0.18828,0.0386 0.51146,0.0288 0.71817,-0.0218 0.20666,-0.0507 6.76535,-2.10186 14.57488,-4.55835 z"
       id="path4785-1"
       inkscape:connector-curvature="0"
       inkscape:export-xdpi="96"
       inkscape:export-ydpi="96" />
    <path
       style="opacity:1;fill:#0e66a1;fill-opacity:1;stroke:#ff00ec;stroke-width:0.44260696;stroke-miterlimit:4;stroke-dasharray:none;stroke-opacity:0"
       d="m 174.58337,629.01255 c 12.14522,-4.08135 14.63454,-4.95113 14.58567,-5.09632 -0.0322,-0.0963 -0.28946,-0.63664 -0.57127,-1.20074 -0.28175,-0.56408 -0.60674,-1.28374 -0.72216,-1.59923 l -0.20994,-0.57356 -0.57304,0.20385 c -0.47435,0.16874 -10.78861,3.40688 -25.43509,7.98522 -1.58224,0.49461 -2.88726,0.91647 -2.9,0.93749 -0.0128,0.0212 0.10676,0.38931 0.26601,0.81832 0.28309,0.7637 0.52002,2.48227 0.4523,3.28031 -0.0217,0.25474 0.0126,0.29128 0.21862,0.23393 0.13442,-0.0373 6.8344,-2.28258 14.8889,-4.98929 z"
       id="path4787-2"
       inkscape:connector-curvature="0"
       inkscape:export-xdpi="96"
       inkscape:export-ydpi="96" />
    <path
       style="opacity:1;fill:#000000;fill-opacity:1;stroke:#ff00ec;stroke-width:0.44260696;stroke-miterlimit:4;stroke-dasharray:none;stroke-opacity:0"
       d="m 182.92379,628.76981 c 7.48933,-1.71248 13.63689,-3.12662 13.66115,-3.14248 0.0246,-0.0158 -0.01,-0.0747 -0.0744,-0.13043 -0.0652,-0.0559 -1.08369,-0.0992 -2.26345,-0.0964 -2.79042,0.008 -3.64394,-0.11489 -4.28246,-0.61072 -0.24717,-0.19193 -0.44189,-0.13134 -12.07439,3.75783 -6.5028,2.17411 -11.93748,3.99852 -12.0771,4.05427 -0.39314,0.15698 2.42451,-0.47406 17.11052,-3.83211 z"
       id="path4789-7"
       inkscape:connector-curvature="0"
       inkscape:export-xdpi="96"
       inkscape:export-ydpi="96" />
    <path
       style="opacity:1;fill:#e4e489;fill-opacity:1;stroke:#ff00ec;stroke-width:0.44260696;stroke-miterlimit:4;stroke-dasharray:none;stroke-opacity:0"
       d="m 187.78635,617.739 c 0.52638,-0.96372 1.03399,-2.0503 1.01605,-2.17478 -0.006,-0.051 -0.19104,-0.0231 -0.40813,0.0617 -0.39881,0.15595 -0.76231,-0.007 -0.95957,-0.42859 -0.0623,-0.13423 -0.11312,-0.12631 -0.27425,0.0431 -0.27121,0.28521 -0.82953,0.38673 -1.14276,0.20782 -0.24063,-0.13743 -0.25753,-0.13093 -0.22599,0.0873 0.10438,0.72292 1.25741,3.05502 1.486,3.00538 0.0441,-0.01 0.27296,-0.37051 0.50865,-0.80205 z"
       id="path4791-0"
       inkscape:connector-curvature="0"
       inkscape:export-xdpi="96"
       inkscape:export-ydpi="96" />
    <path
       style="opacity:1;fill:none;stroke:#000000;stroke-width:1.17733502;stroke-linecap:butt;stroke-linejoin:miter;stroke-miterlimit:4;stroke-dasharray:none;stroke-opacity:1"
       d="m 188.75926,622.37024 -21.58066,7.45405"
       id="path4793-9"
       inkscape:connector-curvature="0"
       sodipodi:nodetypes="cc"
       inkscape:export-xdpi="96"
       inkscape:export-ydpi="96" />
    <path
       style="opacity:1;fill:#1a1a1a;stroke:#000000;stroke-width:0.30368122px;stroke-linecap:butt;stroke-linejoin:miter;stroke-opacity:1"
       d="m 194.45456,637.76807 c -0.59358,3.47208 -3.2374,4.56073 -8.03001,0.31428 -0.90571,-0.89522 -2.84651,-3.10444 0.43261,-3.07679 l 5.17547,-0.0534 c 2.35492,-0.007 2.42622,1.47368 2.42193,2.81582 z"
       id="path6703"
       inkscape:connector-curvature="0"
       sodipodi:nodetypes="cccccc"
       inkscape:export-xdpi="96"
       inkscape:export-ydpi="96" />
    <path
       style="opacity:1;fill:#1a1a1a;stroke:#000000;stroke-width:0.30264929px;stroke-linecap:butt;stroke-linejoin:miter;stroke-opacity:1"
       d="m 174.25362,637.76833 c 0.58958,3.47211 3.21543,4.56074 7.97556,0.31429 0.89955,-0.89523 2.82718,-3.10445 -0.42964,-3.07679 l -5.14035,-0.0533 c -2.33895,-0.007 -2.40976,1.47368 -2.4055,2.81583 z"
       id="path6703-3"
       inkscape:connector-curvature="0"
       sodipodi:nodetypes="cccccc"
       inkscape:export-xdpi="96"
       inkscape:export-ydpi="96" />
    <path
       style="opacity:1;fill:none;stroke:#000000;stroke-width:0.18938231;stroke-linecap:butt;stroke-linejoin:miter;stroke-miterlimit:4;stroke-dasharray:none;stroke-opacity:1"
       d="m 185.61105,637.19042 c -0.90558,-0.93456 -1.85252,-0.91839 -2.54228,-0.0383"
       id="path6720"
       inkscape:connector-curvature="0"
       sodipodi:nodetypes="cc"
       inkscape:export-xdpi="96"
       inkscape:export-ydpi="96" />
  </g>
</svg>
